<svg preserveAspectRatio="none" width="100%" height="100%" overflow="visible" style="display: block;" viewBox="0 0 8 5" fill="none" xmlns="http://www.w3.org/2000/svg">
<path id="Vector" d="M6.36035 0.5C6.3823 0.5 6.40391 0.504508 6.42383 0.512695L6.47852 0.548828C6.49412 0.564316 6.50619 0.583217 6.51465 0.603516C6.52301 0.623691 6.52732 0.645157 6.52734 0.666992C6.52734 0.688991 6.52311 0.711133 6.51465 0.731445L6.47852 0.785156L3.61914 3.61133L3.61523 3.61523C3.59985 3.63068 3.58163 3.64295 3.56152 3.65137C3.54121 3.65983 3.51907 3.66406 3.49707 3.66406C3.47511 3.66405 3.45289 3.65981 3.43262 3.65137C3.41254 3.64293 3.39426 3.63069 3.37891 3.61523L0.548828 0.785156C0.533428 0.769772 0.521079 0.751536 0.512695 0.731445C0.504234 0.711136 0.5 0.688995 0.5 0.666992C0.500027 0.645202 0.504369 0.623649 0.512695 0.603516C0.521117 0.583302 0.53331 0.564277 0.548828 0.548828H0.549805C0.580983 0.517835 0.623035 0.500054 0.666992 0.5C0.710296 0.5 0.752137 0.51679 0.783203 0.546875V0.547852L3.14355 2.90723L3.49512 3.25879L3.84863 2.91016L6.24121 0.549805L6.24316 0.548828C6.27435 0.517829 6.31639 0.500047 6.36035 0.5Z" fill="var(--fill-0, #1D1F20)" stroke="var(--stroke-0, #1D1F20)"/>
</svg>
