<svg preserveAspectRatio="none" width="100%" height="100%" overflow="visible" style="display: block;" viewBox="0 0 56 10" fill="none" xmlns="http://www.w3.org/2000/svg">
<g id="Group">
<path id="Vector" d="M0.226653 7.74086C0.176286 7.74086 0.125919 7.71597 0.0755517 7.66619C0.0251844 7.61641 0 7.56663 0 7.49196C0 7.46707 -3.84647e-07 7.44218 0.0251833 7.39241L2.66947 0.398441C2.69465 0.323773 2.74502 0.273993 2.79538 0.199324C2.84575 0.149545 2.94649 0.124659 3.04722 0.124659H4.25604C4.35677 0.124659 4.45751 0.149545 4.50787 0.199324C4.55824 0.249103 4.60861 0.323773 4.63379 0.398441L7.27807 7.39241C7.27807 7.4173 7.27807 7.46707 7.27807 7.49196C7.27807 7.56663 7.25289 7.61641 7.20252 7.66619C7.15215 7.71597 7.10179 7.74086 7.05142 7.74086H6.09444C5.99371 7.74086 5.91815 7.71597 5.86779 7.66619C5.81742 7.61641 5.79224 7.56663 5.76705 7.54174L5.26338 6.2226H1.98951L1.48584 7.54174C1.46065 7.59152 1.43547 7.6413 1.3851 7.66619C1.33473 7.71597 1.25918 7.74086 1.15845 7.74086H0.226653ZM2.39245 4.95323H4.88563L3.62644 1.59314L2.39245 4.95323Z" fill="var(--fill-0, #585959)"/>
<path id="Vector_2" d="M11.6853 7.8401C11.1564 7.8401 10.7031 7.74054 10.3002 7.54142C9.89723 7.34231 9.59503 7.06852 9.36838 6.69518C9.14173 6.32184 9.01581 5.87383 8.99063 5.35115C8.99063 5.25159 8.99063 5.10225 8.99063 4.92802C8.99063 4.7538 8.99063 4.60446 8.99063 4.48002C9.01581 3.95734 9.14173 3.50932 9.36838 3.13598C9.59503 2.76264 9.89723 2.48885 10.3002 2.28974C10.7031 2.09062 11.1564 1.99106 11.6853 1.99106C12.1638 1.99106 12.5415 2.06573 12.8941 2.19018C13.2215 2.31463 13.4985 2.48885 13.7 2.68797C13.9014 2.88708 14.0777 3.0862 14.1784 3.31021C14.2792 3.53421 14.3295 3.70844 14.3547 3.88267C14.3547 3.95733 14.3295 4.032 14.2792 4.08178C14.2288 4.13156 14.1533 4.15645 14.0777 4.15645H13.1207C13.0452 4.15645 12.9948 4.13156 12.9444 4.10667C12.8941 4.08178 12.8689 4.00711 12.8185 3.93244C12.7178 3.63377 12.5667 3.43465 12.3904 3.31021C12.2141 3.18576 11.9875 3.13598 11.7105 3.13598C11.3327 3.13598 11.0557 3.26043 10.829 3.48444C10.6024 3.70844 10.5016 4.08178 10.4765 4.55468C10.4513 4.82847 10.4513 5.07736 10.4765 5.32626C10.5016 5.82405 10.6024 6.19739 10.829 6.4214C11.0557 6.6454 11.3327 6.76985 11.7105 6.76985C11.9875 6.76985 12.2141 6.72007 12.3904 6.59562C12.5667 6.47118 12.7178 6.27206 12.8185 5.97339C12.8437 5.89872 12.8941 5.84894 12.9444 5.79916C12.9948 5.77427 13.0452 5.74938 13.1207 5.74938H14.0777C14.1533 5.74938 14.2036 5.77427 14.2792 5.82405C14.3295 5.87383 14.3547 5.92361 14.3547 6.02317C14.3547 6.14761 14.3044 6.29695 14.254 6.47118C14.2036 6.6454 14.1029 6.79474 13.9518 6.96897C13.8259 7.14319 13.6496 7.29253 13.4481 7.44187C13.2467 7.5912 12.9948 7.69076 12.7178 7.79032C12.3904 7.79032 12.063 7.8401 11.6853 7.8401Z" fill="var(--fill-0, #585959)"/>
<path id="Vector_3" d="M18.2328 7.84039C17.8551 7.84039 17.5025 7.76572 17.2003 7.61638C16.8981 7.46704 16.6463 7.26793 16.47 7.01903C16.2937 6.77014 16.193 6.49635 16.193 6.17279C16.193 5.67499 16.3944 5.25187 16.8226 4.9532C17.2507 4.65453 17.7795 4.45541 18.4595 4.35585L19.9705 4.13184V3.90784C19.9705 3.60917 19.895 3.36027 19.7439 3.21093C19.5928 3.03671 19.3157 2.96204 18.9632 2.96204C18.7113 2.96204 18.4847 3.01182 18.3084 3.11138C18.1321 3.21093 18.0314 3.36027 17.9306 3.5345C17.8803 3.63406 17.7795 3.68383 17.6788 3.68383H16.8226C16.747 3.68383 16.6715 3.65895 16.6463 3.60917C16.5959 3.55939 16.5959 3.50961 16.5959 3.43494C16.5959 3.31049 16.6463 3.18604 16.747 3.01182C16.8477 2.83759 16.9737 2.68825 17.1751 2.53892C17.3514 2.38958 17.6032 2.24024 17.9055 2.14068C18.2077 2.04112 18.5602 1.96646 18.9883 1.96646C19.4417 1.96646 19.8446 2.01623 20.1468 2.14068C20.4742 2.26513 20.726 2.41447 20.9023 2.58869C21.1038 2.78781 21.2297 2.98693 21.3304 3.26071C21.406 3.50961 21.4563 3.78339 21.4563 4.05717V7.46704C21.4563 7.54171 21.4312 7.59149 21.3808 7.64127C21.3304 7.69105 21.2549 7.71594 21.2045 7.71594H20.3231C20.2475 7.71594 20.172 7.69105 20.1216 7.64127C20.0712 7.59149 20.0461 7.51682 20.0461 7.46704V7.04392C19.9453 7.16837 19.8194 7.29281 19.6683 7.41726C19.5172 7.54171 19.3157 7.64127 19.0891 7.71594C18.8121 7.79061 18.5602 7.84039 18.2328 7.84039ZM18.6106 6.81991C18.8624 6.81991 19.0891 6.77014 19.3157 6.64569C19.5172 6.54613 19.6935 6.3719 19.8194 6.1479C19.9453 5.92389 19.9957 5.62522 19.9957 5.27676V5.05276L18.8876 5.22699C18.4595 5.30165 18.1321 5.40121 17.9306 5.55055C17.7292 5.69988 17.6033 5.87411 17.6033 6.07323C17.6033 6.22257 17.6536 6.3719 17.7544 6.47146C17.8551 6.59591 17.981 6.67058 18.1321 6.72036C18.2832 6.77014 18.4343 6.81991 18.6106 6.81991Z" fill="var(--fill-0, #585959)"/>
<path id="Vector_4" d="M26.0651 7.84026C25.6874 7.84026 25.36 7.76559 25.0578 7.64114C24.7808 7.51669 24.5289 7.34247 24.3275 7.09357C24.126 6.86956 24.0001 6.59578 23.8993 6.27221C23.7986 5.94865 23.7482 5.6002 23.723 5.22685C23.723 5.10241 23.723 4.97796 23.723 4.8784C23.723 4.77884 23.723 4.65439 23.723 4.52995C23.7482 4.1566 23.7986 3.83304 23.8993 3.50947C24.0001 3.2108 24.1512 2.93701 24.3275 2.68812C24.5289 2.46411 24.7556 2.265 25.0578 2.14055C25.3348 2.0161 25.6874 1.94143 26.0651 1.94143C26.4681 1.94143 26.7955 2.0161 27.0725 2.14055C27.3495 2.265 27.5761 2.43922 27.7524 2.66323V0.248945C27.7524 0.174276 27.7776 0.124494 27.828 0.0747149C27.8783 0.0249358 27.9287 4.92769e-05 28.0294 4.92769e-05H28.9612C29.0368 4.92769e-05 29.0872 0.0249358 29.1375 0.0747149C29.1879 0.124494 29.2131 0.199166 29.2131 0.248945V7.44202C29.2131 7.51669 29.1879 7.56647 29.1375 7.61625C29.0872 7.66603 29.0116 7.69092 28.9612 7.69092H28.105C28.0294 7.69092 27.9539 7.66603 27.9035 7.61625C27.8532 7.56647 27.828 7.4918 27.828 7.44202V7.06868C27.6517 7.29268 27.3999 7.46691 27.1228 7.61625C26.8458 7.76559 26.4932 7.84026 26.0651 7.84026ZM26.4681 6.67044C26.7703 6.67044 27.0221 6.59578 27.1984 6.47133C27.3747 6.32199 27.5258 6.14777 27.6013 5.94865C27.6769 5.72464 27.7272 5.52553 27.7524 5.30152C27.7524 5.17707 27.7524 5.02774 27.7524 4.8784C27.7524 4.72906 27.7524 4.57972 27.7524 4.45528C27.7524 4.23127 27.7021 4.03215 27.6013 3.83304C27.5006 3.63392 27.3747 3.45969 27.1732 3.33525C26.9969 3.2108 26.7451 3.13613 26.4681 3.13613C26.1659 3.13613 25.914 3.2108 25.7377 3.33525C25.5615 3.45969 25.4355 3.63392 25.36 3.85793C25.2844 4.08193 25.2341 4.30594 25.2089 4.57972C25.2089 4.80373 25.2089 5.00285 25.2089 5.22685C25.2341 5.47575 25.2592 5.72464 25.36 5.94865C25.4355 6.17266 25.5615 6.34688 25.7377 6.47133C25.914 6.62067 26.1659 6.67044 26.4681 6.67044Z" fill="var(--fill-0, #585959)"/>
<path id="Vector_5" d="M34.2243 7.84039C33.4185 7.84039 32.7637 7.61638 32.2852 7.14348C31.8067 6.67058 31.5549 6.02345 31.5045 5.1772C31.5045 5.10254 31.5045 5.00298 31.5045 4.90342C31.5045 4.77897 31.5045 4.7043 31.5045 4.62964C31.5297 4.08207 31.6556 3.60916 31.8822 3.21093C32.1089 2.8127 32.4111 2.51403 32.814 2.29002C33.217 2.06601 33.6703 1.96646 34.1992 1.96646C34.8036 1.96646 35.282 2.0909 35.685 2.3398C36.0879 2.58869 36.3901 2.91226 36.5916 3.36027C36.7931 3.78339 36.8938 4.28118 36.8938 4.85364V5.07765C36.8938 5.15232 36.8686 5.20209 36.8183 5.25187C36.7679 5.30165 36.6923 5.32654 36.6168 5.32654H32.9651C32.9651 5.37632 32.9651 5.40121 32.9651 5.40121C32.9651 5.65011 33.0155 5.899 33.1163 6.09812C33.217 6.32213 33.3429 6.47146 33.5192 6.6208C33.6955 6.74525 33.9221 6.81991 34.174 6.81991C34.3754 6.81991 34.5517 6.79503 34.6776 6.72036C34.8287 6.67058 34.9295 6.59591 35.0302 6.49635C35.1058 6.42168 35.1813 6.34701 35.2065 6.29723C35.2821 6.22256 35.3324 6.1479 35.3576 6.1479C35.408 6.12301 35.4583 6.12301 35.5339 6.12301H36.4909C36.5664 6.12301 36.6168 6.1479 36.6672 6.19768C36.7175 6.24746 36.7427 6.29723 36.7175 6.3719C36.7175 6.49635 36.642 6.6208 36.5412 6.79502C36.4153 6.96925 36.2642 7.11859 36.0627 7.29281C35.8613 7.44215 35.5843 7.59149 35.2569 7.69105C35.005 7.79061 34.6525 7.84039 34.2243 7.84039ZM33.0407 4.43052H35.4583V4.40563C35.4583 4.13185 35.408 3.88295 35.3072 3.65894C35.2065 3.43494 35.0806 3.2856 34.8791 3.16115C34.7028 3.03671 34.4762 2.98693 34.2243 2.98693C33.9725 2.98693 33.7458 3.03671 33.5696 3.16115C33.3933 3.2856 33.2422 3.43494 33.1666 3.65894C33.0659 3.88295 33.0407 4.13185 33.0407 4.40563V4.43052Z" fill="var(--fill-0, #585959)"/>
<path id="Vector_6" d="M39.4878 7.7406C39.4122 7.7406 39.3619 7.71571 39.3115 7.66593C39.2611 7.61615 39.2359 7.54148 39.2359 7.4917V2.33957C39.2359 2.2649 39.2611 2.21512 39.3115 2.16534C39.3619 2.11556 39.4374 2.09067 39.4878 2.09067H40.344C40.4196 2.09067 40.4699 2.11556 40.5203 2.16534C40.5707 2.21512 40.5959 2.28979 40.5959 2.33957V2.71291C40.747 2.5138 40.9484 2.33957 41.2254 2.19023C41.4773 2.04089 41.8047 1.96623 42.1572 1.96623C42.9883 1.94134 43.5675 2.2649 43.8949 2.93692C44.0712 2.63824 44.2978 2.41424 44.6252 2.24001C44.9526 2.06579 45.3052 1.96623 45.6829 1.96623C46.0607 1.96623 46.4133 2.0409 46.7155 2.21512C47.0177 2.38935 47.2695 2.66313 47.4458 3.01159C47.6221 3.36004 47.7228 3.80805 47.7228 4.33073V7.44192C47.7228 7.51659 47.6976 7.56637 47.6473 7.61615C47.5969 7.66593 47.5213 7.69082 47.471 7.69082H46.5644C46.4888 7.69082 46.4384 7.66593 46.3881 7.61615C46.3377 7.56637 46.3125 7.4917 46.3125 7.44192V4.4054C46.3125 4.08184 46.2622 3.83294 46.1614 3.63382C46.0607 3.43471 45.9348 3.31026 45.7837 3.23559C45.6326 3.16093 45.4311 3.11115 45.2548 3.11115C45.1037 3.11115 44.9274 3.16093 44.7763 3.23559C44.6252 3.31026 44.4741 3.4596 44.3734 3.63382C44.2727 3.83294 44.2223 4.08184 44.2223 4.4054V7.44192C44.2223 7.51659 44.1971 7.56637 44.1467 7.61615C44.0964 7.66593 44.0208 7.69082 43.9705 7.69082H43.0387C42.9631 7.69082 42.9127 7.66593 42.8624 7.61615C42.812 7.56637 42.7868 7.4917 42.7868 7.44192V4.4054C42.7868 4.08184 42.7365 3.83294 42.6357 3.63382C42.535 3.43471 42.4091 3.31026 42.2328 3.23559C42.0817 3.16093 41.9054 3.11115 41.7291 3.11115C41.5528 3.11115 41.4017 3.16093 41.2254 3.23559C41.0743 3.31026 40.9232 3.4596 40.8225 3.63382C40.7218 3.83294 40.6714 4.08184 40.6714 4.4054V7.44192C40.6714 7.51659 40.6462 7.56637 40.5959 7.61615C40.5455 7.66593 40.4699 7.69082 40.4196 7.69082H39.4878V7.7406Z" fill="var(--fill-0, #585959)"/>
<path id="Vector_7" d="M51.0724 9.78171C51.022 9.78171 50.9716 9.75682 50.9213 9.70705C50.8709 9.65727 50.8457 9.60749 50.8457 9.55771C50.8457 9.53282 50.8457 9.50793 50.8457 9.48304C50.8457 9.45815 50.8709 9.43326 50.8961 9.38348L51.7523 7.36743L49.6369 2.4393C49.6117 2.36463 49.5865 2.31485 49.5865 2.28996C49.5865 2.21529 49.6117 2.16551 49.6621 2.11573C49.7124 2.06596 49.7628 2.04106 49.8384 2.04106H50.7198C50.7953 2.04106 50.8709 2.06596 50.9213 2.11573C50.9716 2.16551 50.9968 2.21529 51.022 2.26507L52.4826 5.82428L53.9937 2.26507C54.0189 2.21529 54.044 2.16551 54.0944 2.11573C54.1448 2.06596 54.1951 2.06595 54.2959 2.06595H55.1773C55.2277 2.06595 55.278 2.09084 55.3284 2.14062C55.3788 2.1904 55.404 2.24018 55.404 2.28996C55.404 2.33974 55.3788 2.38952 55.3536 2.46419L52.256 9.5826C52.2308 9.63238 52.1804 9.68215 52.1553 9.73193C52.1049 9.78171 52.0545 9.78171 51.9538 9.78171H51.0724V9.78171Z" fill="var(--fill-0, #585959)"/>
</g>
</svg>
