<svg preserveAspectRatio="none" width="100%" height="100%" overflow="visible" style="display: block;" viewBox="0 0 148 36" fill="none" xmlns="http://www.w3.org/2000/svg">
<path id="Shape" fill-rule="evenodd" clip-rule="evenodd" d="M124.604 12.8785L125.582 19.6748C129.467 20.8729 133.077 22.4391 136.171 23.9999L136.728 24.2835V24.2835L137.273 24.5665C137.632 24.7549 137.984 24.9425 138.327 25.1287L138.835 25.4069C138.918 25.4531 139.002 25.4991 139.084 25.5451L139.573 25.8192C139.653 25.8646 139.733 25.9098 139.812 25.955L140.28 26.2238V26.2238L140.734 26.4886V26.4886L141.174 26.7487V26.7487L141.599 27.0037V27.0037L142.009 27.2532C142.076 27.2943 142.143 27.3351 142.209 27.3756L142.596 27.6157V27.6157L142.968 27.849V27.849L143.323 28.0749V28.0749L143.662 28.2929V28.2929L143.985 28.5026V28.5026L144.436 28.8004V28.8004L144.848 29.0766V29.0766L145.22 29.3296V29.3296L145.55 29.5576V29.5576L146.005 29.8776V29.8776L146.432 30.1864V30.1864L146.606 30.3157L147.091 35.5414L94.5657 35.7119L92.7078 15.0205L124.604 12.8785ZM10.1571 0L39.5555 15.8059L58.2636 27.5552V32.6367C17.4953 33.6674 3.56412 25.1554 0.631 22.9249L0.44596 22.7812C0.417962 22.759 0.391369 22.7377 0.366157 22.7172L0.231262 22.6056V22.6056L0.128353 22.5167V22.5167L0 22.3986L1.78281 18.3092L10.1571 0Z" fill="var(--fill-0, #FD9043)"/>
</svg>
