<svg preserveAspectRatio="none" width="100%" height="100%" overflow="visible" style="display: block;" viewBox="0 0 100 91" fill="none" xmlns="http://www.w3.org/2000/svg">
<path id="Path" fill-rule="evenodd" clip-rule="evenodd" d="M34.8973 0L37.2765 0.631846L37.2595 0.695488L43.5278 9.52269L49.544 5.38753L49.5792 5.26136L49.921 3.98983L50.0986 4.03716L51.0254 5.75124L51.9861 5.98693L52.1861 6.00993L52.3364 6.03243L52.4581 6.05304L52.5963 6.07874L52.7505 6.11004L52.9201 6.14745L53.1045 6.19148L53.303 6.24265L53.4075 6.27107L53.5152 6.30147L53.7405 6.36844L53.8578 6.40515L53.9782 6.44409L54.2277 6.52892L54.4021 6.59146L54.5815 6.65854L54.7656 6.73034L54.9542 6.80699L55.1473 6.88866L55.3446 6.97551C55.3779 6.99043 55.4113 7.00556 55.4448 7.02093L55.6481 7.11583L55.8552 7.2163C55.9249 7.25073 55.9951 7.28612 56.0659 7.32249L56.28 7.43456C56.352 7.47291 56.4244 7.51227 56.4974 7.55266L56.7178 7.67695L56.9412 7.80759C57.0161 7.85221 57.0914 7.89791 57.1672 7.94473L57.3958 8.08853L57.6267 8.23914C60.218 9.95963 63.2167 12.984 65.5076 18.2909L65.6107 18.5325L65.7609 18.9521L66.0245 19.6707L66.3596 20.5632L66.6573 21.3411L66.93 22.0427L67.2329 22.8113L67.4966 23.4722L67.7793 24.1721L68.0806 24.9094C68.1324 25.0353 68.1849 25.1627 68.2382 25.2915L68.5672 26.0817L68.9143 26.905C71.8809 33.8966 76.7174 44.164 82.8978 53.3283C87.5997 60.3003 93.0795 66.6338 99.1057 70.4006L99.5823 70.6924L89.5953 90.0362L88.937 89.5586L88.2577 89.0597L87.61 88.5798L86.8532 88.0146L86.2923 87.5927L85.6894 87.1364L85.0469 86.6472L84.3675 86.1265L83.6536 85.5756L82.9079 84.996L82.1328 84.3892L81.3309 83.7565L80.5047 83.0994L79.6569 82.4193C70.9357 75.3928 59.2463 65.0198 56.6388 58.0217L56.5168 57.6769L56.0719 60.7774L48.6809 59.9918C50.7514 61.3615 53.0469 62.6693 55.591 63.8942L64.5803 69.0116L52.2707 88.0584L38.1587 80.4671L38.049 80.4213L37.8099 80.3167L37.5473 80.1971L37.3344 80.0971L37.0924 79.9807L36.8222 79.8474C36.7275 79.8002 36.6283 79.7501 36.5248 79.6971L36.2011 79.5294C36.089 79.4705 35.9726 79.4088 35.8522 79.344L35.479 79.1406C30.73 76.5199 20.6558 69.7275 13.4127 56.2447L0 54.8179L5.76715 21.9854L5.78416 21.8708L5.82133 21.6422L5.88201 21.3006L5.90786 21.1631L5.9685 20.8546L6.04165 20.5035L6.07632 20.3436L6.15288 20.0033L6.23939 19.6368C7.69003 13.6345 13.0354 -1.64578 29.5673 0.539277L30.0984 0.614932L32.765 1.2694C33.3501 0.844484 33.9984 0.435725 34.6889 0.0988501L34.8973 0Z" fill="var(--fill-0, white)"/>
</svg>
