<svg preserveAspectRatio="none" width="100%" height="100%" overflow="visible" style="display: block;" viewBox="0 0 92 15" fill="none" xmlns="http://www.w3.org/2000/svg">
<g id="Group">
<path id="Vector" d="M0.512356 14.6102C0.358649 14.6102 0.23056 14.5604 0.153706 14.4608C0.0512352 14.3613 0 14.2368 0 14.1124V1.1947C0 1.04537 0.0512352 0.920918 0.153706 0.84625C0.256178 0.746691 0.358649 0.696912 0.512356 0.696912H6.07142C7.83905 0.696912 9.22241 1.09515 10.2471 1.86672C11.2462 2.66319 11.7586 3.75833 11.7586 5.20192C11.7586 6.14772 11.528 6.94419 11.0669 7.59132C10.6058 8.23845 9.99095 8.73624 9.22241 9.0598L12.0148 13.9382C12.066 14.0128 12.066 14.0875 12.066 14.1622C12.066 14.2617 12.0147 14.3613 11.9379 14.4608C11.861 14.5355 11.7586 14.5853 11.6305 14.5853H8.915C8.65882 14.5853 8.45387 14.5106 8.3514 14.3862C8.22331 14.2617 8.14646 14.1373 8.09523 14.0377L5.76401 9.68204H3.68896V14.0875C3.68896 14.2119 3.63773 14.3364 3.53526 14.4359C3.43279 14.5355 3.3047 14.5853 3.15099 14.5853H0.512356V14.6102ZM3.66335 6.86952H6.02018C6.66063 6.86952 7.14737 6.72018 7.45478 6.42151C7.76219 6.12284 7.94152 5.69971 7.94152 5.20192C7.94152 4.67924 7.78781 4.28101 7.4804 3.95744C7.17299 3.63388 6.68625 3.48454 6.02018 3.48454H3.66335V6.86952Z" fill="var(--fill-0, #585959)"/>
<path id="Vector_2" d="M18.0862 14.8093C17.3432 14.8093 16.7028 14.6848 16.1136 14.4111C15.5244 14.1373 15.0633 13.7639 14.7302 13.3159C14.3972 12.843 14.2179 12.3203 14.2179 11.7479C14.2179 10.8021 14.6021 10.0554 15.3963 9.50782C16.1904 8.96025 17.2408 8.5869 18.5473 8.38779L21.1091 8.01444V7.74066C21.1091 7.26776 21.0066 6.89441 20.8016 6.64552C20.5967 6.39662 20.2124 6.27217 19.6745 6.27217C19.2902 6.27217 18.9828 6.34684 18.7522 6.49618C18.5217 6.64552 18.3167 6.84463 18.1886 7.09353C18.0605 7.26776 17.9068 7.34243 17.6763 7.34243H15.3963C15.2426 7.34243 15.1401 7.29265 15.0376 7.21798C14.9608 7.14331 14.9096 7.01886 14.9352 6.9193C14.9352 6.67041 15.0376 6.39662 15.217 6.09795C15.3963 5.79927 15.6781 5.47571 16.0624 5.17703C16.4466 4.87836 16.9334 4.62946 17.5226 4.43035C18.1118 4.23123 18.8547 4.13167 19.7001 4.13167C20.5711 4.13167 21.314 4.23123 21.9544 4.43035C22.5693 4.62946 23.0816 4.90325 23.4915 5.2517C23.8758 5.60016 24.1832 6.02328 24.3625 6.52107C24.5418 6.99397 24.6443 7.54154 24.6443 8.114V14.1373C24.6443 14.2617 24.5931 14.3862 24.4906 14.4857C24.3881 14.5853 24.2601 14.6351 24.132 14.6351H21.7751C21.6214 14.6351 21.4933 14.5853 21.4165 14.4857C21.314 14.3862 21.2628 14.2617 21.2628 14.1373V13.4404C21.0834 13.6893 20.8529 13.9133 20.5455 14.1373C20.2381 14.3613 19.905 14.5106 19.4951 14.6351C19.0853 14.7346 18.6241 14.8093 18.0862 14.8093ZM19.0596 12.5443C19.4439 12.5443 19.8026 12.4697 20.1356 12.2954C20.443 12.1212 20.6992 11.8723 20.9041 11.5239C21.0834 11.1754 21.1859 10.7274 21.1859 10.2047V9.93094L19.4439 10.2296C18.8035 10.3292 18.3423 10.5034 18.0349 10.7274C17.7531 10.9514 17.5994 11.2003 17.5994 11.499C17.5994 11.723 17.6763 11.9221 17.8044 12.0714C17.9325 12.2208 18.1118 12.3452 18.3423 12.4448C18.5473 12.4946 18.8035 12.5443 19.0596 12.5443Z" fill="var(--fill-0, #585959)"/>
<path id="Vector_3" d="M28.487 14.6102C28.3333 14.6102 28.2052 14.5604 28.1284 14.4608C28.0259 14.3613 27.9747 14.2368 27.9747 14.1124V0.995589C27.9747 0.846252 28.0259 0.721805 28.1284 0.647136C28.2308 0.547578 28.3333 0.497798 28.487 0.497798H30.8439C30.9719 0.497798 31.1 0.547578 31.2025 0.647136C31.305 0.746694 31.3562 0.871141 31.3562 0.995589V7.6411L34.1998 4.60458C34.2766 4.50502 34.3791 4.43035 34.456 4.35568C34.5584 4.28101 34.6865 4.25612 34.8659 4.25612H37.607C37.7351 4.25612 37.8375 4.3059 37.9144 4.38057C37.9912 4.45524 38.0425 4.57968 38.0425 4.67924C38.0425 4.72902 38.0425 4.80369 38.0168 4.85347C37.9912 4.92814 37.94 4.97792 37.8888 5.00281L34.1998 8.86069L38.3755 13.8137C38.478 13.9133 38.5292 14.0128 38.5292 14.1124C38.5292 14.2368 38.478 14.3613 38.4011 14.4359C38.3243 14.5106 38.1962 14.5604 38.0681 14.5604H35.2757C35.0708 14.5604 34.9171 14.5355 34.8146 14.4608C34.7122 14.3862 34.6353 14.3115 34.5584 14.2368L31.3818 10.5034V14.1124C31.3818 14.2368 31.3306 14.3613 31.2281 14.4608C31.1257 14.5604 30.9976 14.6102 30.8695 14.6102H28.487Z" fill="var(--fill-0, #585959)"/>
<path id="Vector_4" d="M43.9089 14.8093C43.1659 14.8093 42.5255 14.6848 41.9363 14.4111C41.3471 14.1373 40.886 13.7639 40.5529 13.3159C40.2199 12.843 40.0406 12.3203 40.0406 11.7479C40.0406 10.8021 40.4248 10.0554 41.219 9.50782C42.0131 8.96025 43.0635 8.5869 44.37 8.38779L46.9318 8.01444V7.74066C46.9318 7.26776 46.8293 6.89441 46.6243 6.64552C46.4194 6.39662 46.0351 6.27217 45.4972 6.27217C45.1129 6.27217 44.8055 6.34684 44.5749 6.49618C44.3444 6.64552 44.1394 6.84463 44.0113 7.09353C43.8832 7.26776 43.7295 7.34243 43.499 7.34243H41.219C41.0653 7.34243 40.9628 7.29265 40.8603 7.21798C40.7835 7.14331 40.7323 7.01886 40.7579 6.9193C40.7579 6.67041 40.8603 6.39662 41.0397 6.09795C41.219 5.79927 41.5008 5.47571 41.8851 5.17703C42.2693 4.87836 42.7561 4.62946 43.3453 4.43035C43.9345 4.23123 44.6774 4.13167 45.5228 4.13167C46.3938 4.13167 47.1367 4.23123 47.7771 4.43035C48.392 4.62946 48.9043 4.90325 49.3142 5.2517C49.6985 5.60016 50.0059 6.02328 50.1852 6.52107C50.3646 6.99397 50.467 7.54154 50.467 8.114V14.1373C50.467 14.2617 50.4158 14.3862 50.3133 14.4857C50.2108 14.5853 50.0828 14.6351 49.9547 14.6351H47.5978C47.4441 14.6351 47.316 14.5853 47.2392 14.4857C47.1367 14.3862 47.0855 14.2617 47.0855 14.1373V13.4404C46.9061 13.6893 46.6756 13.9133 46.3682 14.1373C46.0608 14.3613 45.7277 14.5106 45.3178 14.6351C44.908 14.7346 44.4468 14.8093 43.9089 14.8093ZM44.8823 12.5443C45.2666 12.5443 45.6253 12.4697 45.9583 12.2954C46.2657 12.1212 46.5219 11.8723 46.7268 11.5239C46.9061 11.1754 47.0086 10.7274 47.0086 10.2047V9.93094L45.2666 10.2296C44.6262 10.3292 44.165 10.5034 43.8576 10.7274C43.5758 10.9514 43.4221 11.2003 43.4221 11.499C43.4221 11.723 43.499 11.9221 43.6271 12.0714C43.7552 12.2208 43.9345 12.3452 44.165 12.4448C44.37 12.4946 44.6005 12.5443 44.8823 12.5443Z" fill="var(--fill-0, #585959)"/>
<path id="Vector_5" d="M54.3097 14.6102C54.156 14.6102 54.0279 14.5604 53.9511 14.4608C53.8486 14.3613 53.7973 14.2368 53.7973 14.1124V4.7788C53.7973 4.62946 53.8486 4.50501 53.9511 4.43035C54.0535 4.33079 54.156 4.28101 54.3097 4.28101H56.5385C56.6922 4.28101 56.8203 4.33079 56.8971 4.43035C56.9996 4.5299 57.0508 4.65435 57.0508 4.7788V5.45082C57.3326 5.10236 57.7169 4.7788 58.2036 4.50502C58.6904 4.23123 59.2796 4.08189 59.9456 4.08189C61.5339 4.03211 62.6099 4.60457 63.1991 5.79927C63.5065 5.30148 63.9676 4.87836 64.5312 4.57968C65.1204 4.25612 65.7353 4.10678 66.4526 4.10678C67.1699 4.10678 67.7847 4.25612 68.3739 4.57968C68.9375 4.90325 69.3986 5.37615 69.7316 5.99839C70.0647 6.64552 70.244 7.46687 70.244 8.48734V14.1124C70.244 14.2368 70.1928 14.3613 70.0903 14.4608C69.9878 14.5604 69.8597 14.6102 69.7316 14.6102H67.3748C67.2211 14.6102 67.093 14.5604 66.9905 14.4608C66.8881 14.3613 66.8368 14.2368 66.8368 14.1124V8.61179C66.8368 8.13889 66.76 7.79044 66.6319 7.51665C66.5038 7.24287 66.3245 7.04375 66.0683 6.9193C65.8377 6.79485 65.5816 6.74508 65.2741 6.74508C65.018 6.74508 64.7874 6.79485 64.5568 6.9193C64.3263 7.04375 64.1213 7.24287 63.9932 7.51665C63.8395 7.79044 63.7883 8.16378 63.7883 8.61179V14.1124C63.7883 14.2368 63.7371 14.3613 63.6346 14.4608C63.5321 14.5604 63.404 14.6102 63.2759 14.6102H60.9191C60.7654 14.6102 60.6373 14.5604 60.5605 14.4608C60.458 14.3613 60.4068 14.2368 60.4068 14.1124V8.61179C60.4068 8.13889 60.3299 7.79044 60.1762 7.51665C60.0225 7.24287 59.8432 7.04375 59.6126 6.9193C59.382 6.79485 59.1259 6.74508 58.8441 6.74508C58.5879 6.74508 58.3317 6.79485 58.1011 6.9193C57.8706 7.04375 57.6656 7.24287 57.5376 7.51665C57.3838 7.79044 57.3326 8.13889 57.3326 8.5869V14.1124C57.3326 14.2368 57.2814 14.3613 57.1789 14.4608C57.0764 14.5604 56.9483 14.6102 56.8203 14.6102H54.3097Z" fill="var(--fill-0, #585959)"/>
<path id="Vector_6" d="M74.0097 2.78763C73.856 2.78763 73.7279 2.73785 73.651 2.63829C73.5486 2.53874 73.4973 2.41429 73.4973 2.28984V0.497791C73.4973 0.373343 73.5486 0.248896 73.651 0.149338C73.7535 0.0497797 73.856 0 74.0097 0H76.469C76.5971 0 76.7252 0.0497797 76.8276 0.149338C76.9301 0.248896 76.9813 0.373343 76.9813 0.497791V2.28984C76.9813 2.43918 76.9301 2.56363 76.8276 2.63829C76.7252 2.73785 76.5971 2.78763 76.469 2.78763H74.0097ZM74.0353 14.6102C73.8816 14.6102 73.7535 14.5604 73.6766 14.4608C73.5742 14.3613 73.5229 14.2368 73.5229 14.1124V4.7788C73.5229 4.62946 73.5742 4.50501 73.6766 4.43034C73.7791 4.33078 73.8816 4.28101 74.0353 4.28101H76.4434C76.5971 4.28101 76.7252 4.33078 76.802 4.43034C76.9045 4.5299 76.9557 4.65435 76.9557 4.7788V14.1124C76.9557 14.2368 76.9045 14.3613 76.802 14.4608C76.6995 14.5604 76.5714 14.6102 76.4434 14.6102H74.0353Z" fill="var(--fill-0, #585959)"/>
<path id="Vector_7" d="M81.5413 14.6102C81.3876 14.6102 81.2595 14.5604 81.1827 14.4608C81.0802 14.3613 81.029 14.2368 81.029 14.1124V4.7788C81.029 4.62946 81.0802 4.50501 81.1827 4.43035C81.2852 4.33079 81.3876 4.28101 81.5413 4.28101H83.8982C84.0519 4.28101 84.18 4.33079 84.2824 4.43035C84.3849 4.5299 84.4362 4.65435 84.4362 4.7788V5.52549C84.7692 5.12725 85.2303 4.7788 85.7939 4.50501C86.3575 4.23123 87.0492 4.08189 87.8177 4.08189C88.6119 4.08189 89.3035 4.25612 89.9184 4.60457C90.5332 4.95303 90.9943 5.45082 91.353 6.12284C91.7116 6.79485 91.8653 7.61621 91.8653 8.5869V14.1124C91.8653 14.2368 91.8141 14.3613 91.7116 14.4608C91.6091 14.5604 91.4811 14.6102 91.353 14.6102H88.7912C88.6631 14.6102 88.535 14.5604 88.4325 14.4608C88.3301 14.3613 88.2788 14.2368 88.2788 14.1124V8.68646C88.2788 8.06422 88.1251 7.59132 87.8177 7.24287C87.5103 6.89441 87.0492 6.74508 86.46 6.74508C85.8964 6.74508 85.4609 6.9193 85.1278 7.24287C84.7948 7.59132 84.6155 8.06422 84.6155 8.68646V14.1124C84.6155 14.2368 84.5642 14.3613 84.4618 14.4608C84.3593 14.5604 84.2312 14.6102 84.1031 14.6102H81.5413Z" fill="var(--fill-0, #585959)"/>
</g>
</svg>
