<svg preserveAspectRatio="none" width="100%" height="100%" overflow="visible" style="display: block;" viewBox="0 0 166 228" fill="none" xmlns="http://www.w3.org/2000/svg">
<g id="Borders">
<path id="Border" d="M110.848 62.7211L115.356 31.3866" stroke="var(--stroke-0, #000001)" stroke-width="1.6" stroke-linecap="round" stroke-linejoin="round"/>
<path id="Border_2" d="M154.685 66.3862C156.463 67.8473 157.962 69.6162 159.111 71.6081" stroke="var(--stroke-0, #000001)" stroke-width="1.6" stroke-linecap="round" stroke-linejoin="round"/>
<path id="Border_3" d="M151.502 69.6499C153.34 71.4524 154.954 73.4685 156.31 75.655" stroke="var(--stroke-0, #000001)" stroke-width="1.6" stroke-linecap="round" stroke-linejoin="round"/>
<path id="Border_4" d="M148.777 73.4292C150.322 75.3411 151.729 77.3586 152.991 79.467" stroke="var(--stroke-0, #000001)" stroke-width="1.6" stroke-linecap="round" stroke-linejoin="round"/>
<path id="Border_5" d="M149.173 83.1386L150.314 85.6026" stroke="var(--stroke-0, #000001)" stroke-width="1.6" stroke-linecap="round" stroke-linejoin="round"/>
<path id="Border_6" d="M128.359 89.9924C127.004 87.5047 125.357 85.1874 123.452 83.0897" stroke="var(--stroke-0, #000001)" stroke-width="1.6" stroke-linecap="round" stroke-linejoin="round"/>
<path id="Border_7" d="M124.704 93.592C124.704 93.592 122.054 88.9575 121.086 88.06" stroke="var(--stroke-0, #000001)" stroke-width="1.6" stroke-linecap="round" stroke-linejoin="round"/>
<path id="Border_8" d="M121.803 97.5282C120.9 95.5459 119.804 93.6569 118.531 91.8886" stroke="var(--stroke-0, #000001)" stroke-width="1.6" stroke-linecap="round" stroke-linejoin="round"/>
<path id="Border_9" d="M105.09 6.4464L108.267 12.5303L105.09 17.8305L102.506 13.2287L98.4857 13.8814L93.7718 12.4519L89.9282 15.6601C89.9282 15.6601 85.3877 11.3358 84.547 6.24771C86.8968 3.78663 88.6146 2.39491 89.7004 2.07254C90.4241 2.28394 91.1924 2.48892 92.0055 2.68747" stroke="var(--stroke-0, #000001)" stroke-width="1.6" stroke-linecap="round" stroke-linejoin="round"/>
<path id="Border_10" d="M65.7253 8.18259L65.1078 7.67391L65.1013 7.68204L65.7253 8.18259ZM85.1423 1.10642L85.2632 0.315602L85.263 0.315572L85.1423 1.10642ZM65.3494 8.65134L64.7253 8.15076L64.7195 8.15815L65.3494 8.65134ZM59.2849 22.2187L60.0664 22.3897L60.067 22.3869L59.2849 22.2187ZM59.2781 22.25L58.4965 22.079L58.4951 22.0859L59.2781 22.25ZM59.2048 22.5996L59.9858 22.7731L59.9878 22.7636L59.2048 22.5996ZM59.2009 22.6191L58.4159 22.4649L58.4157 22.4661L59.2009 22.6191ZM59.1413 22.9248L59.9258 23.0817L59.9266 23.0778L59.1413 22.9248ZM59.1404 22.9297L59.9165 23.1237C59.9196 23.1114 59.9223 23.099 59.9248 23.0866L59.1404 22.9297ZM59.1384 22.9375L58.3623 22.7434C58.3586 22.7581 58.3554 22.7728 58.3526 22.7876L59.1384 22.9375ZM59.1221 23.027L58.3345 22.8871L58.3344 22.8871L59.1221 23.027ZM59.112 23.083L58.3254 22.9373L58.3254 22.9374L59.112 23.083ZM59.1101 23.0918L59.8974 23.2339L59.8983 23.2285L59.1101 23.0918ZM59.0486 23.4326L59.8357 23.5757L59.8358 23.5747L59.0486 23.4326ZM59.0466 23.4433L58.2594 23.3002L58.2575 23.3118L59.0466 23.4433ZM59.0447 23.4551L59.8208 23.6491C59.8259 23.6284 59.8303 23.6076 59.8338 23.5866L59.0447 23.4551ZM59.0437 23.459L58.2676 23.2649C58.2621 23.2867 58.2576 23.3086 58.254 23.3307L59.0437 23.459ZM59.0066 23.6875L58.2169 23.5592L58.2169 23.5596L59.0066 23.6875ZM59.0053 23.695L58.2166 23.561L58.2166 23.5611L59.0053 23.695ZM59.0027 23.7119L59.795 23.8226L59.796 23.8153L59.0027 23.7119ZM58.99 23.8027L59.7779 23.9411C59.7795 23.9319 59.781 23.9227 59.7823 23.9135L58.99 23.8027ZM53.2263 56.6142L52.4384 56.4758L52.4383 56.4763L53.2263 56.6142ZM53.5251 57.8535L52.886 58.3346L52.8862 58.3349L53.5251 57.8535ZM54.6326 58.4824L54.5472 59.2778L54.548 59.2779L54.6326 58.4824ZM68.0456 59.9082L67.9611 60.7037C67.9892 60.7067 68.0174 60.7082 68.0456 60.7082V59.9082ZM68.0466 59.9082L68.1307 59.1126C68.1028 59.1097 68.0747 59.1082 68.0466 59.1082V59.9082ZM69.8064 58.4863L70.6019 58.5712L70.6019 58.5709L69.8064 58.4863ZM68.3845 56.7256L68.4693 55.9301L68.4692 55.9301L68.3845 56.7256ZM56.6736 55.4795L55.8856 55.341C55.8473 55.5593 55.9012 55.7837 56.0345 55.9607C56.1678 56.1377 56.3686 56.2515 56.5889 56.275L56.6736 55.4795ZM62.1453 24.3359L61.3593 24.1862L61.3573 24.1975L62.1453 24.3359ZM62.1482 24.3213L61.3606 24.1811L61.3606 24.1811L62.1482 24.3213ZM62.1504 24.3067L62.9425 24.4185L62.9425 24.4185L62.1504 24.3067ZM62.1521 24.2949L62.9432 24.414C62.9442 24.4074 62.9451 24.4008 62.9459 24.3941L62.1521 24.2949ZM62.1531 24.2871L61.3604 24.1785L61.3592 24.1879L62.1531 24.2871ZM62.1628 24.2158L61.3758 24.0722C61.3737 24.0838 61.3718 24.0955 61.3702 24.1072L62.1628 24.2158ZM62.1667 24.2002L62.9564 24.3283L62.9565 24.328L62.1667 24.2002ZM62.1999 23.9951L61.4121 23.8554L61.4102 23.8672L62.1999 23.9951ZM62.2595 23.6592L63.0472 23.7988C63.0928 23.5416 63.01 23.2782 62.8252 23.0935L62.2595 23.6592ZM62.2585 23.6582L61.4718 23.513C61.424 23.7719 61.5067 24.0377 61.6928 24.2239L62.2585 23.6582ZM62.2732 23.5813L63.0584 23.7347L63.0584 23.7347L62.2732 23.5813ZM62.282 23.5361L63.0678 23.686L63.0679 23.6853L62.282 23.5361ZM62.283 23.5273L61.486 23.458L61.486 23.4581L62.283 23.5273ZM62.2839 23.5195L61.5 23.36C61.4982 23.3687 61.4966 23.3775 61.4951 23.3864L62.2839 23.5195ZM62.3406 23.2412L63.1245 23.4007L63.1246 23.4L62.3406 23.2412ZM62.3445 23.2138L61.5616 23.0493C61.5593 23.0601 61.5573 23.0709 61.5555 23.0817L62.3445 23.2138ZM62.4089 22.9072L61.6267 22.7395L61.626 22.7426L62.4089 22.9072ZM67.8689 10.624L67.2452 10.1229L67.239 10.1308L67.8689 10.624ZM68.1882 10.2265L67.5702 9.71846L67.5646 9.72547L68.1882 10.2265ZM84.6589 4.2695L84.7796 3.47866L84.7796 3.47866L84.6589 4.2695ZM86.4831 2.92966L87.2739 3.05065C87.2801 3.01061 87.2831 2.97017 87.2831 2.92966H86.4831ZM86.4831 2.92868L85.6922 2.80842C85.6862 2.84822 85.6831 2.88842 85.6831 2.92868L86.4831 2.92868ZM54.8025 56.8906L54.0145 56.7522C53.9762 56.9706 54.0302 57.1951 54.1637 57.3722C54.2972 57.5492 54.4981 57.663 54.7187 57.6862L54.8025 56.8906ZM55.6462 56.9795L55.5624 57.7751C56.0003 57.8212 56.3931 57.5049 56.4414 57.0673C56.4897 56.6297 56.1754 56.2353 55.7381 56.1848L55.6462 56.9795ZM54.948 56.0625L55.7385 56.1856C55.806 55.752 55.5117 55.345 55.0788 55.2732C54.6459 55.2015 54.236 55.4918 54.1601 55.924L54.948 56.0625ZM55.0994 56.667L54.4603 57.1482L54.4605 57.1485L55.0994 56.667ZM91.2185 1.29489L90.8242 0.598805C90.8127 0.605316 90.8014 0.612111 90.7902 0.619183L91.2185 1.29489ZM93.3103 1.76169L93.9626 1.29858L93.9626 1.29851L93.3103 1.76169ZM91.0798 1.38279L90.6516 0.707073C90.6397 0.714578 90.6281 0.722392 90.6166 0.730509L91.0798 1.38279ZM90.7009 3.61325L90.0485 4.07621L90.0486 4.07641L90.7009 3.61325ZM97.0261 12.5215L96.3738 12.9846L96.3739 12.9847L97.0261 12.5215ZM99.237 12.914L99.6899 13.5735L99.6902 13.5733L99.237 12.914ZM105.254 8.77829V7.97829C105.092 7.97829 104.934 8.02736 104.8 8.11903L105.254 8.77829ZM105.255 8.77829V9.57829C105.417 9.57829 105.575 9.52907 105.708 9.43713L105.255 8.77829ZM105.309 8.7365L105.81 9.36059L105.81 9.36051L105.309 8.7365ZM105.332 8.71872L106.06 8.3882C105.959 8.16483 105.761 8.0003 105.523 7.9418C105.284 7.88331 105.032 7.93732 104.839 8.08835L105.332 8.71872ZM106.605 9.64939L106.718 8.85743C106.711 8.85641 106.704 8.8555 106.697 8.85467L106.605 9.64939ZM106.612 9.65036L106.499 10.4423C106.51 10.4438 106.52 10.4451 106.531 10.4462L106.612 9.65036ZM106.756 9.66501L107.321 9.09933C107.191 8.96913 107.02 8.88784 106.837 8.86914L106.756 9.66501ZM106.757 9.66599L106.191 10.2317C106.315 10.3553 106.475 10.435 106.648 10.4587L106.757 9.66599ZM106.907 9.6865L107.043 8.89813C107.034 8.89653 107.024 8.8951 107.015 8.89383L106.907 9.6865ZM106.964 9.69626L107.115 8.91068C107.11 8.9097 107.105 8.90877 107.1 8.90789L106.964 9.69626ZM106.968 9.69771L107.239 8.94483L107.238 8.94468L106.968 9.69771ZM106.973 9.69919L106.832 10.4866L106.838 10.4877L106.973 9.69919ZM107.07 9.71579L107.24 8.93405C107.229 8.93156 107.217 8.92932 107.205 8.92733L107.07 9.71579ZM107.075 9.71773L107.4 8.98671L107.4 8.98666L107.075 9.71773ZM107.081 9.7197L106.922 10.5037L106.927 10.5047L107.081 9.7197ZM107.235 9.74997L107.402 8.96742L107.389 8.96494L107.235 9.74997ZM107.341 9.77243L107.537 8.99686C107.527 8.99438 107.517 8.99209 107.507 8.98998L107.341 9.77243ZM107.347 9.77482L107.04 10.5133L107.04 10.5135L107.347 9.77482ZM107.354 9.77732L107.172 10.5562L107.175 10.5569L107.354 9.77732ZM107.503 9.8115L107.708 9.03827C107.699 9.036 107.691 9.03388 107.682 9.0319L107.503 9.8115ZM107.506 9.81295L107.87 9.10073L107.87 9.1003L107.506 9.81295ZM107.51 9.81443L107.708 9.03945L107.708 9.03939L107.51 9.81443ZM107.708 9.86521L107.509 10.6402C107.749 10.7015 108.003 10.6487 108.198 10.4972C108.394 10.3457 108.508 10.1124 108.508 9.86521H107.708ZM107.708 9.86423L107.914 9.09137C107.674 9.02716 107.418 9.07828 107.221 9.22969C107.023 9.38111 106.908 9.6156 106.908 9.86423H107.708ZM107.719 9.86732L107.513 10.6402L107.513 10.6402L107.719 9.86732ZM107.855 9.90427L108.089 9.13932C108.084 9.13757 108.078 9.13589 108.072 9.13427L107.855 9.90427ZM107.859 9.90621L107.443 10.5895L107.443 10.5895L107.859 9.90621ZM107.863 9.90818L107.637 10.6754L107.638 10.6758L107.863 9.90818ZM108.066 9.96775L108.308 9.20529C108.303 9.20349 108.297 9.20175 108.291 9.20008L108.066 9.96775ZM108.07 9.96919L108.421 9.25078L108.421 9.25069L108.07 9.96919ZM108.073 9.97068L107.837 10.7352L107.838 10.7353L108.073 9.97068ZM108.136 9.98993L107.904 10.7556L107.904 10.7556L108.136 9.98993ZM108.251 10.0254L108.523 9.27329C108.515 9.27006 108.506 9.26698 108.497 9.26407L108.251 10.0254ZM108.258 10.0287L108.631 9.32115L108.631 9.321L108.258 10.0287ZM108.265 10.0322L108.008 10.7896L108.008 10.7897L108.265 10.0322ZM108.515 10.1172L108.781 9.3626L108.773 9.35971L108.515 10.1172ZM118.919 21.1787L119.672 20.908C119.666 20.894 119.661 20.8801 119.655 20.8663L118.919 21.1787ZM119.057 21.5644L118.305 21.8351L118.306 21.8378L119.057 21.5644ZM119.061 21.5752L118.309 21.8486L118.31 21.8507L119.061 21.5752ZM119.325 22.2939L120.078 22.0245L120.076 22.0184L119.325 22.2939ZM119.327 22.2993L120.09 22.0589L120.089 22.0571L119.327 22.2993ZM119.329 22.3056L120.078 22.0247L120.078 22.0239L119.329 22.3056ZM119.61 23.0556L118.861 23.3365C118.863 23.342 118.865 23.3474 118.867 23.3527L119.61 23.0556ZM119.612 23.0605L120.36 22.7775C120.359 22.7728 120.357 22.7681 120.355 22.7634L119.612 23.0605ZM119.722 23.3525L118.975 23.6372L118.975 23.6381L119.722 23.3525ZM119.729 23.366L119.008 23.7131L119.008 23.7135L119.729 23.366ZM119.732 23.374L120.48 23.0887C120.477 23.0815 120.474 23.0743 120.471 23.0672L119.732 23.374ZM119.966 23.9853L120.713 23.7002L120.713 23.7L119.966 23.9853ZM119.968 23.9912H120.768C120.768 23.8916 120.75 23.7929 120.714 23.7002L119.968 23.9912ZM119.968 23.9922H119.168C119.168 24.0911 119.187 24.1893 119.223 24.2816L119.968 23.9922ZM120.241 24.6943L119.495 24.9837C119.498 24.9924 119.502 25.0009 119.506 25.0094L120.241 24.6943ZM120.244 24.7011L120.988 24.4083C120.985 24.4008 120.982 24.3934 120.979 24.386L120.244 24.7011ZM120.547 25.4707L119.802 25.7635L119.802 25.7638L120.547 25.4707ZM120.552 25.4833L121.288 25.169L121.287 25.167L120.552 25.4833ZM120.554 25.4892L121.298 25.1941C121.295 25.1876 121.293 25.1812 121.29 25.1749L120.554 25.4892ZM136.001 55.7383L135.335 56.1815C135.342 56.1926 135.35 56.2036 135.358 56.2144L136.001 55.7383ZM136.098 55.8701L135.456 56.3463C135.464 56.3573 135.472 56.3681 135.481 56.3787L136.098 55.8701ZM138.218 56.1836L138.661 56.8498C138.673 56.8423 138.684 56.8345 138.695 56.8264L138.218 56.1836ZM138.35 56.0859L138.827 56.7288C138.837 56.7206 138.848 56.7122 138.859 56.7035L138.35 56.0859ZM138.749 54.1064L139.456 53.7332C139.45 53.7214 139.444 53.7098 139.437 53.6983L138.749 54.1064ZM138.665 53.9648L139.353 53.5567C139.346 53.5448 139.338 53.5331 139.331 53.5216L138.665 53.9648ZM123.523 24.2959L122.779 24.589L122.78 24.591L123.523 24.2959ZM123.222 23.5322V22.7322C122.958 22.7322 122.71 22.8631 122.561 23.0819C122.412 23.3007 122.381 23.5791 122.478 23.8254L123.222 23.5322ZM123.223 23.5322V24.3322C123.487 24.3322 123.735 24.2019 123.884 23.9839C124.033 23.7659 124.065 23.4884 123.969 23.2423L123.223 23.5322ZM122.952 22.834L122.205 23.121L122.206 23.1239L122.952 22.834ZM122.712 22.209L121.964 22.4935L121.965 22.496L122.712 22.209ZM122.64 22.0184L123.388 21.7358L123.388 21.7357L122.64 22.0184ZM122.605 21.9277L121.857 22.2105L121.857 22.2108L122.605 21.9277ZM122.599 21.915L121.85 22.1957C121.852 22.201 121.854 22.2064 121.856 22.2117L122.599 21.915ZM122.325 21.1826L121.574 21.4587L121.576 21.4633L122.325 21.1826ZM122.074 20.5L121.315 20.7537C121.318 20.7612 121.32 20.7686 121.323 20.776L122.074 20.5ZM122.072 20.4925L121.288 20.6523L121.289 20.6542L122.072 20.4925ZM122.07 20.4843L121.317 20.7546L121.317 20.7549L122.07 20.4843ZM121.92 20.0654L121.167 20.3356L121.167 20.3357L121.92 20.0654ZM121.887 19.9824L122.624 19.6713L122.624 19.6713L121.887 19.9824ZM110.196 7.33103L110.494 6.58849L110.494 6.58842L110.196 7.33103ZM110.189 7.32822L109.877 8.06472L109.877 8.06476L110.189 7.32822ZM110.179 7.32419L110.461 6.57542L110.461 6.57538L110.179 7.32419ZM109.577 7.09763L109.858 6.34881L109.858 6.34857L109.577 7.09763ZM109.569 7.0947L109.85 6.34563L109.847 6.3445L109.569 7.0947ZM109.543 7.08493L109.821 6.33473C109.813 6.3319 109.805 6.32918 109.797 6.32658L109.543 7.08493ZM109.293 7.00095L109.547 6.2426C109.26 6.14589 108.942 6.22052 108.727 6.43526L109.293 7.00095ZM109.292 7.00193L109.037 7.76044C109.325 7.85691 109.643 7.78223 109.857 7.56761L109.292 7.00193ZM109.282 6.99831L109.588 6.25893L109.588 6.25887L109.282 6.99831ZM109.271 6.99411V6.19411C108.875 6.19411 108.538 6.48419 108.48 6.87612C108.422 7.26804 108.659 7.64369 109.038 7.7593L109.271 6.99411ZM109.272 6.99411V7.79411C109.66 7.79411 109.993 7.51531 110.06 7.13292C110.127 6.75053 109.911 6.37497 109.546 6.24228L109.272 6.99411ZM109.261 6.99021L109.535 6.23837C109.509 6.22891 109.482 6.22081 109.455 6.21409L109.261 6.99021ZM109.258 6.98923L109.038 7.75845C109.046 7.76089 109.055 7.76319 109.064 7.76534L109.258 6.98923ZM109.251 6.98728L109.009 7.75C109.017 7.75227 109.024 7.75443 109.031 7.7565L109.251 6.98728ZM109.019 6.91404L109.261 6.15132C109.183 6.12661 109.101 6.11404 109.019 6.11404V6.91404ZM109.018 6.91404L108.771 7.67481C108.851 7.7008 108.934 7.71404 109.018 7.71404V6.91404ZM108.997 6.90622L109.223 6.13879L109.223 6.13878L108.997 6.90622ZM108.771 6.83982L108.518 7.59876C108.527 7.60175 108.536 7.60459 108.545 7.60726L108.771 6.83982ZM108.765 6.83786L109.018 6.07892C109.007 6.07525 108.996 6.07183 108.985 6.06864L108.765 6.83786ZM108.759 6.83591L108.978 6.06669C108.97 6.06425 108.961 6.06195 108.953 6.0598L108.759 6.83591ZM108.755 6.83493L108.539 7.60527C108.546 7.6073 108.553 7.60922 108.561 7.61105L108.755 6.83493ZM108.528 6.77146L108.744 6.00112L108.744 6.00109L108.528 6.77146ZM108.516 6.76866L108.679 5.98537L108.678 5.98532L108.516 6.76866ZM108.507 6.76657V5.96657C108.103 5.96657 107.762 6.26767 107.713 6.66854C107.663 7.06941 107.92 7.4443 108.312 7.54255L108.507 6.76657ZM108.508 6.76657V7.56657C108.91 7.56657 109.25 7.26762 109.301 6.86845C109.352 6.46928 109.099 6.09418 108.71 5.99252L108.508 6.76657ZM108.309 6.71482L108.511 5.94072L108.503 5.9387L108.309 6.71482ZM108.305 6.71384L108.499 5.93773C108.491 5.93553 108.482 5.93349 108.473 5.9316L108.305 6.71384ZM108.278 6.70798V5.90798C107.869 5.90798 107.526 6.21678 107.483 6.6237C107.439 7.03062 107.71 7.40448 108.11 7.49022L108.278 6.70798ZM108.279 6.70798V7.50798C108.685 7.50798 109.026 7.20424 109.074 6.80127C109.121 6.39829 108.859 6.02371 108.464 5.92974L108.279 6.70798ZM108.094 6.66404L107.909 7.44219L107.909 7.44228L108.094 6.66404ZM108.083 6.6606L108.305 5.89212L108.305 5.89206L108.083 6.6606ZM108.077 6.65915L108.245 5.87693L108.245 5.87691L108.077 6.65915ZM108.063 6.65622L108.231 5.87398C108.176 5.86218 108.12 5.85622 108.063 5.85622V6.65622ZM108.062 6.65622L107.892 7.43792C107.948 7.45009 108.005 7.45622 108.062 7.45622V6.65622ZM107.896 6.62009L107.702 7.3962C107.71 7.39819 107.718 7.40005 107.726 7.40179L107.896 6.62009ZM107.892 6.61911L108.086 5.84295L108.078 5.84087L107.892 6.61911ZM107.872 6.61423L108.057 5.83599C108.048 5.83389 108.039 5.83195 108.031 5.83015L107.872 6.61423ZM107.718 6.58298L107.876 5.79878L107.862 5.79622L107.718 6.58298ZM107.68 6.57614L107.523 7.3607L107.535 7.36291L107.68 6.57614ZM107.676 6.57517L107.832 5.79066L107.824 5.78902L107.676 6.57517ZM107.556 6.55271L107.705 5.76652L107.697 5.76517L107.556 6.55271ZM107.529 6.54782L107.67 5.76028C107.663 5.75915 107.657 5.7581 107.651 5.75713L107.529 6.54782ZM107.516 6.54587L107.638 5.75517C107.598 5.74898 107.557 5.74587 107.516 5.74587V6.54587ZM107.515 6.54587L107.384 7.33499C107.427 7.34223 107.471 7.34587 107.515 7.34587V6.54587ZM107.404 6.52732L107.268 7.3157L107.273 7.31643L107.404 6.52732ZM107.376 6.52243L107.512 5.73407C107.506 5.73305 107.5 5.73209 107.494 5.73121L107.376 6.52243ZM107.225 6.49997L107.344 5.70875C107.338 5.70799 107.333 5.70727 107.328 5.70661L107.225 6.49997ZM107.173 6.49314V5.69314C106.751 5.69314 106.401 6.02066 106.374 6.44161C106.347 6.86255 106.651 7.23227 107.07 7.2865L107.173 6.49314ZM107.174 6.49314V7.29314C107.598 7.29314 107.949 6.96137 107.972 6.53738C107.996 6.11339 107.684 5.74492 107.262 5.69803L107.174 6.49314ZM106.974 6.4697L107.068 5.67521C107.037 5.67154 107.006 5.6697 106.974 5.6697V6.4697ZM106.972 6.4697L106.881 7.26446C106.911 7.26795 106.942 7.2697 106.972 7.2697V6.4697ZM105.802 6.7988L105.074 7.1301C105.176 7.3533 105.374 7.51761 105.612 7.57588C105.851 7.63416 106.102 7.57997 106.295 7.42886L105.802 6.7988ZM105.797 6.78732L105.069 7.11817L105.069 7.11862L105.797 6.78732ZM105.752 6.69333L106.453 6.30927C106.447 6.29736 106.44 6.28562 106.433 6.27405L105.752 6.69333ZM105.666 6.55368L106.347 6.13441C106.34 6.12292 106.333 6.11161 106.325 6.1005L105.666 6.55368ZM103.441 6.14157L102.989 5.48194L102.988 5.48217L103.441 6.14157ZM98.7214 9.38376L98.0691 9.84687C98.3221 10.2032 98.8142 10.2906 99.1744 10.0432L98.7214 9.38376ZM107.164 6.49216V5.69216C106.736 5.69216 106.385 6.02803 106.365 6.45492C106.345 6.8818 106.664 7.24895 107.089 7.28869L107.164 6.49216ZM107.166 6.49248L107.318 5.70705L107.318 5.70703L107.166 6.49248ZM107.17 6.49314L107.094 7.28954C107.119 7.29194 107.144 7.29314 107.17 7.29314V6.49314ZM107.172 6.49314V7.29314C107.591 7.29314 107.94 6.96861 107.97 6.54985C107.999 6.13108 107.7 5.76055 107.285 5.70118L107.172 6.49314ZM121.733 24.1162H120.933C120.933 24.2079 120.949 24.2989 120.98 24.3853L121.733 24.1162ZM121.738 24.1299L120.985 24.3989C120.988 24.407 120.991 24.415 120.994 24.423L121.738 24.1299ZM121.733 24.1152L122.478 23.8222C122.337 23.4646 121.962 23.2576 121.584 23.3292C121.206 23.4009 120.933 23.7309 120.933 24.1152H121.733ZM122.035 24.8818L121.29 25.1748C121.299 25.1968 121.309 25.2184 121.319 25.2396L122.035 24.8818ZM122.036 24.8838V25.6838C122.313 25.6838 122.571 25.5402 122.716 25.3043C122.862 25.0685 122.875 24.774 122.751 24.526L122.036 24.8838ZM122.035 24.8838L121.291 25.1769C121.411 25.4827 121.706 25.6838 122.035 25.6838V24.8838ZM60.5871 23.9429L61.3461 24.1959C61.4797 23.795 61.2785 23.3594 60.8866 23.2011C60.4948 23.0429 60.0475 23.2167 59.8653 23.598L60.5871 23.9429ZM60.5857 23.9463L59.7948 23.8259C59.7356 24.2152 59.9684 24.5897 60.3437 24.7088C60.719 24.8279 61.1251 24.6562 61.3012 24.304L60.5857 23.9463ZM60.5867 23.9443L61.3022 24.3021C61.3191 24.2682 61.3336 24.2332 61.3456 24.1973L60.5867 23.9443ZM60.6238 23.706L59.8372 23.5599C59.7891 23.8191 59.8717 24.0853 60.0581 24.2717L60.6238 23.706ZM60.6247 23.707L61.394 23.9268C61.4738 23.6474 61.3959 23.3468 61.1904 23.1413L60.6247 23.707ZM60.6697 23.459L61.4572 23.5997C61.5347 23.1658 61.2467 22.7509 60.8131 22.6719C60.3795 22.5929 59.9636 22.8795 59.8831 23.3128L60.6697 23.459ZM60.6238 23.7158L59.8362 23.575L59.8347 23.5843L60.6238 23.7158ZM60.6218 23.7275L59.8327 23.596L59.8324 23.5978L60.6218 23.7275ZM60.5876 23.9355L59.7952 23.8258C59.7351 24.2596 60.035 24.661 60.4679 24.7265C60.9009 24.792 61.306 24.4973 61.377 24.0652L60.5876 23.9355ZM60.5876 23.9316L59.7985 23.8001C59.7971 23.8087 59.7958 23.8172 59.7947 23.8258L60.5876 23.9316ZM60.6238 23.7148L61.4129 23.8463C61.4554 23.5915 61.3721 23.3318 61.1895 23.1491L60.6238 23.7148ZM60.6228 23.7138L59.8536 23.4941C59.7738 23.7734 59.8517 24.0741 60.0571 24.2795L60.6228 23.7138ZM121.452 23.3945L120.704 23.6795C120.708 23.6896 120.712 23.6997 120.717 23.7096L121.452 23.3945ZM121.455 23.4013L120.72 23.7165C120.891 24.1169 121.352 24.3064 121.755 24.1428C122.159 23.9791 122.358 23.5225 122.202 23.1156L121.455 23.4013ZM121.341 23.1025L122.088 22.8168C121.93 22.4042 121.468 22.1976 121.055 22.3551C120.643 22.5127 120.436 22.9748 120.593 23.3875L121.341 23.1025ZM60.6853 23.3652L59.8986 23.2197C59.8507 23.4787 59.9334 23.7447 60.1196 23.9309L60.6853 23.3652ZM60.6863 23.3662L61.4624 23.5602C61.5305 23.2876 61.4507 22.9992 61.252 22.8005L60.6863 23.3662ZM60.6928 23.328L61.4755 23.4935L61.4755 23.4935L60.6928 23.328ZM60.6999 23.2929L61.4872 23.4352C61.5656 23.0012 61.278 22.5856 60.8442 22.506C60.4103 22.4265 59.994 22.7131 59.9134 23.1468L60.6999 23.2929ZM60.6853 23.374V24.174C61.0722 24.174 61.4037 23.897 61.4725 23.5163L60.6853 23.374ZM60.6843 23.374L59.9082 23.18C59.8485 23.419 59.9021 23.6722 60.0538 23.8663C60.2054 24.0605 60.438 24.174 60.6843 24.174V23.374ZM121.108 22.4931L121.856 22.21C121.72 21.8487 121.344 21.6367 120.964 21.7062C120.584 21.7757 120.308 22.1068 120.308 22.4931H121.108ZM121.108 22.4941H120.308C120.308 22.5908 120.326 22.6868 120.36 22.7772L121.108 22.4941ZM121.126 22.5401L120.379 22.8252L120.379 22.8253L121.126 22.5401ZM121.156 22.6191L120.408 22.9038C120.565 23.316 121.026 23.5234 121.439 23.3674C121.851 23.2115 122.06 22.7511 121.905 22.3381L121.156 22.6191ZM121.135 22.5633L120.388 22.8503L120.388 22.8504L121.135 22.5633ZM120.413 20.6064V19.8064C120.147 19.8064 119.899 19.9381 119.75 20.1579C119.602 20.3777 119.571 20.6571 119.67 20.9035L120.413 20.6064ZM120.419 20.6211L121.172 20.3509C121.168 20.3418 121.165 20.3329 121.161 20.324L120.419 20.6211ZM120.414 20.6064L121.167 20.337C121.053 20.0188 120.752 19.8064 120.414 19.8064V20.6064ZM120.524 20.915L119.771 21.1852C119.92 21.6009 120.378 21.8171 120.794 21.6682C121.21 21.5192 121.426 21.0615 121.277 20.6456L120.524 20.915ZM98.9792 11.1484L99.4323 11.8078L99.4323 11.8077L98.9792 11.1484ZM97.8739 10.9522L98.5261 10.489C98.2702 10.1288 97.7708 10.0442 97.4106 10.3C97.0504 10.5558 96.9658 11.0552 97.2216 11.4154L97.8739 10.9522ZM104.346 7.45993L104.8 8.11917C105.164 7.86888 105.256 7.37086 105.006 7.00677C104.755 6.64269 104.257 6.55039 103.893 6.80062L104.346 7.45993ZM98.3308 11.5957L97.6785 12.0589C97.9316 12.4152 98.4239 12.5025 98.784 12.2549L98.3308 11.5957ZM109.516 8.78429L109.798 8.03539C109.385 7.88055 108.926 8.08789 108.769 8.4993C108.612 8.91072 108.817 9.37154 109.228 9.5304L109.516 8.78429ZM109.664 8.84275L109.363 9.58388C109.772 9.75022 110.239 9.55329 110.405 9.144C110.571 8.73472 110.374 8.26806 109.965 8.10166L109.664 8.84275ZM109.639 8.83175L109.311 9.56153L109.311 9.56159L109.639 8.83175ZM109.612 8.82029L109.91 8.07799C109.905 8.07573 109.899 8.07352 109.893 8.07138L109.612 8.82029ZM108.113 8.31736L107.547 8.88304C107.65 8.98557 107.778 9.0583 107.919 9.09347L108.113 8.31736ZM108.133 8.32224L107.939 9.09835C108.363 9.20453 108.794 8.94962 108.906 8.52633C109.018 8.10304 108.768 7.66859 108.347 7.55142L108.133 8.32224ZM108.112 8.31638L108.365 7.55743C108.013 7.4401 107.627 7.58018 107.432 7.89579C107.236 8.2114 107.284 8.61971 107.546 8.88206L108.112 8.31638ZM108.115 8.31736L107.862 9.0763C107.875 9.08059 107.888 9.08454 107.901 9.08817L108.115 8.31736ZM107.948 8.27341L107.792 9.05812L107.792 9.05814L107.948 8.27341ZM107.954 8.27341L107.81 9.06033C108.243 9.13973 108.66 8.85329 108.74 8.41985C108.821 7.98642 108.536 7.56939 108.103 7.48737L107.954 8.27341ZM107.944 8.27217L108.207 7.51659L108.207 7.51653L107.944 8.27217ZM107.938 8.27048L108.095 7.48604C107.664 7.39969 107.244 7.67781 107.155 8.10862C107.066 8.53942 107.341 8.96127 107.772 9.05292L107.938 8.27048ZM107.946 8.27243L107.796 9.05823L107.796 9.05826L107.946 8.27243ZM107.951 8.27304L108.026 7.47663L108.026 7.47662L107.951 8.27304ZM107.718 8.2197L107.537 8.99874C107.774 9.05426 108.024 8.99817 108.216 8.84642C108.407 8.69466 108.518 8.46386 108.518 8.2197H107.718ZM107.718 8.21872H108.518C108.518 7.85024 108.267 7.52942 107.909 7.44172L107.718 8.21872ZM107.712 8.21722L107.398 8.95305L107.398 8.95305L107.712 8.21722ZM107.705 8.21482L107.862 7.43035C107.431 7.34414 107.011 7.62187 106.922 8.05229C106.832 8.48271 107.107 8.90455 107.537 8.99695L107.705 8.21482ZM107.71 8.21579L107.909 7.44104C107.895 7.43742 107.881 7.43418 107.867 7.43133L107.71 8.21579ZM107.553 8.18259H106.753C106.753 8.53977 106.99 8.85368 107.334 8.95181L107.553 8.18259ZM107.56 8.18454L107.341 8.95376C107.358 8.95882 107.376 8.96326 107.394 8.96709L107.56 8.18454ZM107.553 8.18161L108.119 7.61593C107.89 7.38713 107.546 7.31868 107.247 7.44251C106.948 7.56633 106.753 7.85804 106.753 8.18161H107.553ZM107.554 8.18259L106.989 8.74828C107.097 8.85655 107.234 8.93147 107.384 8.96415L107.554 8.18259ZM107.671 8.20798L107.504 8.99053C107.936 9.08213 108.36 8.80749 108.453 8.37646C108.546 7.94544 108.272 7.52053 107.841 7.42642L107.671 8.20798ZM107.118 8.10056L107.007 8.89276C107.443 8.95414 107.847 8.65097 107.91 8.21476C107.973 7.77854 107.671 7.37361 107.235 7.30916L107.118 8.10056ZM107.006 8.08396L107.123 7.29256C107.11 7.2907 107.097 7.28914 107.085 7.28789L107.006 8.08396ZM106.993 8.08298L107.081 7.28784C106.646 7.23974 106.254 7.54945 106.199 7.98327C106.145 8.41709 106.449 8.8143 106.882 8.87519L106.993 8.08298ZM107.001 8.0836L106.951 8.88207L106.951 8.88208L107.001 8.0836ZM156.976 124.797L156.747 124.03C156.381 124.139 156.144 124.491 156.179 124.871C156.214 125.25 156.512 125.552 156.891 125.592L156.976 124.797ZM164.3 125.575L164.215 126.371C164.643 126.416 165.03 126.115 165.091 125.689L164.3 125.575ZM164.744 122.475L165.536 122.588C165.575 122.318 165.473 122.047 165.267 121.869C165.06 121.691 164.777 121.63 164.515 121.708L164.744 122.475ZM65.7253 8.18259L66.3428 8.69123C70.1493 4.07017 76.0613 0.529987 85.0216 1.89726L85.1423 1.10642L85.263 0.315572C75.6682 -1.14852 69.22 2.68179 65.1078 7.67395L65.7253 8.18259ZM65.3494 8.65134L65.9734 9.15189L66.3494 8.68314L65.7253 8.18259L65.1013 7.68204L64.7253 8.15079L65.3494 8.65134ZM59.2849 22.2187L60.067 22.3869C60.6442 19.7017 62.2344 13.9274 65.9792 9.14453L65.3494 8.65134L64.7195 8.15815C60.7526 13.2245 59.0985 19.2795 58.5028 22.0506L59.2849 22.2187ZM59.2781 22.25L60.0596 22.4209L60.0664 22.3897L59.2849 22.2187L58.5034 22.0478L58.4965 22.079L59.2781 22.25ZM59.2048 22.5996L59.9878 22.7636L60.0611 22.414L59.2781 22.25L58.4951 22.0859L58.4218 22.4355L59.2048 22.5996ZM59.2009 22.6191L59.9859 22.7734C59.9866 22.7701 59.9871 22.7671 59.9874 22.7655C59.9878 22.7635 59.9879 22.7631 59.988 22.7628C59.9881 22.7621 59.9872 22.7665 59.9858 22.7731L59.2048 22.5996L58.4239 22.4261C58.421 22.4391 58.4188 22.45 58.4177 22.4559C58.4171 22.4589 58.4165 22.4617 58.4163 22.463C58.416 22.4647 58.4159 22.4649 58.4159 22.4649L59.2009 22.6191ZM59.1413 22.9248L59.9266 23.0778L59.9861 22.7721L59.2009 22.6191L58.4157 22.4661L58.3561 22.7717L59.1413 22.9248ZM59.1404 22.9297L59.9248 23.0866L59.9258 23.0817L59.1413 22.9248L58.3569 22.7679L58.3559 22.7728L59.1404 22.9297ZM59.1384 22.9375L59.9145 23.1315L59.9165 23.1237L59.1404 22.9297L58.3643 22.7356L58.3623 22.7434L59.1384 22.9375ZM59.1221 23.027L59.9098 23.1668C59.915 23.1375 59.9196 23.1119 59.9243 23.0873L59.1384 22.9375L58.3526 22.7876C58.3457 22.8238 58.3394 22.8593 58.3345 22.8871L59.1221 23.027ZM59.112 23.083L59.8987 23.2287C59.9025 23.2079 59.9064 23.1859 59.9098 23.1668L59.1221 23.027L58.3344 22.8871C58.3308 22.9076 58.328 22.9234 58.3254 22.9373L59.112 23.083ZM59.1101 23.0918L59.8983 23.2285C59.8956 23.2445 59.8928 23.2572 59.8911 23.265C59.8902 23.2689 59.8894 23.2721 59.889 23.274C59.8886 23.2758 59.8882 23.2772 59.8883 23.277C59.8883 23.2769 59.8883 23.2769 59.8883 23.2768C59.8883 23.2767 59.8884 23.2765 59.8885 23.2762C59.8886 23.2757 59.8888 23.2749 59.889 23.274C59.8895 23.272 59.8902 23.2688 59.8911 23.2649C59.8929 23.2572 59.8958 23.2444 59.8987 23.2285L59.112 23.083L58.3254 22.9374C58.3281 22.923 58.3306 22.9117 58.332 22.9054C58.3328 22.9023 58.3334 22.8998 58.3337 22.8986C58.3339 22.8977 58.3341 22.8967 58.3339 22.8978C58.3337 22.8983 58.3332 22.9004 58.3326 22.9029C58.332 22.9056 58.3311 22.9095 58.33 22.9142C58.3279 22.9234 58.3249 22.9376 58.3219 22.955L59.1101 23.0918ZM59.0486 23.4326L59.8358 23.5747L59.8974 23.2339L59.1101 23.0918L58.3228 22.9497L58.2613 23.2905L59.0486 23.4326ZM59.0466 23.4433L59.8337 23.5864L59.8357 23.5757L59.0486 23.4326L58.2615 23.2895L58.2595 23.3002L59.0466 23.4433ZM59.0447 23.4551L59.8338 23.5866L59.8357 23.5749L59.0466 23.4433L58.2575 23.3118L58.2556 23.3235L59.0447 23.4551ZM59.0437 23.459L59.8198 23.653L59.8208 23.6491L59.0447 23.4551L58.2686 23.261L58.2676 23.2649L59.0437 23.459ZM59.0066 23.6875L59.7962 23.8157L59.8333 23.5872L59.0437 23.459L58.254 23.3307L58.2169 23.5592L59.0066 23.6875ZM59.0053 23.695L59.794 23.8291C59.7943 23.8271 59.7953 23.8215 59.7963 23.8154L59.0066 23.6875L58.2169 23.5596C58.217 23.5585 58.2171 23.5579 58.2166 23.561L59.0053 23.695ZM59.0027 23.7119L59.796 23.8153C59.795 23.8226 59.7942 23.8278 59.7939 23.8299C59.7936 23.8315 59.7934 23.8325 59.794 23.829L59.0053 23.695L58.2166 23.5611C58.2161 23.564 58.2125 23.5849 58.2094 23.6085L59.0027 23.7119ZM58.99 23.8027L59.7823 23.9135L59.795 23.8226L59.0027 23.7119L58.2104 23.6011L58.1977 23.692L58.99 23.8027ZM53.2263 56.6142L54.0142 56.7526L59.7779 23.9411L58.99 23.8027L58.202 23.6643L52.4384 56.4758L53.2263 56.6142ZM53.5251 57.8535L54.1643 57.3723C54.0309 57.1951 53.9762 56.9698 54.0143 56.7522L53.2263 56.6142L52.4383 56.4763C52.3232 57.1336 52.4884 57.8065 52.886 58.3346L53.5251 57.8535ZM54.6326 58.4824L54.7179 57.687C54.4984 57.6634 54.2976 57.5492 54.1641 57.3721L53.5251 57.8535L52.8862 58.3349C53.2846 58.8636 53.8853 59.2068 54.5472 59.2778L54.6326 58.4824ZM68.0456 59.9082L68.1302 59.1127L54.7171 57.6869L54.6326 58.4824L54.548 59.2779L67.9611 60.7037L68.0456 59.9082ZM68.0466 59.9082V59.1082H68.0456V59.9082V60.7082H68.0466V59.9082ZM69.8064 58.4863L69.0109 58.4014C68.964 58.8403 68.5698 59.159 68.1307 59.1126L68.0466 59.9082L67.9625 60.7037C69.2801 60.843 70.4613 59.8878 70.6019 58.5712L69.8064 58.4863ZM68.3845 56.7256L68.2997 57.521C68.7387 57.5679 69.0576 57.9623 69.0109 58.4018L69.8064 58.4863L70.6019 58.5709C70.742 57.2523 69.7862 56.0705 68.4693 55.9301L68.3845 56.7256ZM56.6736 55.4795L56.5889 56.275L68.2999 57.5211L68.3845 56.7256L68.4692 55.9301L56.7582 54.684L56.6736 55.4795ZM62.1453 24.3359L61.3573 24.1975L55.8856 55.341L56.6736 55.4795L57.4615 55.6179L62.9332 24.4743L62.1453 24.3359ZM62.1482 24.3213L61.3606 24.1811C61.362 24.173 61.3632 24.1671 61.3634 24.1665C61.3634 24.1664 61.3634 24.1663 61.3633 24.1669C61.3632 24.1672 61.363 24.1684 61.3627 24.1696C61.3625 24.1708 61.362 24.1729 61.3615 24.1755C61.361 24.178 61.3602 24.1817 61.3594 24.1863L62.1453 24.3359L62.9311 24.4856C62.9304 24.4893 62.9298 24.4922 62.9295 24.4938C62.9292 24.4954 62.9289 24.4965 62.9289 24.4967C62.9289 24.4969 62.9288 24.497 62.929 24.4962C62.9292 24.4955 62.9294 24.4943 62.9297 24.4929C62.9309 24.4874 62.9333 24.4758 62.9358 24.4614L62.1482 24.3213ZM62.1504 24.3067L61.3582 24.1949C61.3577 24.1985 61.3578 24.1981 61.3579 24.197C61.3581 24.1962 61.3583 24.1945 61.3587 24.192C61.3591 24.1896 61.3597 24.1858 61.3606 24.1811L62.1482 24.3213L62.9358 24.4614C62.9396 24.4402 62.9425 24.4191 62.9425 24.4185L62.1504 24.3067ZM62.1521 24.2949L61.361 24.1758C61.3597 24.1842 61.3587 24.1917 61.3582 24.195L62.1504 24.3067L62.9425 24.4185C62.9428 24.4165 62.9429 24.4156 62.9431 24.4147C62.9432 24.414 62.9432 24.4138 62.9432 24.414L62.1521 24.2949ZM62.1531 24.2871L61.3592 24.1879L61.3583 24.1957L62.1521 24.2949L62.9459 24.3941L62.9469 24.3863L62.1531 24.2871ZM62.1628 24.2158L61.3702 24.1072L61.3605 24.1785L62.1531 24.2871L62.9457 24.3957L62.9554 24.3244L62.1628 24.2158ZM62.1667 24.2002L61.3771 24.072C61.3818 24.043 61.3872 24.0201 61.3906 24.0067C61.3924 23.9998 61.3939 23.9943 61.3948 23.991C61.3957 23.9879 61.3964 23.9856 61.3963 23.9859C61.3962 23.986 61.3962 23.986 61.3962 23.9863C61.3961 23.9865 61.396 23.9868 61.3959 23.9873C61.3956 23.9881 61.3952 23.9895 61.3947 23.9912C61.3938 23.9945 61.3922 24.0001 61.3904 24.007C61.3886 24.014 61.3862 24.0231 61.3838 24.0338C61.3813 24.0445 61.3785 24.0575 61.3758 24.0722L62.1628 24.2158L62.9498 24.3594C62.9451 24.3856 62.9399 24.406 62.937 24.4168C62.9356 24.4224 62.9343 24.4267 62.9338 24.4287C62.9333 24.4302 62.9328 24.432 62.9334 24.4301C62.9337 24.4291 62.9347 24.4255 62.9359 24.421C62.9372 24.4164 62.9391 24.4096 62.9412 24.4014C62.9453 24.3854 62.9513 24.3599 62.9564 24.3283L62.1667 24.2002ZM62.1999 23.9951L61.4102 23.8672L61.377 24.0723L62.1667 24.2002L62.9565 24.328L62.9897 24.1229L62.1999 23.9951ZM62.2595 23.6592L61.4718 23.5195L61.4122 23.8554L62.1999 23.9951L62.9877 24.1348L63.0472 23.7988L62.2595 23.6592ZM62.2585 23.6582L61.6928 24.2239L61.6938 24.2248L62.2595 23.6592L62.8252 23.0935L62.8242 23.0925L62.2585 23.6582ZM62.2732 23.5813L61.4881 23.4279C61.4835 23.4513 61.4784 23.4775 61.4718 23.513L62.2585 23.6582L63.0453 23.8033C63.0502 23.7768 63.0539 23.7576 63.0584 23.7347L62.2732 23.5813ZM62.282 23.5361L61.4961 23.3862C61.4934 23.4008 61.4909 23.4136 61.4881 23.4279L62.2732 23.5813L63.0584 23.7347C63.0611 23.7206 63.0643 23.7046 63.0678 23.686L62.282 23.5361ZM62.283 23.5273L61.486 23.4581C61.4858 23.4611 61.4865 23.4526 61.4876 23.4423C61.4889 23.431 61.4914 23.4113 61.496 23.3869L62.282 23.5361L63.0679 23.6853C63.0731 23.658 63.076 23.6354 63.0776 23.6211C63.0784 23.6139 63.079 23.6078 63.0794 23.6039C63.0797 23.6002 63.08 23.597 63.08 23.5966L62.283 23.5273ZM62.2839 23.5195L61.4951 23.3864C61.4914 23.4084 61.4892 23.4266 61.488 23.4381C61.4873 23.444 61.4869 23.4489 61.4866 23.4521C61.4863 23.455 61.4861 23.4577 61.486 23.458L62.283 23.5273L63.08 23.5966C63.0803 23.594 63.0797 23.6007 63.0788 23.6087C63.0779 23.6175 63.0761 23.6331 63.0728 23.6526L62.2839 23.5195ZM62.3406 23.2412L61.5566 23.0816L61.5 23.36L62.2839 23.5195L63.0679 23.679L63.1245 23.4007L62.3406 23.2412ZM62.3445 23.2138L61.5555 23.0817C61.5528 23.0976 61.551 23.1106 61.5501 23.1182C61.5496 23.1221 61.5492 23.1254 61.5489 23.1272C61.5488 23.1282 61.5487 23.1291 61.5487 23.1295C61.5486 23.1301 61.5486 23.1303 61.5486 23.1303C61.5485 23.1311 61.5491 23.1259 61.5502 23.1186C61.5513 23.111 61.5533 23.0983 61.5565 23.0824L62.3406 23.2412L63.1246 23.4C63.1288 23.3796 63.1315 23.3623 63.1333 23.3502C63.135 23.3384 63.1362 23.3286 63.1367 23.3247C63.1368 23.3236 63.137 23.3226 63.137 23.3221C63.1371 23.3213 63.1371 23.3211 63.1372 23.3209C63.1372 23.3205 63.1371 23.3215 63.1369 23.3231C63.1365 23.3261 63.1354 23.3346 63.1335 23.3459L62.3445 23.2138ZM62.4089 22.9072L61.626 22.7426L61.5616 23.0493L62.3445 23.2138L63.1274 23.3784L63.1918 23.0718L62.4089 22.9072ZM67.8689 10.624L67.239 10.1308C63.7084 14.64 62.1824 20.1479 61.6267 22.7395L62.4089 22.9072L63.1911 23.0749C63.7285 20.5689 65.1906 15.3424 68.4988 11.1172L67.8689 10.624ZM68.1882 10.2265L67.5646 9.72547L67.2452 10.1229L67.8689 10.624L68.4925 11.1251L68.8119 10.7276L68.1882 10.2265ZM84.6589 4.2695L84.7796 3.47866C76.4676 2.21043 71.0801 5.44923 67.5703 9.71849L68.1882 10.2265L68.8062 10.7346C72.008 6.84002 76.858 3.88851 84.5383 5.06035L84.6589 4.2695ZM86.4831 2.92966L85.6923 2.80867C85.6256 3.24494 85.2166 3.54535 84.7796 3.47866L84.6589 4.2695L84.5382 5.06035C85.8466 5.26003 87.0733 4.36208 87.2739 3.05065L86.4831 2.92966ZM86.4831 2.92868H85.6831V2.92966H86.4831H87.2831V2.92868H86.4831ZM85.1423 1.10642L85.0214 1.89723C85.458 1.96397 85.7586 2.37196 85.6922 2.80842L86.4831 2.92868L87.2741 3.04895C87.4736 1.7369 86.5704 0.515401 85.2632 0.315602L85.1423 1.10642ZM54.8025 56.8906L54.7187 57.6862L55.5624 57.7751L55.6462 56.9795L55.73 56.1839L54.8863 56.095L54.8025 56.8906ZM54.948 56.0625L54.1601 55.924L54.0145 56.7522L54.8025 56.8906L55.5904 57.029L55.7359 56.2009L54.948 56.0625ZM55.0994 56.667L55.7384 56.1857L55.7385 56.1856L54.948 56.0625L54.1575 55.9393C54.0911 56.366 54.1998 56.8023 54.4603 57.1482L55.0994 56.667ZM55.6462 56.9795L55.7381 56.1848L55.7382 56.1854L55.0994 56.667L54.4605 57.1485C54.7251 57.4995 55.121 57.7241 55.5544 57.7742L55.6462 56.9795ZM91.2185 1.29489L91.6128 1.99098C91.9647 1.79165 92.4186 1.88777 92.658 2.22487L93.3103 1.76169L93.9626 1.29851C93.243 0.285173 91.8823 -0.000529231 90.8242 0.598805L91.2185 1.29489ZM91.0798 1.38279L91.5081 2.0585L91.6468 1.97061L91.2185 1.29489L90.7902 0.619183L90.6516 0.707073L91.0798 1.38279ZM90.7009 3.61325L91.3534 3.1503C91.0979 2.79026 91.1826 2.29095 91.543 2.03506L91.0798 1.38279L90.6166 0.730509C89.5369 1.49722 89.2811 2.99475 90.0485 4.07621L90.7009 3.61325ZM97.0261 12.5215L97.6784 12.0583L91.3532 3.1501L90.7009 3.61325L90.0486 4.07641L96.3738 12.9846L97.0261 12.5215ZM99.237 12.914L98.7842 12.2545C98.424 12.5019 97.9313 12.4144 97.6784 12.0582L97.0261 12.5215L96.3739 12.9847C97.1329 14.0535 98.6097 14.3153 99.6899 13.5735L99.237 12.914ZM105.254 8.77829L104.8 8.11903L98.7839 12.2548L99.237 12.914L99.6902 13.5733L105.707 9.43756L105.254 8.77829ZM105.255 8.77829V7.97829H105.254V8.77829V9.57829H105.255V8.77829ZM105.309 8.7365L104.809 8.11242C104.804 8.1162 104.801 8.11863 104.798 8.12087C104.796 8.12299 104.794 8.12414 104.793 8.12474C104.792 8.12604 104.795 8.12366 104.801 8.11945L105.255 8.77829L105.708 9.43713C105.755 9.40477 105.796 9.37191 105.81 9.36059L105.309 8.7365ZM105.332 8.71872L104.839 8.08835C104.827 8.09787 104.816 8.107 104.809 8.1125L105.309 8.7365L105.81 9.36051C105.818 9.35406 105.822 9.35128 105.824 9.3491L105.332 8.71872ZM106.605 9.64939L106.697 8.85467C106.41 8.82149 106.174 8.63921 106.06 8.3882L105.332 8.71872L104.603 9.04924C104.938 9.78779 105.642 10.3435 106.513 10.4441L106.605 9.64939ZM106.612 9.65036L106.725 8.8584L106.718 8.85743L106.605 9.64939L106.492 10.4413L106.499 10.4423L106.612 9.65036ZM106.756 9.66501L106.837 8.86914L106.693 8.8545L106.612 9.65036L106.531 10.4462L106.674 10.4609L106.756 9.66501ZM106.757 9.66599L107.322 9.1003L107.321 9.09933L106.756 9.66501L106.19 10.2307L106.191 10.2317L106.757 9.66599ZM106.907 9.6865L107.015 8.89383L106.865 8.87332L106.757 9.66599L106.648 10.4587L106.799 10.4792L106.907 9.6865ZM106.964 9.69626L107.1 8.90789L107.043 8.89813L106.907 9.6865L106.771 10.4749L106.828 10.4846L106.964 9.69626ZM106.968 9.69771L107.238 8.94468C107.238 8.94467 107.237 8.94428 107.236 8.94385C107.235 8.94338 107.233 8.94264 107.23 8.94176C107.225 8.94003 107.217 8.93728 107.207 8.93414C107.188 8.928 107.156 8.91853 107.115 8.91068L106.964 9.69626L106.812 10.4818C106.773 10.4743 106.743 10.4653 106.725 10.4596C106.709 10.4545 106.695 10.4495 106.698 10.4507L106.968 9.69771ZM106.973 9.69919L107.115 8.91184C107.157 8.91942 107.19 8.92898 107.21 8.93505C107.227 8.94058 107.242 8.94598 107.239 8.94483L106.968 9.69771L106.698 10.4506C106.698 10.4506 106.699 10.451 106.701 10.4515C106.702 10.4521 106.704 10.4529 106.707 10.4538C106.713 10.4557 106.721 10.4587 106.732 10.4621C106.753 10.4686 106.788 10.4787 106.832 10.4865L106.973 9.69919ZM107.07 9.71579L107.205 8.92733L107.109 8.91073L106.973 9.69919L106.838 10.4877L106.935 10.5043L107.07 9.71579ZM107.075 9.71773L107.4 8.98666C107.4 8.98663 107.399 8.98603 107.397 8.98534C107.396 8.98459 107.393 8.98344 107.39 8.98205C107.383 8.97935 107.373 8.97504 107.36 8.97014C107.336 8.96059 107.294 8.94572 107.24 8.93405L107.07 9.71579L106.9 10.4975C106.848 10.4863 106.808 10.472 106.785 10.4631C106.764 10.455 106.747 10.4471 106.75 10.4488L107.075 9.71773ZM107.081 9.7197L107.24 8.93568C107.295 8.94696 107.339 8.96201 107.363 8.97145C107.386 8.98005 107.404 8.98856 107.4 8.98671L107.075 9.71773L106.75 10.4487C106.75 10.4488 106.752 10.4494 106.754 10.4501C106.755 10.4509 106.758 10.4522 106.762 10.4536C106.768 10.4565 106.779 10.4611 106.793 10.4663C106.819 10.4764 106.864 10.4921 106.922 10.5037L107.081 9.7197ZM107.235 9.74997L107.389 8.96494L107.235 8.93467L107.081 9.7197L106.927 10.5047L107.081 10.535L107.235 9.74997ZM107.341 9.77243L107.507 8.98998L107.402 8.96752L107.235 9.74997L107.068 10.5324L107.174 10.5549L107.341 9.77243ZM107.347 9.77482L107.655 9.03632C107.655 9.03628 107.654 9.03582 107.652 9.03531C107.651 9.03476 107.649 9.03392 107.647 9.03292C107.642 9.03097 107.634 9.02789 107.625 9.02435C107.606 9.01741 107.575 9.00665 107.537 8.99686L107.341 9.77243L107.144 10.548C107.108 10.5388 107.08 10.5288 107.063 10.5227C107.048 10.5171 107.036 10.5119 107.04 10.5133L107.347 9.77482ZM107.354 9.77732L107.537 8.9984C107.578 9.00798 107.609 9.01897 107.628 9.02575C107.644 9.03188 107.658 9.03778 107.654 9.03618L107.347 9.77482L107.04 10.5135C107.04 10.5135 107.041 10.514 107.043 10.5146C107.044 10.5152 107.046 10.5161 107.049 10.5172C107.054 10.5194 107.063 10.5228 107.074 10.5267C107.094 10.5343 107.128 10.5461 107.172 10.5562L107.354 9.77732ZM107.503 9.8115L107.682 9.0319L107.534 8.99772L107.354 9.77732L107.175 10.5569L107.323 10.5911L107.503 9.8115ZM107.506 9.81295L107.87 9.1003C107.87 9.1003 107.87 9.1003 107.87 9.10029C107.87 9.10029 107.87 9.10028 107.87 9.10027C107.869 9.10026 107.869 9.10024 107.869 9.10021C107.869 9.10016 107.869 9.10008 107.869 9.09998C107.869 9.09979 107.868 9.09949 107.867 9.09911C107.866 9.09839 107.863 9.09719 107.861 9.09575C107.855 9.09296 107.845 9.08823 107.833 9.08274C107.81 9.07258 107.766 9.05374 107.708 9.03827L107.503 9.8115L107.297 10.5847C107.24 10.5695 107.197 10.5512 107.176 10.5415C107.155 10.5324 107.138 10.5234 107.143 10.5256L107.506 9.81295ZM107.51 9.81443L107.708 9.03939C107.767 9.05465 107.812 9.07366 107.835 9.08379C107.856 9.09341 107.874 9.10279 107.87 9.10073L107.506 9.81295L107.142 10.5252C107.142 10.5252 107.142 10.5254 107.142 10.5256C107.143 10.5258 107.144 10.5261 107.144 10.5265C107.146 10.5273 107.148 10.5286 107.152 10.5301C107.158 10.5331 107.168 10.5381 107.181 10.5438C107.204 10.5545 107.25 10.5739 107.311 10.5895L107.51 9.81443ZM107.708 9.86521L107.906 9.09023L107.708 9.03945L107.51 9.81443L107.311 10.5894L107.509 10.6402L107.708 9.86521ZM107.708 9.86423H106.908V9.86521H107.708H108.508V9.86423H107.708ZM107.719 9.86732L107.926 9.09446L107.914 9.09137L107.708 9.86423L107.501 10.6371L107.513 10.6402L107.719 9.86732ZM107.855 9.90427L108.072 9.13427C108.023 9.12036 107.976 9.10796 107.926 9.09445L107.719 9.86732L107.513 10.6402C107.565 10.6542 107.601 10.6638 107.638 10.6743L107.855 9.90427ZM107.859 9.90621L108.275 9.22294C108.275 9.22291 108.275 9.22267 108.274 9.22238C108.274 9.22208 108.273 9.22161 108.272 9.22105C108.27 9.21995 108.267 9.21821 108.264 9.21611C108.257 9.21202 108.245 9.20537 108.231 9.19772C108.203 9.18284 108.154 9.15901 108.089 9.13932L107.855 9.90427L107.621 10.6692C107.558 10.6499 107.51 10.6267 107.484 10.6125C107.459 10.5995 107.439 10.587 107.443 10.5895L107.859 9.90621ZM107.863 9.90818L108.09 9.14091C108.155 9.16027 108.205 9.18421 108.233 9.1989C108.258 9.21235 108.279 9.22539 108.275 9.22293L107.859 9.90621L107.443 10.5895C107.443 10.5895 107.445 10.5904 107.446 10.5915C107.448 10.5927 107.451 10.5945 107.455 10.5967C107.462 10.601 107.474 10.6079 107.489 10.6158C107.519 10.6311 107.57 10.6557 107.637 10.6754L107.863 9.90818ZM108.066 9.96775L108.291 9.20008L108.088 9.14051L107.863 9.90818L107.638 10.6758L107.841 10.7354L108.066 9.96775ZM108.07 9.96919L108.421 9.25069C108.421 9.25069 108.42 9.25022 108.419 9.24969C108.418 9.24912 108.416 9.24821 108.414 9.24712C108.409 9.24498 108.402 9.24155 108.393 9.23753C108.376 9.22968 108.346 9.21725 108.308 9.20529L108.066 9.96775L107.824 10.7302C107.787 10.7186 107.759 10.7066 107.743 10.6993C107.728 10.6926 107.715 10.6863 107.718 10.6877L108.07 9.96919ZM108.073 9.97068L108.309 9.20615C108.347 9.21802 108.377 9.23052 108.395 9.23828C108.411 9.2454 108.424 9.25201 108.421 9.25078L108.07 9.96919L107.718 10.6876C107.718 10.6877 107.719 10.6882 107.72 10.6888C107.721 10.6894 107.723 10.6904 107.726 10.6916C107.731 10.6939 107.738 10.6975 107.748 10.7017C107.767 10.71 107.798 10.723 107.837 10.7352L108.073 9.97068ZM108.136 9.98993L108.368 9.22429C108.347 9.21803 108.328 9.21216 108.308 9.20604L108.073 9.97068L107.838 10.7353C107.861 10.7426 107.884 10.7494 107.904 10.7556L108.136 9.98993ZM108.251 10.0254L108.497 9.26407C108.451 9.24938 108.406 9.23589 108.368 9.22429L108.136 9.98993L107.904 10.7556C107.945 10.768 107.976 10.7772 108.005 10.7867L108.251 10.0254ZM108.258 10.0287L108.631 9.321C108.631 9.32095 108.63 9.3204 108.629 9.31982C108.627 9.31918 108.626 9.31821 108.623 9.31706C108.619 9.3148 108.612 9.31124 108.603 9.30707C108.587 9.29893 108.559 9.28611 108.523 9.27329L108.251 10.0254L107.978 10.7774C107.945 10.7655 107.92 10.7537 107.905 10.7467C107.892 10.7404 107.881 10.7346 107.885 10.7364L108.258 10.0287ZM108.265 10.0322L108.523 9.27483C108.561 9.28774 108.59 9.30102 108.607 9.30907C108.622 9.31634 108.635 9.3231 108.631 9.32115L108.258 10.0287L107.884 10.7362C107.885 10.7363 107.886 10.7369 107.887 10.7376C107.888 10.7383 107.891 10.7394 107.893 10.7408C107.898 10.7433 107.906 10.7474 107.916 10.7521C107.935 10.7614 107.967 10.7758 108.008 10.7896L108.265 10.0322ZM108.515 10.1172L108.773 9.35971L108.523 9.27475L108.265 10.0322L108.008 10.7897L108.258 10.8746L108.515 10.1172ZM118.919 21.1787L119.655 20.8663C116.337 13.0434 111.481 10.3139 108.781 9.36264L108.515 10.1172L108.249 10.8717C110.567 11.6883 115.056 14.1214 118.182 21.4911L118.919 21.1787ZM119.057 21.5644L119.81 21.2938L119.672 20.908L118.919 21.1787L118.166 21.4493L118.305 21.8351L119.057 21.5644ZM119.061 21.5752L119.813 21.3018L119.809 21.291L119.057 21.5644L118.306 21.8378L118.309 21.8486L119.061 21.5752ZM119.325 22.2939L120.076 22.0184L119.812 21.2996L119.061 21.5752L118.31 21.8507L118.574 22.5694L119.325 22.2939ZM119.327 22.2993L120.089 22.0571C120.089 22.0564 120.088 22.0522 120.086 22.0474C120.084 22.0423 120.082 22.0343 120.078 22.0245L119.325 22.2939L118.572 22.5633C118.569 22.5553 118.567 22.549 118.566 22.5457C118.565 22.5427 118.564 22.5403 118.564 22.5415L119.327 22.2993ZM119.329 22.3056L120.078 22.0239C120.082 22.0362 120.086 22.0459 120.087 22.0512C120.089 22.0562 120.09 22.0601 120.09 22.0589L119.327 22.2993L118.564 22.5397C118.564 22.5406 118.566 22.5467 118.568 22.5538C118.571 22.5612 118.575 22.5731 118.58 22.5874L119.329 22.3056ZM119.61 23.0556L120.359 22.7747L120.078 22.0247L119.329 22.3056L118.58 22.5865L118.861 23.3365L119.61 23.0556ZM119.612 23.0605L120.355 22.7634L120.353 22.7585L119.61 23.0556L118.867 23.3527L118.869 23.3576L119.612 23.0605ZM119.722 23.3525L120.47 23.0678C120.433 22.9703 120.397 22.8754 120.36 22.7775L119.612 23.0605L118.864 23.3436C118.898 23.4344 118.937 23.5385 118.975 23.6372L119.722 23.3525ZM119.729 23.366L120.449 23.0189C120.449 23.0176 120.448 23.0164 120.448 23.0159C120.447 23.0152 120.448 23.0152 120.448 23.0154C120.448 23.0157 120.449 23.0184 120.451 23.0221C120.454 23.0293 120.461 23.0454 120.47 23.0669L119.722 23.3525L118.975 23.6381C118.985 23.6642 118.994 23.6849 119 23.6966C119.003 23.7025 119.005 23.7074 119.006 23.7099C119.007 23.7112 119.007 23.7124 119.008 23.7128C119.008 23.7134 119.008 23.7133 119.008 23.7131L119.729 23.366ZM119.732 23.374L120.471 23.0672C120.461 23.0427 120.451 23.0233 120.449 23.0185L119.729 23.366L119.008 23.7135C119.008 23.7132 119.006 23.7096 119.004 23.7045C119.001 23.6992 118.998 23.691 118.993 23.6808L119.732 23.374ZM119.966 23.9853L120.713 23.7L120.48 23.0887L119.732 23.374L118.985 23.6593L119.218 24.2707L119.966 23.9853ZM119.968 23.9912L120.714 23.7002C120.707 23.6823 120.7 23.6668 120.694 23.654C120.688 23.6412 120.683 23.6304 120.678 23.6222C120.674 23.614 120.671 23.6075 120.668 23.6036C120.667 23.6016 120.666 23.6 120.666 23.599C120.666 23.5985 120.665 23.5981 120.665 23.5979C120.665 23.5977 120.665 23.5976 120.665 23.5976C120.665 23.5975 120.665 23.5975 120.665 23.5975C120.665 23.5975 120.665 23.5975 120.665 23.5975C120.665 23.597 120.666 23.5999 120.668 23.6035C120.671 23.6074 120.674 23.6139 120.678 23.622C120.682 23.6303 120.688 23.6411 120.694 23.6539C120.7 23.6668 120.706 23.6823 120.713 23.7002L119.966 23.9853L119.218 24.2705C119.225 24.2888 119.232 24.3049 119.238 24.3183C119.244 24.3316 119.25 24.3429 119.254 24.3516C119.259 24.3602 119.262 24.3672 119.265 24.3715C119.267 24.3756 119.269 24.379 119.269 24.379C119.27 24.3801 119.268 24.3774 119.266 24.3744C119.264 24.3709 119.261 24.3649 119.257 24.3572C119.253 24.3495 119.248 24.3392 119.242 24.3269C119.237 24.3145 119.23 24.2995 119.223 24.2822L119.968 23.9912ZM119.968 23.9922H120.768V23.9912H119.968H119.168V23.9922H119.968ZM120.241 24.6943L120.987 24.4049L120.714 23.7028L119.968 23.9922L119.223 24.2816L119.495 24.9837L120.241 24.6943ZM120.244 24.7011L120.979 24.386L120.976 24.3792L120.241 24.6943L119.506 25.0094L119.509 25.0163L120.244 24.7011ZM120.547 25.4707L121.291 25.1778L120.988 24.4083L120.244 24.7011L119.499 24.994L119.802 25.7635L120.547 25.4707ZM120.552 25.4833L121.287 25.167C121.286 25.1644 121.286 25.1652 121.286 25.1665C121.287 25.1681 121.289 25.1721 121.291 25.1776L120.547 25.4707L119.802 25.7638C119.809 25.7817 119.816 25.7974 119.817 25.7997L120.552 25.4833ZM120.554 25.4892L121.29 25.1749L121.288 25.169L120.552 25.4833L119.816 25.7977L119.819 25.8036L120.554 25.4892ZM136.001 55.7383L136.667 55.2951C129.274 44.1859 123.85 31.6234 121.298 25.1941L120.554 25.4892L119.811 25.7844C122.378 32.2517 127.85 44.9346 135.335 56.1815L136.001 55.7383ZM136.098 55.8701L136.741 55.3939L136.644 55.2621L136.001 55.7383L135.358 56.2144L135.456 56.3463L136.098 55.8701ZM138.218 56.1836L137.776 55.5173C137.431 55.7464 136.973 55.6733 136.716 55.3615L136.098 55.8701L135.481 56.3787C136.254 57.3177 137.627 57.5374 138.661 56.8498L138.218 56.1836ZM138.35 56.0859L137.874 55.4431L137.742 55.5407L138.218 56.1836L138.695 56.8264L138.827 56.7288L138.35 56.0859ZM138.749 54.1064L138.041 54.4796C138.217 54.8128 138.133 55.2286 137.842 55.4683L138.35 56.0859L138.859 56.7035C139.734 55.9828 139.987 54.7397 139.456 53.7332L138.749 54.1064ZM138.665 53.9648L137.977 54.3729L138.061 54.5145L138.749 54.1064L139.437 53.6983L139.353 53.5567L138.665 53.9648ZM123.523 24.2959L122.78 24.591C125.314 30.9782 130.693 43.4289 137.999 54.408L138.665 53.9648L139.331 53.5216C132.116 42.6802 126.786 30.35 124.267 24.0008L123.523 24.2959ZM123.222 23.5322L122.478 23.8254L122.779 24.589L123.523 24.2959L124.268 24.0027L123.967 23.239L123.222 23.5322ZM123.223 23.5322V22.7322H123.222V23.5322V24.3322H123.223V23.5322ZM122.952 22.834L122.206 23.1239L122.478 23.8221L123.223 23.5322L123.969 23.2423L123.698 22.544L122.952 22.834ZM122.712 22.209L121.965 22.496L122.205 23.121L122.952 22.834L123.699 22.5469L123.458 21.9219L122.712 22.209ZM122.64 22.0184L121.891 22.3011C121.915 22.3642 121.938 22.4248 121.964 22.4935L122.712 22.209L123.459 21.9244C123.434 21.8578 123.412 21.799 123.388 21.7358L122.64 22.0184ZM122.605 21.9277L121.857 22.2108C121.869 22.2423 121.88 22.272 121.891 22.3011L122.64 22.0184L123.388 21.7357C123.377 21.7066 123.366 21.6766 123.353 21.6446L122.605 21.9277ZM122.599 21.915L121.856 22.2117C121.865 22.2341 121.874 22.2519 121.879 22.2624C121.881 22.2678 121.883 22.2722 121.885 22.2748C121.886 22.2769 121.887 22.2794 121.887 22.2788C121.887 22.2788 121.887 22.2787 121.886 22.2785C121.886 22.2783 121.886 22.2781 121.886 22.2777C121.886 22.277 121.885 22.2759 121.885 22.2746C121.883 22.2719 121.881 22.2675 121.878 22.262C121.873 22.2511 121.865 22.2333 121.857 22.2105L122.605 21.9277L123.354 21.6449C123.344 21.62 123.335 21.6 123.329 21.587C123.326 21.5805 123.323 21.575 123.322 21.5713C123.32 21.5677 123.318 21.5647 123.318 21.5639C123.317 21.5622 123.318 21.5637 123.318 21.5648C123.319 21.5663 123.321 21.5697 123.323 21.574C123.327 21.5824 123.334 21.5981 123.342 21.6184L122.599 21.915ZM122.325 21.1826L121.576 21.4633L121.85 22.1957L122.599 21.915L123.348 21.6343L123.074 20.9019L122.325 21.1826ZM122.074 20.5L121.323 20.776L121.574 21.4587L122.325 21.1826L123.076 20.9065L122.825 20.2239L122.074 20.5ZM122.072 20.4925L121.289 20.6542C121.289 20.6543 121.289 20.6543 121.289 20.6544C121.289 20.6545 121.289 20.6547 121.289 20.6548C121.289 20.6551 121.289 20.6556 121.289 20.6562C121.289 20.6573 121.29 20.659 121.29 20.6611C121.291 20.6651 121.292 20.6718 121.294 20.6798C121.298 20.6954 121.305 20.7218 121.315 20.7537L122.074 20.5L122.833 20.2463C122.843 20.2757 122.849 20.2997 122.852 20.3128C122.854 20.3245 122.856 20.3349 122.856 20.3307L122.072 20.4925ZM122.07 20.4843L121.317 20.7549C121.305 20.72 121.297 20.6914 121.293 20.6755C121.29 20.6609 121.287 20.6484 121.288 20.6523L122.072 20.4925L122.856 20.3327C122.856 20.3326 122.855 20.3285 122.854 20.3239C122.853 20.3189 122.851 20.3109 122.849 20.3012C122.845 20.2825 122.836 20.2513 122.823 20.2138L122.07 20.4843ZM121.92 20.0654L121.167 20.3357L121.317 20.7546L122.07 20.4843L122.823 20.2141L122.673 19.7951L121.92 20.0654ZM121.887 19.9824L121.15 20.2935C121.153 20.3004 121.16 20.3167 121.167 20.3356L121.92 20.0654L122.673 19.7952C122.655 19.747 122.638 19.7034 122.624 19.6713L121.887 19.9824ZM110.196 7.33103L109.898 8.07357C113.03 9.3293 117.853 12.4824 121.15 20.2935L121.887 19.9824L122.624 19.6713C119.149 11.4391 113.993 7.99149 110.494 6.58849L110.196 7.33103ZM110.189 7.32822L109.877 8.06476C109.878 8.06505 109.888 8.06925 109.898 8.07363L110.196 7.33103L110.494 6.58842C110.498 6.59 110.5 6.59119 110.501 6.59165C110.502 6.59204 110.503 6.59232 110.502 6.59168L110.189 7.32822ZM110.179 7.32419L109.898 8.07296C109.889 8.0696 109.882 8.06688 109.879 8.06569C109.877 8.06461 109.875 8.06376 109.877 8.06472L110.189 7.32822L110.502 6.59172C110.501 6.59164 110.483 6.58348 110.461 6.57542L110.179 7.32419ZM109.577 7.09763L109.295 7.84644L109.898 8.07301L110.179 7.32419L110.461 6.57538L109.858 6.34882L109.577 7.09763ZM109.569 7.0947L109.288 7.84376L109.296 7.84669L109.577 7.09763L109.858 6.34857L109.85 6.34564L109.569 7.0947ZM109.543 7.08493L109.265 7.83513L109.291 7.8449L109.569 7.0947L109.847 6.3445L109.821 6.33473L109.543 7.08493ZM109.293 7.00095L109.038 7.7593L109.288 7.84329L109.543 7.08493L109.797 6.32658L109.547 6.2426L109.293 7.00095ZM109.292 7.00193L109.857 7.56761L109.858 7.56663L109.293 7.00095L108.727 6.43526L108.726 6.43624L109.292 7.00193ZM109.282 6.99831L108.977 7.73768C108.978 7.73794 108.985 7.74119 108.994 7.74473C109.004 7.74853 109.019 7.75425 109.037 7.76044L109.292 7.00193L109.546 6.24341C109.561 6.24854 109.573 6.25309 109.58 6.25567C109.586 6.25798 109.59 6.25995 109.588 6.25893L109.282 6.99831ZM109.271 6.99411L109.038 7.7593C109.016 7.7526 108.999 7.74626 108.989 7.74258C108.981 7.73929 108.974 7.73636 108.977 7.73774L109.282 6.99831L109.588 6.25887C109.587 6.25873 109.577 6.25429 109.564 6.24957C109.551 6.24446 109.53 6.23678 109.505 6.22892L109.271 6.99411ZM109.272 6.99411V6.19411H109.271V6.99411V7.79411H109.272V6.99411ZM109.261 6.99021L108.988 7.74204L108.999 7.74595L109.272 6.99411L109.546 6.24228L109.535 6.23837L109.261 6.99021ZM109.258 6.98923L109.064 7.76534L109.067 7.76632L109.261 6.99021L109.455 6.21409L109.452 6.21312L109.258 6.98923ZM109.251 6.98728L109.031 7.7565L109.038 7.75845L109.258 6.98923L109.477 6.22001L109.47 6.21806L109.251 6.98728ZM109.019 6.91404L108.778 7.67676L109.009 7.75L109.251 6.98728L109.492 6.22456L109.261 6.15132L109.019 6.91404ZM109.018 6.91404V7.71404H109.019V6.91404V6.11404H109.018V6.91404ZM108.997 6.90622L108.771 7.67366C108.752 7.66822 108.738 7.66316 108.73 7.66011C108.725 7.65853 108.722 7.65724 108.72 7.65644C108.718 7.65568 108.716 7.65515 108.717 7.65523C108.717 7.65529 108.717 7.65531 108.717 7.65558C108.718 7.65578 108.719 7.65614 108.72 7.65656C108.722 7.65737 108.726 7.65876 108.73 7.6604C108.738 7.66356 108.753 7.66894 108.771 7.67481L109.018 6.91404L109.266 6.15326C109.28 6.15797 109.291 6.16206 109.296 6.16387C109.299 6.16483 109.3 6.16553 109.301 6.16565C109.301 6.16571 109.301 6.16573 109.3 6.16558C109.3 6.1655 109.299 6.16517 109.299 6.16488C109.296 6.16384 109.286 6.16012 109.275 6.15591C109.263 6.15156 109.245 6.14529 109.223 6.13879L108.997 6.90622ZM108.771 6.83982L108.545 7.60726L108.771 7.67366L108.997 6.90622L109.223 6.13878L108.997 6.07238L108.771 6.83982ZM108.765 6.83786L108.512 7.59681L108.518 7.59876L108.771 6.83982L109.024 6.08087L109.018 6.07892L108.765 6.83786ZM108.759 6.83591L108.539 7.60513L108.546 7.60708L108.765 6.83786L108.985 6.06864L108.978 6.06669L108.759 6.83591ZM108.755 6.83493L108.561 7.61105L108.565 7.61202L108.759 6.83591L108.953 6.0598L108.949 6.05882L108.755 6.83493ZM108.528 6.77146L108.312 7.54179L108.539 7.60527L108.755 6.83493L108.97 6.0646L108.744 6.00112L108.528 6.77146ZM108.516 6.76866L108.353 7.55195C108.356 7.5526 108.352 7.55165 108.346 7.55035C108.34 7.54889 108.328 7.54607 108.312 7.54182L108.528 6.77146L108.744 6.00109C108.725 5.99572 108.709 5.99193 108.698 5.98955C108.688 5.98735 108.68 5.98556 108.679 5.98537L108.516 6.76866ZM108.507 6.76657L108.312 7.54255C108.334 7.54799 108.353 7.55186 108.354 7.55199L108.516 6.76866L108.678 5.98532C108.676 5.98487 108.679 5.98537 108.682 5.98606C108.685 5.98684 108.692 5.98838 108.701 5.9906L108.507 6.76657ZM108.508 6.76657V5.96657H108.507V6.76657V7.56657H108.508V6.76657ZM108.309 6.71482L108.107 7.48887L108.305 7.54063L108.508 6.76657L108.71 5.99252L108.511 5.94076L108.309 6.71482ZM108.305 6.71384L108.111 7.48995L108.115 7.49093L108.309 6.71482L108.503 5.9387L108.499 5.93773L108.305 6.71384ZM108.278 6.70798L108.11 7.49022L108.138 7.49608L108.305 6.71384L108.473 5.9316L108.446 5.92574L108.278 6.70798ZM108.279 6.70798V5.90798H108.278V6.70798V7.50798H108.279V6.70798ZM108.094 6.66404L107.909 7.44228L108.094 7.48623L108.279 6.70798L108.464 5.92974L108.28 5.88579L108.094 6.66404ZM108.083 6.6606L107.86 7.42909C107.858 7.42845 107.856 7.42792 107.855 7.42758C107.854 7.42725 107.853 7.42701 107.853 7.42699C107.852 7.42654 107.856 7.42788 107.859 7.4287C107.865 7.43072 107.885 7.43641 107.909 7.44219L108.094 6.66404L108.28 5.88588C108.291 5.88841 108.3 5.89076 108.306 5.89248C108.312 5.89417 108.316 5.89554 108.318 5.89608C108.319 5.89636 108.32 5.89655 108.32 5.89652C108.32 5.89649 108.32 5.89647 108.319 5.89637C108.319 5.89629 108.318 5.89615 108.318 5.89599C108.316 5.89542 108.311 5.8939 108.305 5.89212L108.083 6.6606ZM108.077 6.65915L107.909 7.44137C107.886 7.43635 107.868 7.43132 107.86 7.42915L108.083 6.6606L108.305 5.89206C108.293 5.8888 108.272 5.88277 108.245 5.87693L108.077 6.65915ZM108.063 6.65622L107.896 7.43846L107.909 7.44139L108.077 6.65915L108.245 5.87691L108.231 5.87398L108.063 6.65622ZM108.062 6.65622V7.45622H108.063V6.65622V5.85622H108.062V6.65622ZM107.896 6.62009L107.726 7.40179L107.892 7.43792L108.062 6.65622L108.232 5.87452L108.066 5.83839L107.896 6.62009ZM107.892 6.61911L107.698 7.39523L107.702 7.3962L107.896 6.62009L108.09 5.84398L108.086 5.843L107.892 6.61911ZM107.872 6.61423L107.687 7.39248L107.707 7.39736L107.892 6.61911L108.078 5.84087L108.057 5.83599L107.872 6.61423ZM107.718 6.58298L107.559 7.36706L107.713 7.39831L107.872 6.61423L108.031 5.83015L107.876 5.7989L107.718 6.58298ZM107.68 6.57614L107.535 7.36291L107.573 7.36974L107.718 6.58298L107.862 5.79622L107.825 5.78938L107.68 6.57614ZM107.676 6.57517L107.519 7.35963L107.524 7.36061L107.68 6.57614L107.837 5.79168L107.832 5.7907L107.676 6.57517ZM107.556 6.55271L107.408 7.33886L107.527 7.36132L107.676 6.57517L107.824 5.78902L107.705 5.76656L107.556 6.55271ZM107.529 6.54782L107.388 7.33537L107.416 7.34025L107.556 6.55271L107.697 5.76517L107.67 5.76028L107.529 6.54782ZM107.516 6.54587L107.395 7.33657L107.407 7.33852L107.529 6.54782L107.651 5.75713L107.638 5.75517L107.516 6.54587ZM107.515 6.54587V7.34587H107.516V6.54587V5.74587H107.515V6.54587ZM107.404 6.52732L107.273 7.31643L107.384 7.33499L107.515 6.54587L107.647 5.75676L107.536 5.7382L107.404 6.52732ZM107.376 6.52243L107.24 7.3108L107.268 7.31568L107.404 6.52732L107.54 5.73895L107.512 5.73407L107.376 6.52243ZM107.225 6.49997L107.107 7.2912L107.258 7.31366L107.376 6.52243L107.494 5.73121L107.344 5.70875L107.225 6.49997ZM107.173 6.49314L107.07 7.2865L107.122 7.29333L107.225 6.49997L107.328 5.70661L107.275 5.69977L107.173 6.49314ZM107.174 6.49314V5.69314H107.173V6.49314V7.29314H107.174V6.49314ZM107.165 6.49216L107.076 7.28727L107.085 7.28824L107.174 6.49314L107.262 5.69803L107.253 5.69705L107.165 6.49216ZM106.974 6.4697L106.881 7.26419L107.071 7.28665L107.165 6.49216L107.258 5.69767L107.068 5.67521L106.974 6.4697ZM106.972 6.4697V7.2697H106.974V6.4697V5.6697H106.972V6.4697ZM105.802 6.7988L106.295 7.42886C106.456 7.30357 106.662 7.23933 106.881 7.26446L106.972 6.4697L107.064 5.67493C106.413 5.60007 105.789 5.79374 105.31 6.16874L105.802 6.7988ZM105.797 6.78732L105.069 7.11862L105.074 7.1301L105.802 6.7988L106.531 6.4675L106.525 6.45602L105.797 6.78732ZM105.752 6.69333L105.05 7.0774C105.049 7.07585 105.05 7.07743 105.053 7.08449C105.057 7.09232 105.061 7.10133 105.069 7.11817L105.797 6.78732L106.526 6.45648C106.513 6.42919 106.487 6.37039 106.453 6.30927L105.752 6.69333ZM105.666 6.55368L104.984 6.97296L105.07 7.11261L105.752 6.69333L106.433 6.27405L106.347 6.13441L105.666 6.55368ZM103.441 6.14157L103.894 6.80121C104.258 6.55108 104.757 6.64342 105.006 7.00687L105.666 6.55368L106.325 6.1005C105.573 5.00686 104.079 4.73379 102.989 5.48194L103.441 6.14157ZM98.7214 9.38376L99.1744 10.0432L103.894 6.80098L103.441 6.14157L102.988 5.48217L98.2685 8.72436L98.7214 9.38376ZM93.3103 1.76169L92.658 2.2248L98.0691 9.84687L98.7214 9.38376L99.3738 8.92066L93.9626 1.29858L93.3103 1.76169ZM107.165 6.49216V5.69216H107.164V6.49216V7.29216H107.165V6.49216ZM107.164 6.49216L107.089 7.28869C107.067 7.2866 107.05 7.28399 107.042 7.28286C107.034 7.28152 107.027 7.2803 107.023 7.27968C107.017 7.27859 107.012 7.27751 107.014 7.27792L107.166 6.49248L107.318 5.70703C107.317 5.70702 107.317 5.70695 107.317 5.70688C107.316 5.70679 107.316 5.70666 107.315 5.7065C107.313 5.70621 107.31 5.70559 107.306 5.70487C107.302 5.70419 107.295 5.70293 107.286 5.70154C107.278 5.70038 107.261 5.69774 107.238 5.69563L107.164 6.49216ZM107.166 6.49248L107.014 7.27791C107.014 7.27792 107.016 7.27839 107.019 7.27891C107.022 7.27947 107.027 7.28034 107.032 7.28133C107.041 7.28289 107.064 7.28674 107.094 7.28954L107.17 6.49314L107.245 5.69673C107.261 5.69818 107.273 5.69984 107.282 5.70107C107.291 5.70233 107.298 5.70352 107.303 5.70438C107.312 5.70592 107.319 5.70739 107.318 5.70705L107.166 6.49248ZM107.17 6.49314V7.29314H107.172V6.49314V5.69314H107.17V6.49314ZM107.172 6.49314L107.285 5.70118L107.278 5.7002L107.165 6.49216L107.052 7.28412L107.058 7.2851L107.172 6.49314ZM121.733 24.1162L120.98 24.3853L120.985 24.3989L121.738 24.1299L122.491 23.8608L122.487 23.8471L121.733 24.1162ZM121.733 24.1152H120.933V24.1162H121.733H122.533V24.1152H121.733ZM122.035 24.8818L122.779 24.5888L122.478 23.8222L121.733 24.1152L120.989 24.4082L121.29 25.1748L122.035 24.8818ZM122.036 24.8838L122.751 24.526L122.75 24.524L122.035 24.8818L121.319 25.2396L121.32 25.2415L122.036 24.8838ZM122.035 24.8838V25.6838H122.036V24.8838V24.0838H122.035V24.8838ZM121.738 24.1299L120.994 24.423L121.291 25.1769L122.035 24.8838L122.779 24.5906L122.482 23.8367L121.738 24.1299ZM60.5871 23.9429L59.8653 23.598C59.8698 23.5885 59.8737 23.5809 59.8762 23.5761C59.8786 23.5715 59.8805 23.568 59.8805 23.5678C59.8826 23.5639 59.8757 23.5767 59.8688 23.5907C59.8561 23.6165 59.8133 23.7041 59.7948 23.8259L60.5857 23.9463L61.3766 24.0666C61.3582 24.1873 61.3159 24.2738 61.3037 24.2985C61.2971 24.3119 61.2905 24.3242 61.2928 24.3197C61.2931 24.3193 61.2951 24.3155 61.2976 24.3106C61.3002 24.3056 61.3043 24.2977 61.3089 24.2879L60.5871 23.9429ZM60.5857 23.9463L61.3012 24.304L61.3022 24.3021L60.5867 23.9443L59.8711 23.5865L59.8701 23.5885L60.5857 23.9463ZM60.5867 23.9443L61.3456 24.1973L61.3461 24.1959L60.5871 23.9429L59.8282 23.69L59.8277 23.6913L60.5867 23.9443ZM60.6238 23.706L60.0581 24.2717L60.0591 24.2727L60.6247 23.707L61.1904 23.1413L61.1895 23.1403L60.6238 23.706ZM60.6697 23.459L59.8831 23.3128L59.8372 23.5599L60.6238 23.706L61.4103 23.8521L61.4562 23.6051L60.6697 23.459ZM60.6238 23.7158L61.4113 23.8565L61.4572 23.5997L60.6697 23.459L59.8821 23.3182L59.8362 23.5751L60.6238 23.7158ZM60.6218 23.7275L61.4109 23.859L61.4129 23.8473L60.6238 23.7158L59.8347 23.5843L59.8327 23.596L60.6218 23.7275ZM60.5876 23.9355L61.377 24.0652L61.4112 23.8572L60.6218 23.7275L59.8324 23.5978L59.7982 23.8058L60.5876 23.9355ZM60.5876 23.9316L59.7947 23.8258C59.7911 23.8527 59.7893 23.8766 59.7884 23.8967C59.7875 23.9167 59.7875 23.9338 59.7877 23.9468C59.7879 23.9598 59.7884 23.9703 59.7888 23.9765C59.789 23.9798 59.7891 23.9823 59.7892 23.9839C59.7893 23.9847 59.7893 23.9854 59.7893 23.9858C59.7894 23.986 59.7894 23.9861 59.7894 23.9862C59.7894 23.9863 59.7894 23.9863 59.7894 23.9863C59.7894 23.9863 59.7894 23.9864 59.7894 23.9864C59.7894 23.9864 59.7894 23.9864 59.7894 23.9864C59.7894 23.9872 59.7891 23.9824 59.7888 23.9766C59.7885 23.9704 59.788 23.9599 59.7878 23.9469C59.7876 23.9338 59.7876 23.9167 59.7886 23.8967C59.7896 23.8766 59.7915 23.8527 59.7952 23.8258L60.5876 23.9355L61.3801 24.0452C61.3838 24.0181 61.3858 23.9938 61.3868 23.9734C61.3877 23.953 61.3878 23.9356 61.3876 23.9222C61.3874 23.9089 61.3869 23.8981 61.3865 23.8915C61.3864 23.8881 61.3862 23.8854 61.3861 23.8837C61.386 23.8828 61.386 23.8821 61.3859 23.8816C61.3859 23.8812 61.3859 23.8808 61.3859 23.8808C61.3859 23.8804 61.3859 23.8815 61.386 23.8827C61.3861 23.8841 61.3863 23.8866 61.3864 23.8896C61.3867 23.8955 61.3872 23.9057 61.3875 23.9183C61.3877 23.9311 61.3877 23.9479 61.3868 23.9675C61.3859 23.9873 61.3841 24.0109 61.3806 24.0374L60.5876 23.9316ZM60.6238 23.7148L59.8347 23.5833L59.7985 23.8001L60.5876 23.9316L61.3768 24.0631L61.4129 23.8463L60.6238 23.7148ZM60.6228 23.7138L60.0571 24.2795L60.0581 24.2805L60.6238 23.7148L61.1895 23.1491L61.1885 23.1482L60.6228 23.7138ZM60.6247 23.707L59.8555 23.4872L59.8536 23.4941L60.6228 23.7138L61.392 23.9336L61.394 23.9268L60.6247 23.707ZM121.452 23.3945L120.717 23.7096L120.72 23.7165L121.455 23.4013L122.19 23.0862L122.187 23.0794L121.452 23.3945ZM121.341 23.1025L120.593 23.3875L120.704 23.6795L121.452 23.3945L122.199 23.1095L122.088 22.8175L121.341 23.1025ZM121.455 23.4013L122.202 23.1156L122.088 22.8168L121.341 23.1025L120.593 23.3882L120.708 23.687L121.455 23.4013ZM60.6853 23.3652L60.1196 23.9309L60.1206 23.9319L60.6863 23.3662L61.252 22.8005L61.251 22.7995L60.6853 23.3652ZM60.6928 23.328L59.9101 23.1624C59.9079 23.1732 59.9031 23.1954 59.8986 23.2197L60.6853 23.3652L61.4719 23.5107C61.4719 23.5108 61.4721 23.5098 61.4727 23.5068C61.4734 23.5036 61.4741 23.5 61.4755 23.4935L60.6928 23.328ZM60.6999 23.2929L59.9134 23.1468C59.9135 23.1463 59.9134 23.147 59.9128 23.1497C59.9122 23.1527 59.9115 23.1561 59.9101 23.1624L60.6928 23.328L61.4755 23.4935C61.4777 23.4834 61.4822 23.4621 61.4865 23.4391L60.6999 23.2929ZM60.6853 23.374L61.4725 23.5163L61.4872 23.4352L60.6999 23.2929L59.9127 23.1507L59.898 23.2317L60.6853 23.374ZM60.6843 23.374V24.174H60.6853V23.374V22.574H60.6843V23.374ZM60.6863 23.3662L59.9102 23.1722L59.9082 23.18L60.6843 23.374L61.4604 23.568L61.4624 23.5602L60.6863 23.3662ZM121.108 22.4931H120.308V22.4941H121.108H121.908V22.4931H121.108ZM121.126 22.5401L121.873 22.2549C121.867 22.2382 121.861 22.2236 121.856 22.21L121.108 22.4931L120.36 22.7762C120.366 22.7923 120.372 22.8091 120.379 22.8252L121.126 22.5401ZM121.156 22.6191L121.905 22.3381C121.894 22.3086 121.883 22.2797 121.873 22.2549L121.126 22.5401L120.379 22.8253C120.388 22.8509 120.398 22.8755 120.407 22.9001L121.156 22.6191ZM121.135 22.5633L120.388 22.8504C120.395 22.8691 120.402 22.8865 120.408 22.9038L121.156 22.6191L121.904 22.3345C121.896 22.3143 121.888 22.2945 121.881 22.2762L121.135 22.5633ZM121.108 22.4941L120.36 22.7772C120.369 22.8024 120.379 22.8276 120.388 22.8503L121.135 22.5633L121.881 22.2764C121.872 22.2525 121.864 22.2315 121.856 22.211L121.108 22.4941ZM120.413 20.6064L119.67 20.9035L119.676 20.9182L120.419 20.6211L121.161 20.324L121.156 20.3093L120.413 20.6064ZM120.414 20.6064V19.8064H120.413V20.6064V21.4064H120.414V20.6064ZM120.524 20.915L121.277 20.6456L121.167 20.337L120.414 20.6064L119.661 20.8758L119.771 21.1844L120.524 20.915ZM120.419 20.6211L119.666 20.8912L119.771 21.1852L120.524 20.915L121.277 20.6448L121.172 20.3509L120.419 20.6211ZM98.9792 11.1484L98.5262 10.4891L98.5261 10.489L97.8739 10.9522L97.2216 11.4155C97.7276 12.1279 98.7119 12.3028 99.4323 11.8078L98.9792 11.1484ZM104.346 7.45993L103.893 6.80062L98.5261 10.4891L98.9792 11.1484L99.4323 11.8077L104.8 8.11925L104.346 7.45993ZM98.3308 11.5957L98.784 12.2549L104.8 8.11917L104.346 7.45993L103.893 6.8007L97.8776 10.9364L98.3308 11.5957ZM97.8739 10.9522L97.2216 11.4154L97.6785 12.0589L98.3308 11.5957L98.9831 11.1325L98.5261 10.489L97.8739 10.9522ZM109.516 8.78429L109.228 9.5304C109.273 9.54793 109.318 9.56569 109.363 9.58388L109.664 8.84275L109.965 8.10162C109.911 8.07949 109.857 8.05838 109.805 8.03818L109.516 8.78429ZM109.664 8.84275L109.965 8.10166C109.967 8.10258 109.969 8.10333 109.97 8.10382C109.971 8.10432 109.972 8.10462 109.972 8.10464C109.972 8.10465 109.972 8.10449 109.971 8.10401C109.97 8.10349 109.968 8.10292 109.966 8.10191L109.639 8.83175L109.311 9.56159C109.317 9.56432 109.338 9.57407 109.363 9.58384L109.664 8.84275ZM109.639 8.83175L109.966 8.10197C109.96 8.09916 109.937 8.08854 109.91 8.07799L109.612 8.82029L109.314 9.56258C109.308 9.56046 109.305 9.55899 109.305 9.55887C109.305 9.55879 109.305 9.55891 109.306 9.55938C109.307 9.55989 109.308 9.56047 109.311 9.56153L109.639 8.83175ZM109.612 8.82029L109.893 8.07138L109.798 8.03539L109.516 8.78429L109.235 9.53319L109.331 9.56919L109.612 8.82029ZM108.113 8.31736L107.919 9.09347L107.939 9.09835L108.133 8.32224L108.327 7.54612L108.307 7.54124L108.113 8.31736ZM108.112 8.31638L107.546 8.88206L107.547 8.88304L108.113 8.31736L108.679 7.75167L108.678 7.75069L108.112 8.31638ZM108.115 8.31736L108.368 7.55841L108.365 7.55743L108.112 8.31638L107.859 9.07533L107.862 9.0763L108.115 8.31736ZM108.133 8.32224L108.347 7.55142L108.329 7.54654L108.115 8.31736L107.901 9.08817L107.918 9.09305L108.133 8.32224ZM107.948 8.27341L107.792 9.05814C107.859 9.07136 107.915 9.07375 107.954 9.07354C107.973 9.07343 107.99 9.07264 108.001 9.07192C108.012 9.07121 108.021 9.07042 108.024 9.07016C108.025 9.07006 108.027 9.06989 108.026 9.06999C108.025 9.07002 108.023 9.07021 108.021 9.07044C108.018 9.07068 108.013 9.07104 108.008 9.07141C108.003 9.07179 107.996 9.07222 107.988 9.07258C107.972 9.07328 107.948 9.07386 107.918 9.07257C107.889 9.07128 107.85 9.06795 107.805 9.05945L107.954 8.27341L108.103 7.48737C108.057 7.4788 108.018 7.47542 107.988 7.47411C107.959 7.47281 107.934 7.47339 107.918 7.47411C107.909 7.47448 107.902 7.47493 107.896 7.47532C107.891 7.47571 107.886 7.47609 107.883 7.47634C107.88 7.47659 107.878 7.47681 107.877 7.47686C107.876 7.47699 107.878 7.47684 107.879 7.47676C107.881 7.47655 107.889 7.4758 107.9 7.47512C107.911 7.47443 107.926 7.47367 107.945 7.47356C107.983 7.47336 108.038 7.47568 108.104 7.48868L107.948 8.27341ZM107.944 8.27217L107.681 9.02775C107.681 9.0278 107.682 9.0281 107.683 9.02846C107.684 9.02884 107.686 9.02942 107.688 9.03011C107.692 9.03144 107.699 9.03369 107.707 9.0363C107.722 9.04106 107.753 9.05027 107.792 9.05812L107.948 8.27341L108.104 7.4887C108.142 7.4963 108.171 7.50515 108.185 7.50949C108.198 7.51365 108.21 7.51761 108.207 7.51659L107.944 8.27217ZM107.938 8.27048L107.772 9.05292C107.742 9.0467 107.719 9.03994 107.704 9.03526C107.69 9.03099 107.679 9.02699 107.681 9.0278L107.944 8.27217L108.207 7.51653C108.207 7.51653 108.203 7.51525 108.199 7.51381C108.194 7.51224 108.187 7.50992 108.179 7.50728C108.162 7.50201 108.136 7.4947 108.105 7.48804L107.938 8.27048ZM107.946 8.27243L108.096 7.48664C108.108 7.48888 108.118 7.49108 108.126 7.49291C108.134 7.49474 108.14 7.49638 108.145 7.49757C108.149 7.49874 108.153 7.4997 108.154 7.50015C108.156 7.50051 108.157 7.50092 108.156 7.50058C108.155 7.50038 108.148 7.4982 108.138 7.49577C108.128 7.49317 108.113 7.48962 108.095 7.48604L107.938 8.27048L107.781 9.05492C107.765 9.05164 107.752 9.04843 107.743 9.04619C107.738 9.04506 107.735 9.04411 107.732 9.04348C107.731 9.04317 107.73 9.04291 107.73 9.04274C107.729 9.04258 107.729 9.04246 107.729 9.04246C107.728 9.0423 107.73 9.04289 107.732 9.04342C107.734 9.04404 107.739 9.04516 107.744 9.04649C107.749 9.04784 107.756 9.04963 107.765 9.05159C107.773 9.05356 107.784 9.05588 107.796 9.05823L107.946 8.27243ZM107.951 8.27304L108.026 7.47662C108.024 7.47643 108.033 7.47723 108.044 7.47848C108.055 7.47984 108.073 7.4823 108.096 7.48661L107.946 8.27243L107.796 9.05826C107.82 9.06288 107.84 9.06558 107.853 9.06713C107.86 9.06792 107.865 9.06849 107.869 9.06886C107.872 9.0692 107.875 9.06947 107.875 9.06947L107.951 8.27304ZM107.954 8.27341L108.098 7.48649C108.072 7.4818 108.052 7.47935 108.043 7.47831C108.037 7.47771 108.033 7.47728 108.031 7.47704C108.029 7.47691 108.028 7.47681 108.028 7.47675C108.027 7.47669 108.027 7.47664 108.026 7.47663L107.951 8.27304L107.875 9.06946C107.877 9.06968 107.87 9.06903 107.862 9.06811C107.854 9.06718 107.835 9.06487 107.81 9.06033L107.954 8.27341ZM107.718 8.2197H108.518V8.21872H107.718H106.918V8.2197H107.718ZM107.712 8.21722L107.398 8.95305C107.394 8.95163 107.412 8.95915 107.431 8.96648C107.452 8.97464 107.489 8.98772 107.537 8.99874L107.718 8.2197L107.9 7.44066C107.945 7.45113 107.98 7.46345 107.999 7.47074C108.016 7.47721 108.031 7.48376 108.026 7.48138L107.712 8.21722ZM107.705 8.21482L107.537 8.99695C107.49 8.98687 107.453 8.97444 107.432 8.96646C107.42 8.96237 107.412 8.95881 107.406 8.95662C107.404 8.95549 107.401 8.95457 107.4 8.95399C107.399 8.9537 107.399 8.95346 107.398 8.95331C107.398 8.95316 107.398 8.95305 107.398 8.95305L107.712 8.21722L108.026 7.48138C108.025 7.48109 108.02 7.47893 108.014 7.4764C108.007 7.47374 107.997 7.46975 107.985 7.46524C107.961 7.45642 107.922 7.44327 107.873 7.43269L107.705 8.21482ZM107.71 8.21579L107.867 7.43133L107.862 7.43035L107.705 8.21482L107.548 8.99928L107.553 9.00026L107.71 8.21579ZM107.718 8.21872L107.909 7.44172C107.938 7.44878 107.961 7.45612 107.974 7.46078C107.981 7.46316 107.987 7.46518 107.99 7.46642C107.992 7.46705 107.993 7.46757 107.994 7.46788C107.995 7.46805 107.995 7.46818 107.995 7.46826C107.995 7.4683 107.995 7.46833 107.995 7.46835C107.995 7.46836 107.995 7.46837 107.995 7.46837C107.995 7.46837 107.995 7.46838 107.995 7.46838C107.995 7.46838 107.995 7.46838 107.995 7.46838C107.996 7.46859 107.993 7.46751 107.99 7.46641C107.987 7.46517 107.981 7.46312 107.974 7.46071C107.961 7.45599 107.938 7.44843 107.909 7.44104L107.71 8.21579L107.51 8.99055C107.483 8.98354 107.462 8.97645 107.45 8.97224C107.443 8.97008 107.438 8.96829 107.436 8.96731C107.434 8.96649 107.431 8.96568 107.433 8.96616C107.433 8.9663 107.436 8.96751 107.44 8.96893C107.444 8.97044 107.451 8.97272 107.458 8.97535C107.474 8.98051 107.498 8.9883 107.528 8.99573L107.718 8.21872ZM107.553 8.18259L107.334 8.95181L107.341 8.95376L107.56 8.18454L107.78 7.41532L107.773 7.41337L107.553 8.18259ZM107.553 8.18161H106.753V8.18259H107.553H108.353V8.18161H107.553ZM107.554 8.18259L108.12 7.6169L108.119 7.61593L107.553 8.18161L106.988 8.7473L106.989 8.74828L107.554 8.18259ZM107.671 8.20798L107.841 7.42642L107.725 7.40103L107.554 8.18259L107.384 8.96415L107.5 8.98954L107.671 8.20798ZM107.56 8.18454L107.394 8.96709L107.504 8.99053L107.671 8.20798L107.837 7.42544L107.726 7.402L107.56 8.18454ZM107.118 8.10056L107.235 7.30916L107.123 7.29256L107.006 8.08396L106.889 8.87536L107.001 8.89196L107.118 8.10056ZM106.993 8.08298L106.882 8.87519L107.007 8.89276L107.118 8.10056L107.229 7.30835L107.104 7.29078L106.993 8.08298ZM107.001 8.0836L107.05 7.28513C107.048 7.28501 107.052 7.28523 107.057 7.28558C107.062 7.28597 107.07 7.28667 107.081 7.28784L106.993 8.08298L106.905 8.87813C106.93 8.88087 106.951 8.88205 106.951 8.88207L107.001 8.0836ZM107.006 8.08396L107.085 7.28789C107.074 7.28677 107.064 7.28609 107.059 7.28573C107.055 7.28539 107.05 7.28513 107.05 7.28512L107.001 8.0836L106.951 8.88208C106.953 8.88218 106.95 8.88202 106.947 8.8818C106.944 8.88155 106.936 8.881 106.926 8.88003L107.006 8.08396ZM156.976 124.797L156.891 125.592L164.215 126.371L164.3 125.575L164.384 124.78L157.06 124.001L156.976 124.797ZM164.744 122.475L164.515 121.708L156.747 124.03L156.976 124.797L157.205 125.563L164.974 123.241L164.744 122.475ZM164.3 125.575L165.091 125.689L165.536 122.588L164.744 122.475L163.953 122.361L163.508 125.462L164.3 125.575Z" fill="var(--stroke-0, #000001)"/>
<path id="Border_11" d="M119.112 70.6982C115.347 66.7487 112.37 62.8871 111.32 59.7495" stroke="var(--stroke-0, #000001)" stroke-width="1.6" stroke-linecap="round" stroke-linejoin="round"/>
<path id="Border_12" d="M85.6306 22.3511C85.6306 22.3511 78.5746 50.6471 110.394 65.9667L119.383 71.0841L107.073 90.1309L92.9614 82.5396C92.9614 82.5396 67.5048 72.3243 61.2796 38.095" stroke="var(--stroke-0, #000001)" stroke-width="1.6" stroke-linecap="round" stroke-linejoin="round"/>
<path id="Border_13" d="M0.800133 213.276C0.800133 213.276 21.1111 225.009 57.2809 222.522" stroke="var(--stroke-0, #000001)" stroke-width="1.6" stroke-linecap="round" stroke-linejoin="round"/>
<path id="Border_14" d="M5.14779 203.733C5.14779 203.733 11.8701 205.87 10.4243 217.306" stroke="var(--stroke-0, #000001)" stroke-width="1.6" stroke-linecap="round" stroke-linejoin="round"/>
<path id="Border_15" d="M42.5251 213.276C42.5251 213.276 36.4177 210.09 25.904 211.317" stroke="var(--stroke-0, #000001)" stroke-width="1.6" stroke-linecap="round" stroke-linejoin="round"/>
<path id="Border_16" d="M95.3087 226.268L147.703 225.513" stroke="var(--stroke-0, #000001)" stroke-width="1.6" stroke-linecap="round" stroke-linejoin="round"/>
<path id="Border_17" d="M129.955 214.506C129.955 214.506 127.043 213.602 120.546 214.614" stroke="var(--stroke-0, #000001)" stroke-width="1.6" stroke-linecap="round" stroke-linejoin="round"/>
</g>
</svg>
