<svg preserveAspectRatio="none" width="100%" height="100%" overflow="visible" style="display: block;" viewBox="0 0 91 15" fill="none" xmlns="http://www.w3.org/2000/svg">
<g id="Group">
<path id="Vector" d="M0.503672 14.6102C0.352571 14.6102 0.226652 14.5604 0.151102 14.4609C0.0503672 14.3613 3.65166e-07 14.2368 3.65166e-07 14.1124V1.19472C3.65166e-07 1.04538 0.0503672 0.920931 0.151102 0.846262C0.251836 0.746704 0.352571 0.696924 0.503672 0.696924H5.96851C7.70618 0.696924 9.0661 1.09516 10.0734 1.86673C11.0556 2.6632 11.5593 3.75834 11.5593 5.20193C11.5593 6.14774 11.3326 6.9442 10.8793 7.59133C10.426 8.23846 9.8216 8.73625 9.0661 9.05982L11.8111 13.9382C11.8615 14.0128 11.8615 14.0875 11.8615 14.1622C11.8615 14.2617 11.8111 14.3613 11.7356 14.4609C11.66 14.5355 11.5593 14.5853 11.4334 14.5853H8.76389C8.51206 14.5853 8.31059 14.5106 8.20985 14.3862C8.08393 14.2617 8.00838 14.1373 7.95802 14.0377L5.66631 9.68205H3.62644V14.0875C3.62644 14.212 3.57607 14.3364 3.47534 14.436C3.3746 14.5355 3.24869 14.5853 3.09758 14.5853H0.503672V14.6102ZM3.60126 6.86954H5.91815C6.54774 6.86954 7.02622 6.7202 7.32843 6.42152C7.63063 6.12285 7.80692 5.69972 7.80692 5.20193C7.80692 4.67925 7.65581 4.28102 7.35361 3.95746C7.05141 3.63389 6.57292 3.48456 5.91815 3.48456H3.60126V6.86954Z" fill="var(--fill-0, #585959)"/>
<path id="Vector_2" d="M17.7797 14.8093C17.0494 14.8093 16.4198 14.6849 15.8405 14.4111C15.2613 14.1373 14.808 13.7639 14.4806 13.3159C14.1532 12.843 13.977 12.3204 13.977 11.7479C13.977 10.8021 14.3547 10.0554 15.1354 9.50783C15.9161 8.96026 16.9486 8.58692 18.233 8.3878L20.7513 8.01446V7.74068C20.7513 7.26777 20.6506 6.89443 20.4491 6.64553C20.2477 6.39664 19.8699 6.27219 19.3411 6.27219C18.9633 6.27219 18.6611 6.34686 18.4345 6.4962C18.2078 6.64554 18.0063 6.84465 17.8804 7.09355C17.7545 7.26777 17.6034 7.34244 17.3767 7.34244H15.1354C14.9843 7.34244 14.8836 7.29266 14.7828 7.218C14.7073 7.14333 14.6569 7.01888 14.6821 6.91932C14.6821 6.67042 14.7828 6.39664 14.9591 6.09797C15.1354 5.79929 15.4124 5.47573 15.7902 5.17705C16.1679 4.87838 16.6464 4.62948 17.2256 4.43036C17.8049 4.23125 18.5352 4.13169 19.3662 4.13169C20.2225 4.13169 20.9528 4.23125 21.5824 4.43036C22.1868 4.62948 22.6905 4.90327 23.0934 5.25172C23.4712 5.60017 23.7734 6.0233 23.9497 6.52109C24.1259 6.99399 24.2267 7.54156 24.2267 8.11402V14.1373C24.2267 14.2617 24.1763 14.3862 24.0756 14.4857C23.9748 14.5853 23.8489 14.6351 23.723 14.6351H21.4061C21.255 14.6351 21.1291 14.5853 21.0535 14.4857C20.9528 14.3862 20.9024 14.2617 20.9024 14.1373V13.4404C20.7262 13.6893 20.4995 13.9133 20.1973 14.1373C19.8951 14.3613 19.5677 14.5106 19.1648 14.6351C18.7618 14.7346 18.3085 14.8093 17.7797 14.8093ZM18.7367 12.5444C19.1144 12.5444 19.467 12.4697 19.7944 12.2955C20.0966 12.1212 20.3484 11.8723 20.5499 11.5239C20.7262 11.1754 20.8269 10.7274 20.8269 10.2047V9.93096L19.1144 10.2296C18.4848 10.3292 18.0315 10.5034 17.7293 10.7274C17.4523 10.9514 17.3012 11.2003 17.3012 11.499C17.3012 11.723 17.3767 11.9221 17.5027 12.0715C17.6286 12.2208 17.8049 12.3452 18.0315 12.4448C18.233 12.4946 18.4848 12.5444 18.7367 12.5444Z" fill="var(--fill-0, #585959)"/>
<path id="Vector_3" d="M28.0043 14.6101C27.8532 14.6101 27.7272 14.5603 27.6517 14.4607C27.551 14.3612 27.5006 14.2367 27.5006 14.1123V0.995496C27.5006 0.846159 27.551 0.721712 27.6517 0.647043C27.7524 0.547485 27.8532 0.497705 28.0043 0.497705H30.3212C30.4471 0.497705 30.573 0.547485 30.6737 0.647043C30.7745 0.746601 30.8248 0.871049 30.8248 0.995496V7.64101L33.6202 4.60448C33.6958 4.50492 33.7965 4.43026 33.872 4.35559C33.9728 4.28092 34.0987 4.25603 34.275 4.25603H36.9696C37.0955 4.25603 37.1963 4.30581 37.2718 4.38048C37.3474 4.45515 37.3977 4.57959 37.3977 4.67915C37.3977 4.72893 37.3977 4.8036 37.3726 4.85338C37.3474 4.92805 37.297 4.97783 37.2466 5.00272L33.6202 8.8606L37.7251 13.8136C37.8259 13.9132 37.8762 14.0127 37.8762 14.1123C37.8762 14.2367 37.8259 14.3612 37.7503 14.4359C37.6748 14.5105 37.5488 14.5603 37.4229 14.5603H34.6779C34.4764 14.5603 34.3253 14.5354 34.2246 14.4607C34.1239 14.3861 34.0483 14.3114 33.9728 14.2367L30.85 10.5033V14.1123C30.85 14.2367 30.7996 14.3612 30.6989 14.4607C30.5982 14.5603 30.4723 14.6101 30.3463 14.6101H28.0043Z" fill="var(--fill-0, #585959)"/>
<path id="Vector_4" d="M43.1646 14.8093C42.4343 14.8093 41.8047 14.6849 41.2255 14.4111C40.6463 14.1373 40.193 13.7639 39.8656 13.3159C39.5382 12.843 39.3619 12.3204 39.3619 11.7479C39.3619 10.8021 39.7397 10.0554 40.5204 9.50783C41.3011 8.96026 42.3336 8.58692 43.6179 8.3878L46.1363 8.01446V7.74068C46.1363 7.26777 46.0356 6.89443 45.8341 6.64553C45.6326 6.39664 45.2549 6.27219 44.726 6.27219C44.3483 6.27219 44.0461 6.34686 43.8194 6.4962C43.5928 6.64554 43.3913 6.84465 43.2654 7.09355C43.1395 7.26777 42.9884 7.34244 42.7617 7.34244H40.5204C40.3693 7.34244 40.2685 7.29266 40.1678 7.218C40.0922 7.14333 40.0419 7.01888 40.0671 6.91932C40.0671 6.67042 40.1678 6.39664 40.3441 6.09797C40.5204 5.79929 40.7974 5.47573 41.1751 5.17705C41.5529 4.87838 42.0314 4.62948 42.6106 4.43036C43.1898 4.23125 43.9201 4.13169 44.7512 4.13169C45.6074 4.13169 46.3378 4.23125 46.9674 4.43036C47.5718 4.62948 48.0754 4.90327 48.4784 5.25172C48.8561 5.60017 49.1583 6.0233 49.3346 6.52109C49.5109 6.99399 49.6116 7.54156 49.6116 8.11402V14.1373C49.6116 14.2617 49.5613 14.3862 49.4605 14.4857C49.3598 14.5853 49.2339 14.6351 49.108 14.6351H46.7911C46.64 14.6351 46.5141 14.5853 46.4385 14.4857C46.3378 14.3862 46.2874 14.2617 46.2874 14.1373V13.4404C46.1111 13.6893 45.8845 13.9133 45.5823 14.1373C45.2801 14.3613 44.9527 14.5106 44.5497 14.6351C44.1468 14.7346 43.6935 14.8093 43.1646 14.8093ZM44.1216 12.5444C44.4994 12.5444 44.8519 12.4697 45.1793 12.2955C45.4815 12.1212 45.7334 11.8723 45.9348 11.5239C46.1111 11.1754 46.2119 10.7274 46.2119 10.2047V9.93096L44.4994 10.2296C43.8698 10.3292 43.4165 10.5034 43.1143 10.7274C42.8373 10.9514 42.6861 11.2003 42.6861 11.499C42.6861 11.723 42.7617 11.9221 42.8876 12.0715C43.0135 12.2208 43.1898 12.3452 43.4165 12.4448C43.6179 12.4946 43.8446 12.5444 44.1216 12.5444Z" fill="var(--fill-0, #585959)"/>
<path id="Vector_5" d="M53.3892 14.6102C53.2381 14.6102 53.1122 14.5604 53.0367 14.4609C52.9359 14.3613 52.8855 14.2369 52.8855 14.1124V4.77885C52.8855 4.62951 52.9359 4.50506 53.0367 4.4304C53.1374 4.33084 53.2381 4.28106 53.3892 4.28106H55.5802C55.7313 4.28106 55.8572 4.33084 55.9328 4.4304C56.0335 4.52995 56.0839 4.6544 56.0839 4.77885V5.45087C56.3609 5.10241 56.7386 4.77885 57.2171 4.50507C57.6956 4.23128 58.2748 4.08194 58.9296 4.08194C60.491 4.03216 61.5487 4.60462 62.1279 5.79932C62.4301 5.30153 62.8835 4.87841 63.4375 4.57973C64.0167 4.25617 64.6211 4.10683 65.3263 4.10683C66.0314 4.10683 66.6358 4.25617 67.215 4.57973C67.7691 4.9033 68.2224 5.3762 68.5498 5.99844C68.8772 6.64557 69.0534 7.46692 69.0534 8.48739V14.1124C69.0534 14.2369 69.0031 14.3613 68.9023 14.4609C68.8016 14.5604 68.6757 14.6102 68.5498 14.6102H66.2329C66.0818 14.6102 65.9558 14.5604 65.8551 14.4609C65.7544 14.3613 65.704 14.2369 65.704 14.1124V8.61184C65.704 8.13894 65.6285 7.79049 65.5025 7.5167C65.3766 7.24292 65.2003 7.0438 64.9485 6.91935C64.7219 6.7949 64.47 6.74513 64.1678 6.74513C63.916 6.74513 63.6893 6.7949 63.4627 6.91935C63.236 7.0438 63.0346 7.24292 62.9086 7.5167C62.7575 7.79049 62.7072 8.16383 62.7072 8.61184V14.1124C62.7072 14.2369 62.6568 14.3613 62.5561 14.4609C62.4553 14.5604 62.3294 14.6102 62.2035 14.6102H59.8866C59.7355 14.6102 59.6096 14.5604 59.534 14.4609C59.4333 14.3613 59.3829 14.2369 59.3829 14.1124V8.61184C59.3829 8.13894 59.3074 7.79049 59.1563 7.5167C59.0052 7.24292 58.8289 7.0438 58.6022 6.91935C58.3756 6.7949 58.1237 6.74513 57.8467 6.74513C57.5949 6.74513 57.3431 6.7949 57.1164 6.91935C56.8897 7.0438 56.6883 7.24292 56.5624 7.5167C56.4113 7.79049 56.3609 8.13894 56.3609 8.58695V14.1124C56.3609 14.2369 56.3105 14.3613 56.2098 14.4609C56.1091 14.5604 55.9831 14.6102 55.8572 14.6102H53.3892Z" fill="var(--fill-0, #585959)"/>
<path id="Vector_6" d="M72.7552 2.78768C72.6041 2.78768 72.4782 2.7379 72.4027 2.63834C72.3019 2.53879 72.2516 2.41434 72.2516 2.28989V0.49784C72.2516 0.373392 72.3019 0.248945 72.4027 0.149387C72.5034 0.0498287 72.6041 4.8992e-05 72.7552 4.8992e-05H75.1728C75.2988 4.8992e-05 75.4247 0.0498287 75.5254 0.149387C75.6262 0.248945 75.6765 0.373392 75.6765 0.49784V2.28989C75.6765 2.43923 75.6262 2.56367 75.5254 2.63834C75.4247 2.7379 75.2988 2.78768 75.1728 2.78768H72.7552ZM72.7804 14.6102C72.6293 14.6102 72.5034 14.5604 72.4278 14.4609C72.3271 14.3613 72.2767 14.2369 72.2767 14.1124V4.77885C72.2767 4.62951 72.3271 4.50506 72.4278 4.43039C72.5286 4.33083 72.6293 4.28105 72.7804 4.28105H75.1477C75.2988 4.28105 75.4247 4.33083 75.5002 4.43039C75.601 4.52995 75.6513 4.6544 75.6513 4.77885V14.1124C75.6513 14.2369 75.601 14.3613 75.5002 14.4609C75.3995 14.5604 75.2736 14.6102 75.1477 14.6102H72.7804Z" fill="var(--fill-0, #585959)"/>
<path id="Vector_7" d="M80.1593 14.6104C80.0082 14.6104 79.8823 14.5606 79.8068 14.461C79.706 14.3615 79.6557 14.237 79.6557 14.1126V4.77899C79.6557 4.62965 79.706 4.5052 79.8068 4.43053C79.9075 4.33098 80.0082 4.2812 80.1593 4.2812H82.4762C82.6273 4.2812 82.7532 4.33098 82.854 4.43053C82.9547 4.53009 83.0051 4.65454 83.0051 4.77899V5.52568C83.3325 5.12744 83.7858 4.77899 84.3398 4.5052C84.8939 4.23142 85.5738 4.08208 86.3293 4.08208C87.11 4.08208 87.79 4.25631 88.3944 4.60476C88.9988 4.95322 89.4521 5.45101 89.8047 6.12303C90.1572 6.79504 90.3083 7.6164 90.3083 8.58709V14.1126C90.3083 14.237 90.258 14.3615 90.1572 14.461C90.0565 14.5606 89.9306 14.6104 89.8047 14.6104H87.2863C87.1604 14.6104 87.0345 14.5606 86.9337 14.461C86.833 14.3615 86.7826 14.237 86.7826 14.1126V8.68665C86.7826 8.06441 86.6315 7.59151 86.3293 7.24306C86.0271 6.8946 85.5738 6.74526 84.9946 6.74526C84.4405 6.74526 84.0124 6.91949 83.685 7.24306C83.3577 7.59151 83.1814 8.06441 83.1814 8.68665V14.1126C83.1814 14.237 83.131 14.3615 83.0303 14.461C82.9295 14.5606 82.8036 14.6104 82.6777 14.6104H80.1593Z" fill="var(--fill-0, #585959)"/>
</g>
</svg>
