<svg preserveAspectRatio="none" width="100%" height="100%" overflow="visible" style="display: block;" viewBox="0 0 26 16" fill="none" xmlns="http://www.w3.org/2000/svg">
<g id="Group">
<path id="Vector" d="M5.24165 7.46692L9.39694 3.53437C10.1776 2.78768 10.2028 1.56809 9.44731 0.796517C8.5407 -0.149286 7.02968 -0.174176 6.07271 0.721848L0.80934 5.72465C0.784156 5.74954 0.784156 5.77443 0.758973 5.77443C0.733789 5.79932 0.683422 5.82421 0.658238 5.84909C-0.198004 6.67045 -0.223187 8.03938 0.607871 8.88562L0.758973 9.03496L5.97197 14.3862C6.80303 15.2325 8.18813 15.2573 9.04437 14.436C9.90061 13.6146 9.9258 12.2457 9.09474 11.3995L5.24165 7.46692Z" fill="var(--fill-0, #00A9AD)"/>
<path id="Vector_2" d="M17.0275 0.0995663L17.4304 0.224014C18.4629 0.547578 19.0422 1.61783 18.74 2.6383L15.3905 13.4653C15.0128 14.7097 13.678 15.4066 12.4189 15.0333C11.3863 14.7097 10.8071 13.6395 11.1093 12.619L14.5595 1.41871C14.8869 0.373352 15.9949 -0.223998 17.0275 0.0995663Z" fill="var(--fill-0, #00A9AD)"/>
<g id="Group_2">
<path id="Vector_3" d="M23.122 4.8857e-05C23.0968 4.8857e-05 23.0968 4.8857e-05 23.0717 4.8857e-05H19.2438C19.3949 4.8857e-05 19.8733 0.124497 20.2511 0.746735C20.5281 1.31919 20.4526 1.99121 20.4274 2.04099C20.4274 2.06588 20.4274 2.06588 20.4274 2.06588C20.377 2.265 20.3518 2.489 20.3518 2.71301C20.3518 4.20638 21.5858 5.42597 23.0968 5.42597C24.6079 5.42597 25.8419 4.20638 25.8419 2.71301C25.8419 1.21964 24.6331 4.8857e-05 23.122 4.8857e-05Z" fill="var(--fill-0, #FDC039)"/>
<path id="Vector_4" d="M18.3875 0.0746582H18.4113C18.3875 0.0746582 18.3875 0.0746582 18.3875 0.0746582Z" fill="var(--fill-0, #FFC234)"/>
</g>
</g>
</svg>
