<svg preserveAspectRatio="none" width="100%" height="100%" overflow="visible" style="display: block;" viewBox="0 0 20 20" fill="none" xmlns="http://www.w3.org/2000/svg">
<g id="Layer 1">
<g id="Vector">
<mask id="path-1-inside-1_3479_8413" fill="white">
<path d="M14.512 11.9816C14.265 11.8576 13.047 11.2576 12.82 11.1756C12.593 11.0926 12.428 11.0516 12.263 11.2996C12.098 11.5466 11.623 12.1056 11.478 12.2706C11.334 12.4356 11.189 12.4556 10.942 12.3316C10.2121 12.041 9.53832 11.6255 8.951 11.1036C8.40932 10.6029 7.94493 10.0246 7.573 9.38763C7.429 9.13963 7.558 9.00563 7.682 8.88263C7.793 8.77163 7.93 8.59363 8.053 8.44863C8.15487 8.32345 8.23838 8.18438 8.301 8.03563C8.33395 7.96727 8.34929 7.89176 8.34562 7.81596C8.34196 7.74017 8.3194 7.66649 8.28 7.60163C8.218 7.47763 7.723 6.25863 7.517 5.76263C7.316 5.28063 7.112 5.34563 6.959 5.33763C6.815 5.33063 6.65 5.32863 6.485 5.32863C6.35949 5.33213 6.23605 5.36157 6.12247 5.41509C6.00888 5.46861 5.9076 5.54506 5.825 5.63963C5.54502 5.90477 5.32334 6.22531 5.17407 6.58084C5.0248 6.93637 4.95121 7.31909 4.958 7.70463C5.0383 8.63887 5.38968 9.52932 5.969 10.2666C7.03092 11.8587 8.48863 13.1472 10.199 14.0056C10.6604 14.2038 11.1317 14.3781 11.611 14.5276C12.1163 14.681 12.6505 14.7143 13.171 14.6246C13.5157 14.5548 13.8422 14.4142 14.1298 14.2118C14.4174 14.0094 14.6599 13.7495 14.842 13.4486C15.0044 13.0786 15.0545 12.6689 14.986 12.2706C14.925 12.1666 14.76 12.1056 14.512 11.9816V11.9816ZM17.004 2.90263C15.3039 1.20298 13.0442 0.17904 10.6454 0.0214351C8.24662 -0.13617 5.8723 0.583304 3.96448 2.04591C2.05667 3.50851 0.745358 5.61457 0.274694 7.972C-0.195971 10.3294 0.206082 12.7776 1.406 14.8606L0 19.9956L5.254 18.6186C6.70716 19.4099 8.33538 19.8245 9.99 19.8246H9.994C11.9541 19.8236 13.8699 19.2417 15.4994 18.1523C17.1289 17.063 18.399 15.5151 19.1491 13.7042C19.8993 11.8933 20.0959 9.90076 19.7141 7.97821C19.3323 6.05566 18.3892 4.28942 17.004 2.90262V2.90263ZM14.371 16.8916C13.0591 17.7139 11.5423 18.1502 9.994 18.1506H9.99C8.5149 18.1505 7.06699 17.7537 5.798 17.0016L5.497 16.8236L2.379 17.6416L3.211 14.6016L3.016 14.2896C2.15055 12.9095 1.71378 11.3037 1.76094 9.67528C1.80809 8.0469 2.33705 6.46907 3.28092 5.1413C4.22479 3.81354 5.54119 2.79547 7.06365 2.21585C8.58611 1.63622 10.2463 1.52106 11.8342 1.88493C13.4221 2.24879 14.8664 3.07535 15.9846 4.26008C17.1027 5.4448 17.8445 6.93449 18.116 8.54077C18.3876 10.147 18.1767 11.7978 17.5101 13.2842C16.8435 14.7706 15.7511 16.026 14.371 16.8916"/>
</mask>
<path d="M14.512 11.9816C14.265 11.8576 13.047 11.2576 12.82 11.1756C12.593 11.0926 12.428 11.0516 12.263 11.2996C12.098 11.5466 11.623 12.1056 11.478 12.2706C11.334 12.4356 11.189 12.4556 10.942 12.3316C10.2121 12.041 9.53832 11.6255 8.951 11.1036C8.40932 10.6029 7.94493 10.0246 7.573 9.38763C7.429 9.13963 7.558 9.00563 7.682 8.88263C7.793 8.77163 7.93 8.59363 8.053 8.44863C8.15487 8.32345 8.23838 8.18438 8.301 8.03563C8.33395 7.96727 8.34929 7.89176 8.34562 7.81596C8.34196 7.74017 8.3194 7.66649 8.28 7.60163C8.218 7.47763 7.723 6.25863 7.517 5.76263C7.316 5.28063 7.112 5.34563 6.959 5.33763C6.815 5.33063 6.65 5.32863 6.485 5.32863C6.35949 5.33213 6.23605 5.36157 6.12247 5.41509C6.00888 5.46861 5.9076 5.54506 5.825 5.63963C5.54502 5.90477 5.32334 6.22531 5.17407 6.58084C5.0248 6.93637 4.95121 7.31909 4.958 7.70463C5.0383 8.63887 5.38968 9.52932 5.969 10.2666C7.03092 11.8587 8.48863 13.1472 10.199 14.0056C10.6604 14.2038 11.1317 14.3781 11.611 14.5276C12.1163 14.681 12.6505 14.7143 13.171 14.6246C13.5157 14.5548 13.8422 14.4142 14.1298 14.2118C14.4174 14.0094 14.6599 13.7495 14.842 13.4486C15.0044 13.0786 15.0545 12.6689 14.986 12.2706C14.925 12.1666 14.76 12.1056 14.512 11.9816V11.9816ZM17.004 2.90263C15.3039 1.20298 13.0442 0.17904 10.6454 0.0214351C8.24662 -0.13617 5.8723 0.583304 3.96448 2.04591C2.05667 3.50851 0.745358 5.61457 0.274694 7.972C-0.195971 10.3294 0.206082 12.7776 1.406 14.8606L0 19.9956L5.254 18.6186C6.70716 19.4099 8.33538 19.8245 9.99 19.8246H9.994C11.9541 19.8236 13.8699 19.2417 15.4994 18.1523C17.1289 17.063 18.399 15.5151 19.1491 13.7042C19.8993 11.8933 20.0959 9.90076 19.7141 7.97821C19.3323 6.05566 18.3892 4.28942 17.004 2.90262V2.90263ZM14.371 16.8916C13.0591 17.7139 11.5423 18.1502 9.994 18.1506H9.99C8.5149 18.1505 7.06699 17.7537 5.798 17.0016L5.497 16.8236L2.379 17.6416L3.211 14.6016L3.016 14.2896C2.15055 12.9095 1.71378 11.3037 1.76094 9.67528C1.80809 8.0469 2.33705 6.46907 3.28092 5.1413C4.22479 3.81354 5.54119 2.79547 7.06365 2.21585C8.58611 1.63622 10.2463 1.52106 11.8342 1.88493C13.4221 2.24879 14.8664 3.07535 15.9846 4.26008C17.1027 5.4448 17.8445 6.93449 18.116 8.54077C18.3876 10.147 18.1767 11.7978 17.5101 13.2842C16.8435 14.7706 15.7511 16.026 14.371 16.8916" fill="var(--fill-0, #01959F)"/>
<path d="M12.82 11.1756L12.4766 12.1148L12.4803 12.1161L12.82 11.1756ZM12.263 11.2996L13.0945 11.8551L13.0956 11.8536L12.263 11.2996ZM11.478 12.2706L10.7268 11.6105L10.7246 11.6131L11.478 12.2706ZM10.942 12.3316L11.3907 11.4379L11.352 11.4185L11.3119 11.4026L10.942 12.3316ZM8.951 11.1036L8.27222 11.838L8.27944 11.8446L8.28678 11.8512L8.951 11.1036ZM7.573 9.38763L6.70821 9.88977L6.70942 9.89185L7.573 9.38763ZM7.682 8.88263L8.38624 9.5926L8.38911 9.58974L7.682 8.88263ZM8.053 8.44863L8.81559 9.09552L8.82218 9.08774L8.82861 9.07984L8.053 8.44863ZM8.301 8.03563L7.40019 7.60141L7.38918 7.62426L7.37933 7.64765L8.301 8.03563ZM8.28 7.60163L7.38557 8.04884L7.40397 8.08564L7.42533 8.12079L8.28 7.60163ZM7.517 5.76263L8.44052 5.37907L8.43996 5.37774L7.517 5.76263ZM6.959 5.33763L7.01122 4.33899L7.00755 4.33881L6.959 5.33763ZM6.485 5.32863V4.32863H6.47106L6.45713 4.32902L6.485 5.32863ZM5.825 5.63963L6.5126 6.36572L6.54699 6.33315L6.57815 6.29748L5.825 5.63963ZM4.958 7.70463L3.95816 7.72223L3.95876 7.75631L3.96167 7.79026L4.958 7.70463ZM5.969 10.2666L6.80092 9.71173L6.77934 9.67938L6.75532 9.64881L5.969 10.2666ZM10.199 14.0056L9.75042 14.8994L9.77698 14.9127L9.80428 14.9244L10.199 14.0056ZM11.611 14.5276L11.3131 15.4823L11.3205 15.4845L11.611 14.5276ZM13.171 14.6246L13.3407 15.6101L13.3552 15.6076L13.3696 15.6047L13.171 14.6246ZM14.842 13.4486L15.6976 13.9663L15.7314 13.9104L15.7577 13.8506L14.842 13.4486ZM14.986 12.2706L15.9715 12.1011L15.9407 11.9217L15.8486 11.7647L14.986 12.2706ZM17.004 2.90263L16.297 3.60982L18.004 5.31644V2.90263H17.004ZM1.406 14.8606L2.3705 15.1247L2.48058 14.7227L2.27252 14.3615L1.406 14.8606ZM0 19.9956L-0.964499 19.7315L-1.4219 21.4021L0.253524 20.9629L0 19.9956ZM5.254 18.6186L5.73221 17.7404L5.38401 17.5508L5.00048 17.6513L5.254 18.6186ZM9.99 19.8246L9.98993 20.8246H9.99V19.8246ZM9.994 19.8246L9.994 20.8246L9.99451 20.8246L9.994 19.8246ZM17.004 2.90262L17.7115 2.19592L16.004 0.486435V2.90262H17.004ZM9.994 18.1506L9.994 19.1506L9.99426 19.1506L9.994 18.1506ZM9.99 18.1506L9.98994 19.1506H9.99V18.1506ZM5.798 17.0016L6.30783 16.1413L6.30702 16.1409L5.798 17.0016ZM5.497 16.8236L6.00602 15.9629L5.64685 15.7505L5.24324 15.8564L5.497 16.8236ZM2.379 17.6416L1.41447 17.3776L0.957192 19.0485L2.63276 18.6089L2.379 17.6416ZM3.211 14.6016L4.17553 14.8656L4.29116 14.4431L4.059 14.0716L3.211 14.6016ZM3.016 14.2896L3.864 13.7596L3.86321 13.7584L3.016 14.2896ZM14.512 11.9816L14.9607 11.0879C14.8319 11.0233 14.461 10.84 14.0935 10.6625C13.7587 10.5007 13.3355 10.2986 13.1597 10.2351L12.82 11.1756L12.4803 12.1161C12.4735 12.1137 12.4901 12.1198 12.544 12.1436C12.5913 12.1644 12.6519 12.1921 12.7238 12.2255C12.8673 12.2922 13.0435 12.3763 13.2235 12.4633C13.5835 12.6373 13.9451 12.816 14.0633 12.8753L14.512 11.9816ZM12.82 11.1756L13.1634 10.2364C13.0794 10.2057 12.7643 10.0786 12.404 10.12C11.9337 10.1741 11.6199 10.461 11.4304 10.7457L12.263 11.2996L13.0956 11.8536C13.0893 11.8629 13.0495 11.921 12.9635 11.9815C12.8679 12.0489 12.7521 12.0932 12.6325 12.107C12.5255 12.1193 12.4505 12.103 12.4335 12.099C12.4199 12.0959 12.424 12.0956 12.4766 12.1148L12.82 11.1756ZM12.263 11.2996L11.4315 10.7442C11.3809 10.8199 11.2522 10.9846 11.0911 11.1802C10.9397 11.364 10.7916 11.5368 10.7268 11.6105L11.478 12.2706L12.2292 12.9307C12.3656 12.7755 12.8863 12.1668 13.0945 11.8551L12.263 11.2996ZM11.478 12.2706L10.7246 11.6131C10.7497 11.5843 10.8857 11.4456 11.1305 11.4165C11.3335 11.3924 11.4484 11.4669 11.3907 11.4379L10.942 12.3316L10.4933 13.2253C10.6826 13.3204 10.9935 13.4469 11.3667 13.4025C11.7818 13.3531 12.0623 13.1219 12.2314 12.9282L11.478 12.2706ZM10.942 12.3316L11.3119 11.4026C10.6898 11.1549 10.1157 10.8008 9.61522 10.3561L8.951 11.1036L8.28678 11.8512C8.96092 12.4502 9.73426 12.9271 10.5721 13.2607L10.942 12.3316ZM8.951 11.1036L9.62978 10.3693C9.16074 9.93574 8.75863 9.435 8.43658 8.88341L7.573 9.38763L6.70942 9.89185C7.13123 10.6143 7.6579 11.2701 8.27222 11.838L8.951 11.1036ZM7.573 9.38763L8.43779 8.8855C8.45337 8.91233 8.48995 8.98489 8.504 9.0964C8.519 9.21545 8.50259 9.33399 8.46411 9.43729C8.4291 9.53128 8.38456 9.58931 8.36996 9.60737C8.35825 9.62184 8.35248 9.62608 8.38624 9.59259L7.682 8.88263L6.97776 8.17267C6.94168 8.20846 6.70871 8.42021 6.58989 8.73922C6.43578 9.15299 6.51735 9.56107 6.70821 9.88977L7.573 9.38763ZM7.682 8.88263L8.38911 9.58974C8.53742 9.44142 8.74756 9.17571 8.81559 9.09552L8.053 8.44863L7.29041 7.80175C7.11244 8.01155 7.04858 8.10184 6.97489 8.17552L7.682 8.88263ZM8.053 8.44863L8.82861 9.07984C8.99049 8.88093 9.12317 8.65997 9.22267 8.42361L8.301 8.03563L7.37933 7.64765C7.35359 7.7088 7.31926 7.76597 7.27739 7.81742L8.053 8.44863ZM8.301 8.03563L9.20181 8.46985C9.30714 8.25133 9.35618 8.00994 9.34445 7.76763L8.34562 7.81596L7.34679 7.86429C7.3424 7.77358 7.36076 7.68321 7.40019 7.60141L8.301 8.03563ZM8.34562 7.81596L9.34445 7.76763C9.33273 7.52533 9.26062 7.2898 9.13467 7.08247L8.28 7.60163L7.42533 8.12079C7.37818 8.04318 7.35118 7.95501 7.34679 7.86429L8.34562 7.81596ZM8.28 7.60163L9.17443 7.15442C9.17811 7.16179 9.15209 7.10349 9.08613 6.9458C9.02899 6.80923 8.95581 6.63203 8.8773 6.44118C8.72174 6.06303 8.5443 5.62895 8.44052 5.37907L7.517 5.76263L6.59348 6.14619C6.6957 6.39231 6.86876 6.81573 7.0277 7.20208C7.1721 7.5531 7.33297 7.94365 7.38557 8.04884L8.28 7.60163ZM7.517 5.76263L8.43996 5.37774C8.29552 5.03137 8.06306 4.66469 7.64717 4.46821C7.44653 4.37342 7.26364 4.34852 7.1409 4.34134C7.08451 4.33804 7.03494 4.33836 7.01525 4.33842C6.98515 4.33853 6.99648 4.33822 7.01122 4.33899L6.959 5.33763L6.90678 6.33627C6.95977 6.33904 7.01094 6.33845 7.02207 6.33841C7.04361 6.33834 7.03664 6.33866 7.02404 6.33792C6.98886 6.33586 6.89822 6.32634 6.79283 6.27655C6.56744 6.17007 6.53748 6.01189 6.59404 6.14752L7.517 5.76263ZM6.959 5.33763L7.00755 4.33881C6.83933 4.33063 6.65538 4.32863 6.485 4.32863V5.32863V6.32863C6.64462 6.32863 6.79067 6.33063 6.91045 6.33645L6.959 5.33763ZM6.485 5.32863L6.45713 4.32902C6.19368 4.33636 5.93461 4.39815 5.69621 4.51049L6.12247 5.41509L6.54873 6.31969C6.53749 6.32498 6.52529 6.3279 6.51287 6.32824L6.485 5.32863ZM6.12247 5.41509L5.69621 4.51049C5.45781 4.62283 5.24523 4.78329 5.07185 4.98178L5.825 5.63963L6.57815 6.29748C6.56998 6.30684 6.55996 6.3144 6.54873 6.31969L6.12247 5.41509ZM5.825 5.63963L5.1374 4.91354C4.75659 5.27417 4.45507 5.71015 4.25204 6.19372L5.17407 6.58084L6.0961 6.96796C6.19161 6.74047 6.33346 6.53537 6.5126 6.36572L5.825 5.63963ZM5.17407 6.58084L4.25204 6.19372C4.04901 6.67729 3.94892 7.19785 3.95816 7.72223L4.958 7.70463L5.95785 7.68703C5.9535 7.44034 6.00059 7.19545 6.0961 6.96796L5.17407 6.58084ZM4.958 7.70463L3.96167 7.79026C4.05865 8.91856 4.48302 9.99398 5.18268 10.8845L5.969 10.2666L6.75532 9.64881C6.29634 9.06465 6.01794 8.35917 5.95433 7.619L4.958 7.70463ZM5.969 10.2666L5.13708 10.8215C6.29524 12.5579 7.88505 13.9631 9.75042 14.8994L10.199 14.0056L10.6476 13.1119C9.09221 12.3312 7.7666 11.1595 6.80092 9.71173L5.969 10.2666ZM10.199 14.0056L9.80428 14.9244C10.2973 15.1362 10.8009 15.3224 11.3131 15.4822L11.611 14.5276L11.9089 13.573C11.4624 13.4337 11.0234 13.2714 10.5937 13.0868L10.199 14.0056ZM11.611 14.5276L11.3205 15.4845C11.9749 15.6832 12.6667 15.7262 13.3407 15.6101L13.171 14.6246L13.0013 13.6391C12.6344 13.7023 12.2578 13.6789 11.9015 13.5708L11.611 14.5276ZM13.171 14.6246L13.3696 15.6047C13.8498 15.5074 14.3046 15.3116 14.7053 15.0296L14.1298 14.2118L13.5543 13.394C13.3797 13.5169 13.1816 13.6022 12.9724 13.6445L13.171 14.6246ZM14.1298 14.2118L14.7053 15.0296C15.106 14.7476 15.4439 14.3856 15.6976 13.9663L14.842 13.4486L13.9864 12.9309C13.876 13.1135 13.7288 13.2712 13.5543 13.394L14.1298 14.2118ZM14.842 13.4486L15.7577 13.8506C15.9989 13.301 16.0733 12.6926 15.9715 12.1011L14.986 12.2706L14.0005 12.4402C14.0358 12.6452 14.01 12.8562 13.9263 13.0467L14.842 13.4486ZM14.986 12.2706L15.8486 11.7647C15.6706 11.4613 15.3995 11.3114 15.2995 11.2566C15.2347 11.2211 15.168 11.1886 15.1171 11.164C15.06 11.1364 15.0132 11.1142 14.9592 11.0872L14.512 11.9816L14.0648 12.8761C14.1348 12.9111 14.2017 12.943 14.2471 12.9649C14.2715 12.9767 14.2905 12.986 14.3067 12.9941C14.3228 13.0021 14.3327 13.0074 14.3387 13.0107C14.3448 13.014 14.3435 13.0135 14.3374 13.0096C14.3313 13.0058 14.3168 12.9962 14.2973 12.9807C14.2592 12.9502 14.1869 12.8848 14.1234 12.7766L14.986 12.2706ZM17.004 2.90263L17.711 2.19544C15.8395 0.324329 13.3517 -0.802909 10.711 -0.976413L10.6454 0.0214351L10.5798 1.01928C12.7366 1.16099 14.7684 2.08164 16.297 3.60982L17.004 2.90263ZM10.6454 0.0214351L10.711 -0.976413C8.07019 -1.14992 5.45635 -0.357863 3.35607 1.25229L3.96448 2.04591L4.5729 2.83953C6.28826 1.52447 8.42305 0.877578 10.5798 1.01928L10.6454 0.0214351ZM3.96448 2.04591L3.35607 1.25229C1.25579 2.86244 -0.187807 5.18097 -0.705952 7.77621L0.274694 7.972L1.25534 8.16779C1.67852 6.04818 2.85754 4.15458 4.5729 2.83953L3.96448 2.04591ZM0.274694 7.972L-0.705952 7.77621C-1.2241 10.3715 -0.781486 13.0666 0.539481 15.3598L1.406 14.8606L2.27252 14.3615C1.19365 12.4886 0.832157 10.2874 1.25534 8.16779L0.274694 7.972ZM1.406 14.8606L0.441501 14.5965L-0.964499 19.7315L0 19.9956L0.964499 20.2597L2.3705 15.1247L1.406 14.8606ZM0 19.9956L0.253524 20.9629L5.50752 19.5859L5.254 18.6186L5.00048 17.6513L-0.253524 19.0283L0 19.9956ZM5.254 18.6186L4.77579 19.4969C6.37565 20.368 8.16826 20.8245 9.98993 20.8246L9.99 19.8246L9.99007 18.8246C8.5025 18.8245 7.03866 18.4517 5.73221 17.7404L5.254 18.6186ZM9.99 19.8246V20.8246H9.994V19.8246V18.8246H9.99V19.8246ZM9.994 19.8246L9.99451 20.8246C12.1523 20.8235 14.2613 20.1829 16.0552 18.9837L15.4994 18.1523L14.9437 17.321C13.4785 18.3005 11.7559 18.8237 9.99349 18.8246L9.994 19.8246ZM15.4994 18.1523L16.0552 18.9837C17.849 17.7844 19.2472 16.0804 20.073 14.0869L19.1491 13.7042L18.2253 13.3215C17.5508 14.9497 16.4088 16.3415 14.9437 17.321L15.4994 18.1523ZM19.1491 13.7042L20.073 14.0869C20.8988 12.0934 21.1152 9.89987 20.6949 7.78342L19.7141 7.97821L18.7332 8.173C19.0765 9.90165 18.8998 11.6933 18.2253 13.3215L19.1491 13.7042ZM19.7141 7.97821L20.6949 7.78342C20.2746 5.66697 19.2364 3.72259 17.7115 2.19592L17.004 2.90262L16.2965 3.60932C17.542 4.85625 18.3899 6.44436 18.7332 8.173L19.7141 7.97821ZM17.004 2.90262H16.004V2.90263H17.004H18.004V2.90262H17.004ZM14.371 16.8916L13.8399 16.0443C12.6871 16.7669 11.3542 17.1503 9.99374 17.1506L9.994 18.1506L9.99426 19.1506C11.7303 19.1502 13.4311 18.6609 14.9021 17.7389L14.371 16.8916ZM9.994 18.1506V17.1506H9.99V18.1506V19.1506H9.994V18.1506ZM9.99 18.1506L9.99006 17.1506C8.69434 17.1505 7.4225 16.8019 6.30783 16.1413L5.798 17.0016L5.28817 17.8619C6.71147 18.7054 8.33546 19.1505 9.98994 19.1506L9.99 18.1506ZM5.798 17.0016L6.30702 16.1409L6.00602 15.9629L5.497 16.8236L4.98798 17.6844L5.28898 17.8624L5.798 17.0016ZM5.497 16.8236L5.24324 15.8564L2.12524 16.6744L2.379 17.6416L2.63276 18.6089L5.75076 17.7909L5.497 16.8236ZM2.379 17.6416L3.34353 17.9056L4.17553 14.8656L3.211 14.6016L2.24647 14.3376L1.41447 17.3776L2.379 17.6416ZM3.211 14.6016L4.059 14.0716L3.864 13.7596L3.016 14.2896L2.168 14.8196L2.363 15.1316L3.211 14.6016ZM3.016 14.2896L3.86321 13.7584C3.10283 12.5458 2.71909 11.1349 2.76052 9.70423L1.76094 9.67528L0.761356 9.64633C0.708476 11.4724 1.19827 13.2732 2.16879 14.8209L3.016 14.2896ZM1.76094 9.67528L2.76052 9.70423C2.80195 8.27354 3.26669 6.88726 4.09597 5.7207L3.28092 5.1413L2.46587 4.56191C1.40741 6.05087 0.814236 7.82026 0.761356 9.64633L1.76094 9.67528ZM3.28092 5.1413L4.09597 5.7207C4.92525 4.55413 6.08183 3.65966 7.41945 3.15041L7.06365 2.21585L6.70784 1.28128C5.00055 1.93128 3.52434 3.07294 2.46587 4.56191L3.28092 5.1413ZM7.06365 2.21585L7.41945 3.15041C8.75708 2.64115 10.2157 2.53997 11.6108 2.85966L11.8342 1.88493L12.0575 0.91019C10.2768 0.502145 8.41514 0.631287 6.70784 1.28128L7.06365 2.21585ZM11.8342 1.88493L11.6108 2.85966C13.0059 3.17936 14.2749 3.90556 15.2573 4.94646L15.9846 4.26008L16.7118 3.5737C15.4579 2.24514 13.8382 1.31823 12.0575 0.91019L11.8342 1.88493ZM15.9846 4.26008L15.2573 4.94646C16.2397 5.98735 16.8914 7.29618 17.13 8.70745L18.116 8.54077L19.102 8.37408C18.7975 6.5728 17.9657 4.90226 16.7118 3.5737L15.9846 4.26008ZM18.116 8.54077L17.13 8.70745C17.3686 10.1187 17.1833 11.569 16.5976 12.875L17.5101 13.2842L18.4225 13.6934C19.1701 12.0265 19.4065 10.1754 19.102 8.37408L18.116 8.54077ZM17.5101 13.2842L16.5976 12.875C16.012 14.181 15.0522 15.284 13.8397 16.0445L14.371 16.8916L14.9023 17.7388C16.45 16.7681 17.675 15.3603 18.4225 13.6934L17.5101 13.2842Z" fill="var(--stroke-0, #01959F)" mask="url(#path-1-inside-1_3479_8413)"/>
</g>
</g>
</svg>
