<svg preserveAspectRatio="none" width="100%" height="100%" overflow="visible" style="display: block;" viewBox="0 0 11 7" fill="none" xmlns="http://www.w3.org/2000/svg">
<path id="Vector" d="M9.54102 0.5C9.63997 0.500043 9.73611 0.529101 9.81738 0.583008L9.89355 0.645508C9.94042 0.691989 9.97755 0.747664 10.0029 0.808594C10.0283 0.869526 10.042 0.934974 10.042 1.00098C10.042 1.06692 10.0283 1.13248 10.0029 1.19336C9.97756 1.25413 9.9403 1.30909 9.89355 1.35547L5.60449 5.59473L5.60059 5.59863C5.55422 5.64536 5.49922 5.68264 5.43848 5.70801C5.37764 5.73335 5.312 5.74703 5.24609 5.74707C5.18013 5.74707 5.11461 5.73336 5.05371 5.70801C4.99278 5.68262 4.93711 5.6455 4.89062 5.59863L0.647461 1.35547C0.600804 1.30909 0.5634 1.25408 0.538086 1.19336C0.512725 1.13249 0.500024 1.06692 0.5 1.00098C0.5 0.935045 0.512758 0.869464 0.538086 0.808594C0.563456 0.747699 0.600633 0.691974 0.647461 0.645508H0.648438C0.742117 0.552391 0.86889 0.5 1.00098 0.5C1.09993 0.500035 1.19606 0.529106 1.27734 0.583008L1.35352 0.645508L5.24316 4.53516L5.59668 4.18652L9.18652 0.646484L9.18848 0.645508C9.28215 0.552404 9.40894 0.5 9.54102 0.5Z" fill="var(--fill-0, #1D1F20)" stroke="var(--stroke-0, #1D1F20)"/>
</svg>
