<svg preserveAspectRatio="none" width="100%" height="100%" overflow="visible" style="display: block;" viewBox="0 0 56 10" fill="none" xmlns="http://www.w3.org/2000/svg">
<g id="Group">
<path id="Vector" d="M0.226653 7.74061C0.176286 7.74061 0.125919 7.71572 0.0755517 7.66594C0.0251844 7.61616 0 7.56639 0 7.49172C0 7.46683 -3.84647e-07 7.44194 0.0251833 7.39216L2.66947 0.398197C2.69465 0.323528 2.74502 0.273748 2.79538 0.19908C2.84575 0.149301 2.94649 0.124414 3.04722 0.124414H4.25604C4.35677 0.124414 4.45751 0.149301 4.50787 0.19908C4.55824 0.248859 4.60861 0.323528 4.63379 0.398197L7.27807 7.39216C7.27807 7.41705 7.27807 7.46683 7.27807 7.49172C7.27807 7.56639 7.25289 7.61616 7.20252 7.66594C7.15215 7.71572 7.10179 7.74061 7.05142 7.74061H6.09444C5.99371 7.74061 5.91815 7.71572 5.86779 7.66594C5.81742 7.61616 5.79224 7.56639 5.76705 7.5415L5.26338 6.22235H1.98951L1.48584 7.5415C1.46065 7.59128 1.43547 7.64105 1.3851 7.66594C1.33473 7.71572 1.25918 7.74061 1.15845 7.74061H0.226653ZM2.39245 4.95298H4.88563L3.62644 1.5929L2.39245 4.95298Z" fill="var(--fill-0, #585959)"/>
<path id="Vector_2" d="M11.6853 7.84025C11.1564 7.84025 10.7031 7.74069 10.3002 7.54157C9.89723 7.34245 9.59503 7.06867 9.36838 6.69533C9.14173 6.32198 9.01581 5.87398 8.99063 5.3513C8.99063 5.25174 8.99063 5.1024 8.99063 4.92817C8.99063 4.75394 8.99063 4.60461 8.99063 4.48016C9.01581 3.95748 9.14173 3.50947 9.36838 3.13613C9.59503 2.76278 9.89723 2.489 10.3002 2.28988C10.7031 2.09077 11.1564 1.99121 11.6853 1.99121C12.1638 1.99121 12.5415 2.06588 12.8941 2.19032C13.2215 2.31477 13.4985 2.489 13.7 2.68811C13.9014 2.88723 14.0777 3.08635 14.1784 3.31035C14.2792 3.53436 14.3295 3.70859 14.3547 3.88281C14.3547 3.95748 14.3295 4.03215 14.2792 4.08193C14.2288 4.13171 14.1533 4.1566 14.0777 4.1566H13.1207C13.0452 4.1566 12.9948 4.13171 12.9444 4.10682C12.8941 4.08193 12.8689 4.00726 12.8185 3.93259C12.7178 3.63392 12.5667 3.4348 12.3904 3.31035C12.2141 3.1859 11.9875 3.13613 11.7105 3.13613C11.3327 3.13613 11.0557 3.26058 10.829 3.48458C10.6024 3.70859 10.5016 4.08193 10.4765 4.55483C10.4513 4.82861 10.4513 5.07751 10.4765 5.3264C10.5016 5.82419 10.6024 6.19754 10.829 6.42154C11.0557 6.64555 11.3327 6.77 11.7105 6.77C11.9875 6.77 12.2141 6.72022 12.3904 6.59577C12.5667 6.47132 12.7178 6.27221 12.8185 5.97353C12.8437 5.89886 12.8941 5.84908 12.9444 5.7993C12.9948 5.77441 13.0452 5.74953 13.1207 5.74953H14.0777C14.1533 5.74953 14.2036 5.77442 14.2792 5.82419C14.3295 5.87397 14.3547 5.92375 14.3547 6.02331C14.3547 6.14776 14.3044 6.2971 14.254 6.47132C14.2036 6.64555 14.1029 6.79489 13.9518 6.96911C13.8259 7.14334 13.6496 7.29268 13.4481 7.44201C13.2467 7.59135 12.9948 7.69091 12.7178 7.79046C12.3904 7.79046 12.063 7.84025 11.6853 7.84025Z" fill="var(--fill-0, #585959)"/>
<path id="Vector_3" d="M18.2328 7.84014C17.8551 7.84014 17.5025 7.76547 17.2003 7.61613C16.8981 7.4668 16.6463 7.26768 16.47 7.01879C16.2937 6.76989 16.193 6.4961 16.193 6.17254C16.193 5.67475 16.3944 5.25163 16.8226 4.95296C17.2507 4.65428 17.7795 4.45517 18.4595 4.35561L19.9705 4.1316V3.9076C19.9705 3.60892 19.895 3.36002 19.7439 3.21069C19.5928 3.03646 19.3157 2.96179 18.9632 2.96179C18.7113 2.96179 18.4847 3.01157 18.3084 3.11113C18.1321 3.21069 18.0314 3.36003 17.9306 3.53425C17.8803 3.63381 17.7795 3.68359 17.6788 3.68359H16.8226C16.747 3.68359 16.6715 3.6587 16.6463 3.60892C16.5959 3.55914 16.5959 3.50936 16.5959 3.43469C16.5959 3.31024 16.6463 3.1858 16.747 3.01157C16.8477 2.83734 16.9737 2.68801 17.1751 2.53867C17.3514 2.38933 17.6032 2.24 17.9055 2.14044C18.2077 2.04088 18.5602 1.96621 18.9883 1.96621C19.4416 1.96621 19.8446 2.01599 20.1468 2.14044C20.4742 2.26488 20.726 2.41422 20.9023 2.58845C21.1038 2.78757 21.2297 2.98668 21.3304 3.26047C21.406 3.50936 21.4563 3.78315 21.4563 4.05693V7.4668C21.4563 7.54147 21.4312 7.59125 21.3808 7.64103C21.3304 7.6908 21.2549 7.7157 21.2045 7.7157H20.3231C20.2475 7.7157 20.172 7.6908 20.1216 7.64103C20.0712 7.59125 20.0461 7.51658 20.0461 7.4668V7.04367C19.9453 7.16812 19.8194 7.29257 19.6683 7.41702C19.5172 7.54147 19.3157 7.64103 19.0891 7.7157C18.8121 7.79036 18.5602 7.84014 18.2328 7.84014ZM18.6106 6.81967C18.8624 6.81967 19.0891 6.76989 19.3157 6.64544C19.5172 6.54589 19.6935 6.37166 19.8194 6.14765C19.9453 5.92365 19.9957 5.62497 19.9957 5.27652V5.05251L18.8876 5.22674C18.4595 5.30141 18.1321 5.40097 17.9306 5.5503C17.7292 5.69964 17.6032 5.87387 17.6032 6.07298C17.6032 6.22232 17.6536 6.37166 17.7544 6.47122C17.8551 6.59567 17.981 6.67033 18.1321 6.72011C18.2832 6.76989 18.4343 6.81967 18.6106 6.81967Z" fill="var(--fill-0, #585959)"/>
<path id="Vector_4" d="M26.0651 7.84021C25.6874 7.84021 25.36 7.76554 25.0578 7.64109C24.7808 7.51664 24.5289 7.34242 24.3275 7.09352C24.126 6.86951 24.0001 6.59573 23.8993 6.27216C23.7986 5.9486 23.7482 5.60015 23.723 5.2268C23.723 5.10236 23.723 4.97791 23.723 4.87835C23.723 4.77879 23.723 4.65434 23.723 4.5299C23.7482 4.15655 23.7986 3.83299 23.8993 3.50942C24.0001 3.21075 24.1512 2.93696 24.3275 2.68807C24.5289 2.46406 24.7556 2.26495 25.0578 2.1405C25.3348 2.01605 25.6874 1.94138 26.0651 1.94138C26.4681 1.94138 26.7954 2.01605 27.0725 2.1405C27.3495 2.26495 27.5761 2.43917 27.7524 2.66318V0.248895C27.7524 0.174227 27.7776 0.124445 27.828 0.0746656C27.8783 0.0248865 27.9287 0 28.0294 0H28.9612C29.0368 0 29.0872 0.0248865 29.1375 0.0746656C29.1879 0.124445 29.2131 0.199116 29.2131 0.248895V7.44197C29.2131 7.51664 29.1879 7.56642 29.1375 7.6162C29.0872 7.66598 29.0116 7.69087 28.9612 7.69087H28.105C28.0294 7.69087 27.9539 7.66598 27.9035 7.6162C27.8532 7.56642 27.828 7.49175 27.828 7.44197V7.06863C27.6517 7.29264 27.3999 7.46686 27.1228 7.6162C26.8458 7.76554 26.4932 7.84021 26.0651 7.84021ZM26.4681 6.6704C26.7703 6.6704 27.0221 6.59573 27.1984 6.47128C27.3747 6.32194 27.5258 6.14772 27.6013 5.9486C27.6769 5.72459 27.7272 5.52548 27.7524 5.30147C27.7524 5.17702 27.7524 5.02769 27.7524 4.87835C27.7524 4.72901 27.7524 4.57968 27.7524 4.45523C27.7524 4.23122 27.7021 4.03211 27.6013 3.83299C27.5006 3.63387 27.3747 3.45965 27.1732 3.3352C26.9969 3.21075 26.7451 3.13608 26.4681 3.13608C26.1659 3.13608 25.914 3.21075 25.7377 3.3352C25.5615 3.45965 25.4355 3.63387 25.36 3.85788C25.2844 4.08189 25.2341 4.30589 25.2089 4.57968C25.2089 4.80368 25.2089 5.0028 25.2089 5.2268C25.2341 5.4757 25.2592 5.72459 25.36 5.9486C25.4355 6.17261 25.5615 6.34683 25.7377 6.47128C25.914 6.62062 26.1659 6.6704 26.4681 6.6704Z" fill="var(--fill-0, #585959)"/>
<path id="Vector_5" d="M34.2245 7.84014C33.4187 7.84014 32.7639 7.61614 32.2854 7.14323C31.8069 6.67033 31.5551 6.0232 31.5047 5.17696C31.5047 5.10229 31.5047 5.00273 31.5047 4.90318C31.5047 4.77873 31.5047 4.70406 31.5047 4.62939C31.5299 4.08182 31.6558 3.60892 31.8824 3.21069C32.1091 2.81246 32.4113 2.51378 32.8142 2.28978C33.2172 2.06577 33.6705 1.96621 34.1993 1.96621C34.8038 1.96621 35.2822 2.09066 35.6852 2.33955C36.0881 2.58845 36.3903 2.91201 36.5918 3.36003C36.7933 3.78315 36.894 4.28094 36.894 4.8534V5.0774C36.894 5.15207 36.8688 5.20185 36.8185 5.25163C36.7681 5.30141 36.6925 5.3263 36.617 5.3263H32.9653C32.9653 5.37608 32.9653 5.40097 32.9653 5.40097C32.9653 5.64986 33.0157 5.89876 33.1164 6.09788C33.2172 6.32188 33.3431 6.47122 33.5194 6.62055C33.6957 6.745 33.9223 6.81967 34.1742 6.81967C34.3756 6.81967 34.5519 6.79478 34.6778 6.72011C34.8289 6.67033 34.9297 6.59566 35.0304 6.49611C35.106 6.42144 35.1815 6.34677 35.2067 6.29699C35.2822 6.22232 35.3326 6.14765 35.3578 6.14765C35.4082 6.12276 35.4585 6.12276 35.5341 6.12276H36.4911C36.5666 6.12276 36.617 6.14765 36.6674 6.19743C36.7177 6.24721 36.7429 6.29699 36.7177 6.37166C36.7177 6.49611 36.6422 6.62055 36.5414 6.79478C36.4155 6.96901 36.2644 7.11834 36.0629 7.29257C35.8615 7.44191 35.5845 7.59125 35.2571 7.6908C35.0052 7.79036 34.6527 7.84014 34.2245 7.84014ZM33.0409 4.43027H35.4585V4.40539C35.4585 4.1316 35.4082 3.88271 35.3074 3.6587C35.2067 3.43469 35.0808 3.28536 34.8793 3.16091C34.703 3.03646 34.4764 2.98668 34.2245 2.98668C33.9727 2.98668 33.746 3.03646 33.5698 3.16091C33.3935 3.28536 33.2424 3.43469 33.1668 3.6587C33.0661 3.88271 33.0409 4.1316 33.0409 4.40539V4.43027Z" fill="var(--fill-0, #585959)"/>
<path id="Vector_6" d="M39.4878 7.74055C39.4122 7.74055 39.3619 7.71566 39.3115 7.66588C39.2611 7.6161 39.2359 7.54143 39.2359 7.49165V2.33952C39.2359 2.26485 39.2611 2.21507 39.3115 2.16529C39.3619 2.11552 39.4374 2.09062 39.4878 2.09062H40.344C40.4196 2.09062 40.4699 2.11552 40.5203 2.16529C40.5707 2.21507 40.5959 2.28974 40.5959 2.33952V2.71286C40.747 2.51375 40.9484 2.33952 41.2254 2.19018C41.4773 2.04084 41.8047 1.96618 42.1572 1.96618C42.9883 1.94129 43.5675 2.26485 43.8949 2.93687C44.0712 2.63819 44.2978 2.41419 44.6252 2.23996C44.9526 2.06574 45.3052 1.96618 45.6829 1.96618C46.0607 1.96618 46.4133 2.04085 46.7155 2.21507C47.0177 2.3893 47.2695 2.66308 47.4458 3.01154C47.6221 3.35999 47.7228 3.808 47.7228 4.33068V7.44187C47.7228 7.51654 47.6976 7.56632 47.6473 7.6161C47.5969 7.66588 47.5213 7.69077 47.471 7.69077H46.5644C46.4888 7.69077 46.4384 7.66588 46.3881 7.6161C46.3377 7.56632 46.3125 7.49165 46.3125 7.44187V4.40535C46.3125 4.08179 46.2622 3.83289 46.1614 3.63378C46.0607 3.43466 45.9348 3.31021 45.7837 3.23554C45.6326 3.16088 45.4311 3.1111 45.2548 3.1111C45.1037 3.1111 44.9274 3.16088 44.7763 3.23554C44.6252 3.31021 44.4741 3.45955 44.3734 3.63378C44.2727 3.83289 44.2223 4.08179 44.2223 4.40535V7.44187C44.2223 7.51654 44.1971 7.56632 44.1467 7.6161C44.0964 7.66588 44.0208 7.69077 43.9705 7.69077H43.0387C42.9631 7.69077 42.9127 7.66588 42.8624 7.6161C42.812 7.56632 42.7868 7.49165 42.7868 7.44187V4.40535C42.7868 4.08179 42.7365 3.83289 42.6357 3.63378C42.535 3.43466 42.4091 3.31021 42.2328 3.23554C42.0817 3.16088 41.9054 3.1111 41.7291 3.1111C41.5528 3.1111 41.4017 3.16088 41.2254 3.23554C41.0743 3.31021 40.9232 3.45955 40.8225 3.63378C40.7218 3.83289 40.6714 4.08179 40.6714 4.40535V7.44187C40.6714 7.51654 40.6462 7.56632 40.5959 7.6161C40.5455 7.66588 40.4699 7.69077 40.4196 7.69077H39.4878V7.74055Z" fill="var(--fill-0, #585959)"/>
<path id="Vector_7" d="M51.0726 9.78166C51.0222 9.78166 50.9718 9.75678 50.9214 9.707C50.8711 9.65722 50.8459 9.60744 50.8459 9.55766C50.8459 9.53277 50.8459 9.50788 50.8459 9.48299C50.8459 9.4581 50.8711 9.43321 50.8963 9.38343L51.7525 7.36738L49.6371 2.43925C49.6119 2.36458 49.5867 2.3148 49.5867 2.28991C49.5867 2.21524 49.6119 2.16546 49.6623 2.11569C49.7126 2.06591 49.763 2.04102 49.8386 2.04102H50.72C50.7955 2.04102 50.8711 2.06591 50.9214 2.11569C50.9718 2.16546 50.997 2.21524 51.0222 2.26502L52.4828 5.82423L53.9939 2.26502C54.019 2.21524 54.0442 2.16546 54.0946 2.11569C54.145 2.06591 54.1953 2.0659 54.2961 2.0659H55.1775C55.2279 2.0659 55.2782 2.09079 55.3286 2.14057C55.379 2.19035 55.4041 2.24013 55.4041 2.28991C55.4041 2.33969 55.379 2.38947 55.3538 2.46414L52.2562 9.58255C52.231 9.63233 52.1806 9.6821 52.1555 9.73188C52.1051 9.78166 52.0547 9.78166 51.954 9.78166H51.0726V9.78166Z" fill="var(--fill-0, #585959)"/>
</g>
</svg>
