<svg preserveAspectRatio="none" width="100%" height="100%" overflow="visible" style="display: block;" viewBox="0 0 58 58" fill="none" xmlns="http://www.w3.org/2000/svg">
<g id="Open Camera">
<rect width="57.2554" height="57.2554" fill="#F6F1EB"/>
<path id="Vector" fill-rule="evenodd" clip-rule="evenodd" d="M31.2396 18.4963C31.3274 17.9205 31.442 17.3473 31.4974 16.7685C31.5787 15.9241 31.6091 15.0752 31.6755 14.2296C31.7739 12.964 31.8619 11.6966 31.9986 10.4348C32.1049 9.45278 32.2506 8.47311 32.4321 7.50195C32.5246 7.00964 32.6972 6.52252 33.0607 6.13827C33.3946 5.78594 33.5546 5.75 33.9574 6.02122C34.4869 6.37757 34.7836 6.89211 34.9168 7.51188C35.0649 8.2033 35.2009 8.89094 35.2321 9.60364C35.2723 10.5095 35.3957 11.4112 35.462 12.3163C35.5157 13.0409 35.4984 13.7725 35.5833 14.4928C35.7252 15.699 35.7975 16.9059 35.779 18.1192C35.7749 18.3618 35.7813 18.6056 35.8003 18.8472C35.8814 19.8531 35.9746 20.8576 36.0536 21.8636C36.1299 22.848 36.1855 23.8342 36.2726 24.8179C36.2847 24.9565 36.4057 25.0974 36.5037 25.2142C37.2703 26.1291 37.5287 27.2221 37.3247 28.3379C37.1825 29.1128 36.7935 29.87 36.3915 30.5647C35.7849 31.6144 35.0697 32.6023 34.402 33.6174C33.9555 34.2966 33.4959 34.9844 33.3715 35.799C33.1166 37.4682 33.2205 39.1452 33.3881 40.8154C33.4671 41.5976 33.6185 42.3725 33.7236 43.1528C33.9262 44.6508 34.1362 46.1488 34.304 47.6518C34.3478 48.04 34.3697 48.5163 34.1859 48.8249C33.8592 49.3725 33.3936 49.8374 32.7859 50.1405C32.1367 50.4647 31.4627 50.6038 30.7446 50.6917C29.1605 50.8864 27.576 50.8116 25.9905 50.827C25.9107 50.8282 25.8281 50.8093 25.7506 50.7873C24.6578 50.4754 23.5522 50.2011 22.4789 49.8348C21.4883 49.4971 21.5558 49.3179 21.6048 48.3761C21.6072 48.3356 21.6227 48.2964 21.6312 48.2571C21.9601 46.7367 22.2991 45.2181 22.6158 43.6953C22.9649 42.0126 23.2809 40.3259 23.2153 38.5917C23.1903 37.9322 23.0812 37.3082 22.7782 36.7198C22.3436 35.8738 21.8276 35.057 21.5004 34.1717C21.067 32.9996 20.7548 31.7794 20.4466 30.5659C20.3087 30.0227 20.2928 29.446 20.2498 28.8823C20.1672 27.7967 20.0807 26.7101 20.04 25.6221C20.0013 24.5722 19.9804 23.519 20.0277 22.4703C20.0498 21.9808 20.0388 21.5115 19.972 21.0269C19.8879 20.4091 19.8669 19.7796 19.8646 19.1553C19.8641 18.9534 19.963 18.7122 20.0961 18.5564C20.5446 18.0312 21.1488 17.7607 21.8091 17.5699C22.2796 17.4339 22.6349 17.6964 23.0367 17.8049C23.1118 17.8252 23.1841 17.8548 23.2828 17.8888C24.4536 16.8562 25.7093 16.9009 26.9607 17.6651C27.114 17.5585 27.2175 17.4937 27.3128 17.4192C27.8949 16.9636 28.5366 16.8047 29.2585 17.0168C29.6275 17.1255 29.9942 17.2459 30.3684 17.3329C30.7838 17.4292 30.9667 17.7233 31.0817 18.0851C31.1229 18.2142 31.1343 18.3525 31.1588 18.4869C31.1856 18.4897 31.2125 18.493 31.2396 18.4963ZM28.428 26.8548C27.5515 27.3873 26.9126 28.1339 26.2343 28.8586C25.5416 29.599 25.243 30.5387 24.7237 31.372C24.508 30.6389 24.8381 30.0248 25.1785 29.4573C25.5286 28.874 25.9984 28.3618 26.4533 27.7704C26.3308 27.7534 26.2264 27.7297 26.1213 27.7255C25.3635 27.6929 24.7774 27.3684 24.4883 26.6616C24.3475 26.3178 24.1326 26.2727 23.8249 26.2842C23.4792 26.2972 23.1327 26.2868 22.7873 26.2852C21.8906 26.2809 21.2339 25.8399 20.774 25.1166C20.6456 24.9153 20.6152 24.6143 20.6361 24.3672C20.6692 23.9671 20.5862 23.6113 20.3836 23.175C20.3836 24.0478 20.3515 24.8328 20.3908 25.6146C20.4507 26.7829 20.5382 27.9513 20.6578 29.1149C20.736 29.8759 20.8637 30.6345 21.0206 31.3833C21.1569 32.035 21.3157 32.6903 21.5532 33.3105C21.8852 34.1755 22.1993 35.0738 22.6995 35.843C23.6979 37.3777 23.8363 39.0405 23.5738 40.744C23.2167 43.0578 22.7342 45.3524 22.296 47.6532C22.228 48.0102 22.0901 48.3534 22.0166 48.709C21.9215 49.1696 21.9969 49.3394 22.4004 49.4607C23.4687 49.7814 24.5427 50.0824 25.6196 50.3723C25.8503 50.4342 26.1032 50.4347 26.3451 50.43C27.5648 50.4037 28.7865 50.399 30.0032 50.3236C30.8487 50.2713 31.69 50.1687 32.4653 49.7376C33.0008 49.4392 33.3955 49.0202 33.7603 48.5617C33.8599 48.4359 33.8882 48.2174 33.8756 48.0476C33.8176 47.2424 33.7477 46.4382 33.6559 45.638C33.5275 44.5151 33.3746 43.3954 33.2334 42.2746C33.1149 41.3337 32.9437 40.3957 32.8943 39.4512C32.8377 38.3618 32.8639 37.2658 32.899 36.1743C32.9435 34.8333 33.6877 33.7792 34.4101 32.7212C34.8783 32.0355 35.3248 31.3353 35.7958 30.6517C36.3089 29.9076 36.6371 29.0799 36.901 28.2291C36.9935 27.931 36.9576 27.5938 36.9792 27.2743C36.9804 27.2552 36.9681 27.2358 36.9635 27.2161C36.575 25.2684 36.6425 25.5155 34.9163 24.2804C33.595 23.3346 32.1772 22.5332 30.7042 21.8361C30.0001 21.5027 29.2713 21.2204 28.4791 21.283C27.9781 21.3228 27.4707 21.4256 26.9935 21.5824C26.3577 21.791 25.7421 22.066 25.1296 22.337C24.0895 22.7971 23.0555 23.271 22.025 23.7522C21.7884 23.8626 21.5568 24.0031 21.3568 24.1705C20.9053 24.5488 20.9098 24.9326 21.3197 25.3668C21.6177 25.682 22.0052 25.838 22.4083 25.8534C23.6661 25.9014 24.9332 25.9731 26.1529 25.5552C26.4777 25.4443 26.7914 25.2968 27.0981 25.1419C27.4766 24.9511 27.5268 24.9485 27.7427 25.2693C27.9786 25.6207 28.1935 25.9875 28.4448 26.3277C29.3277 27.5254 30.3872 28.4538 31.9753 28.5512C32.2242 28.5663 32.2235 28.5753 32.4104 28.9504C30.6431 29.0308 29.5398 27.9525 28.428 26.8548ZM35.7925 24.493C35.7984 24.2707 35.8241 24.0423 35.8075 23.8172C35.6869 22.2289 35.5443 20.6417 35.4354 19.0527C35.3745 18.1667 35.3816 17.2764 35.3279 16.3901C35.257 15.2222 35.155 14.0562 35.069 12.8891C35.0568 12.7278 35.064 12.5649 35.0516 12.4038C34.975 11.4398 34.9154 10.4736 34.8091 9.51284C34.7273 8.77318 34.6048 8.03612 34.4598 7.30592C34.4065 7.03896 34.2777 6.7623 34.1088 6.54901C33.7719 6.12408 33.2921 6.19644 33.055 6.67551C32.7164 7.35984 32.6132 8.10706 32.5464 8.84814C32.409 10.375 32.3343 11.9073 32.2143 13.4355C32.1058 14.8214 31.9732 16.2055 31.8471 17.5897C31.8179 17.9113 31.7834 18.2334 31.7301 18.5517C31.6476 19.047 31.5875 19.5526 31.2591 19.9697C31.2101 20.0314 31.1595 20.1047 31.1476 20.179C31.0734 20.6328 31.0109 21.0887 30.9491 21.5108C32.5607 22.503 34.1452 23.4788 35.7925 24.493ZM22.8669 22.8141C23.3422 22.5859 23.3415 22.5266 23.2683 22.0106C23.1924 21.4739 23.1394 20.9314 23.1142 20.3899C23.0892 19.8449 23.113 19.2972 23.1106 18.7508C23.1083 18.1565 22.6672 17.7801 22.0908 17.9279C21.7213 18.0224 21.3492 18.1629 21.0225 18.3563C20.5115 18.6585 20.2291 19.0714 20.2512 19.7434C20.2947 21.0913 20.6823 22.357 20.945 23.6976C21.6521 23.3736 22.2646 23.1038 22.8669 22.8141ZM30.5068 21.3767C30.5893 20.8647 30.693 20.401 30.732 19.9324C30.7745 19.4088 30.7648 18.8799 30.7648 18.3533C30.7655 17.8465 30.6771 17.7072 30.1882 17.5609C29.8211 17.4507 29.4402 17.3646 29.0592 17.3244C28.1184 17.2256 27.2365 17.8668 27.0788 18.8035C26.9692 19.4556 26.9554 20.1239 26.9057 20.7855C26.9003 20.8565 26.9464 20.9309 26.9871 21.0631C28.1845 20.6344 29.3187 20.8773 30.5068 21.3767ZM26.4613 21.2204C26.5403 20.1059 26.6166 19.0286 26.7001 17.8553C26.041 17.4653 25.2882 17.349 24.4826 17.7037C24.4457 17.72 24.4129 17.7446 24.3777 17.7659C23.3705 18.3734 23.5465 18.1806 23.5536 19.1662C23.56 20.0721 23.614 20.9778 23.657 21.8829C23.6649 22.0364 23.7239 22.1875 23.7705 22.3887C24.7377 21.9688 25.6253 21.5831 26.4613 21.2204ZM24.8017 26.337C24.7705 26.7491 24.9688 27.0345 25.3424 27.1608C25.6218 27.2549 25.934 27.3133 26.2271 27.2972C26.7103 27.2708 26.9119 26.9525 26.823 26.4689C26.7907 26.2944 26.7593 26.1197 26.7276 25.947C26.0785 26.078 25.4518 26.205 24.8017 26.337ZM28.1664 26.4505C27.9479 26.126 27.752 25.8354 27.5615 25.5526C27.0513 25.7884 27.0427 25.8525 27.3549 27.0331C27.6476 26.8231 27.8858 26.6522 28.1664 26.4505Z" fill="var(--fill-0, black)"/>
</g>
</svg>
