<svg preserveAspectRatio="none" width="100%" height="100%" overflow="visible" style="display: block;" viewBox="0 0 20 20" fill="none" xmlns="http://www.w3.org/2000/svg">
<path id="Vector" d="M18.4102 0L18.417 0.5C18.5417 0.498275 18.6654 0.521298 18.7812 0.567383C18.8972 0.613531 19.0033 0.68253 19.0928 0.769531C19.182 0.856419 19.2535 0.959833 19.3027 1.07422C19.352 1.18868 19.3781 1.31192 19.3799 1.43652V18.5703C19.3773 18.6926 19.3511 18.8133 19.3027 18.9258C19.2534 19.0404 19.1822 19.1444 19.0928 19.2314C19.0033 19.3184 18.8972 19.3865 18.7812 19.4326C18.6654 19.4787 18.5417 19.5017 18.417 19.5H1.46289C1.33819 19.5017 1.2145 19.4787 1.09863 19.4326C0.982711 19.3865 0.876545 19.3184 0.787109 19.2314C0.697704 19.1445 0.626464 19.0404 0.577148 18.9258C0.540151 18.8398 0.516264 18.7489 0.505859 18.6563L0.5 18.5635V1.43652C0.501768 1.31192 0.527882 1.18868 0.577148 1.07422C0.626398 0.95984 0.697902 0.856417 0.787109 0.769531C0.876544 0.68253 0.98271 0.613531 1.09863 0.567383C1.21447 0.521286 1.33823 0.498291 1.46289 0.5H18.4102V0ZM2.53027 17.2402H6.53027V7.24023H2.53027V17.2402ZM4.49414 2.86133C3.96078 2.87061 3.4511 3.08601 3.07324 3.46387C2.68712 3.85012 2.46978 4.37377 2.46973 4.91992C2.46973 5.46627 2.68692 5.99063 3.07324 6.37695C3.45956 6.76326 3.98394 6.98047 4.53027 6.98047V6.97949C4.8014 7.00275 5.0743 6.97514 5.33398 6.89258C5.61178 6.8042 5.8685 6.65804 6.08594 6.46387C6.30326 6.26974 6.47761 6.03159 6.59668 5.76563C6.71567 5.49968 6.77734 5.21128 6.77734 4.91992C6.77731 4.62851 6.71574 4.3402 6.59668 4.07422C6.47757 3.80816 6.30336 3.57014 6.08594 3.37598C5.8685 3.1818 5.61178 3.03564 5.33398 2.94727C5.06287 2.86109 4.77697 2.8321 4.49414 2.86133ZM11.1904 11.7178L11.1895 11.7061C11.1805 11.5233 11.2049 11.3399 11.2617 11.166C11.3418 10.9465 11.4869 10.7561 11.6777 10.6211C11.8692 10.4857 12.0976 10.4122 12.332 10.4102C12.7378 10.4106 12.9525 10.5481 13.0889 10.7432C13.2476 10.9704 13.3496 11.3497 13.3496 11.9102V17.2402H17.3496V11.5605C17.3496 10.092 16.9654 8.94087 16.2441 8.15332C15.522 7.36488 14.5204 7.00367 13.417 7H13.1807C12.6261 7.01721 12.0822 7.16582 11.5947 7.43555C11.4538 7.51357 11.3185 7.60132 11.1904 7.69727V7.23047H7.19043V17.2305H11.1904V11.7178Z" fill="var(--fill-0, #01959F)" stroke="var(--stroke-0, #01959F)"/>
</svg>
