<svg preserveAspectRatio="none" width="100%" height="100%" overflow="visible" style="display: block;" viewBox="0 0 26 16" fill="none" xmlns="http://www.w3.org/2000/svg">
<g id="Group">
<path id="Vector" d="M5.24166 7.46687L9.39695 3.53432C10.1776 2.78763 10.2028 1.56804 9.44731 0.796468C8.5407 -0.149335 7.02969 -0.174224 6.07271 0.721799L0.809346 5.7246C0.784162 5.74949 0.784162 5.77438 0.758979 5.77438C0.733795 5.79927 0.683428 5.82416 0.658244 5.84905C-0.197998 6.6704 -0.223181 8.03933 0.607877 8.88557L0.758979 9.03491L5.97198 14.3862C6.80304 15.2324 8.18813 15.2573 9.04438 14.4359C9.90062 13.6146 9.9258 12.2457 9.09474 11.3994L5.24166 7.46687Z" fill="var(--fill-0, #00A9AD)"/>
<path id="Vector_2" d="M17.0275 0.0995541L17.4305 0.224002C18.463 0.547566 19.0422 1.61782 18.74 2.63829L15.3906 13.4652C15.0129 14.7097 13.6781 15.4066 12.4189 15.0333C11.3864 14.7097 10.8072 13.6395 11.1094 12.619L14.5595 1.4187C14.8869 0.373339 15.995 -0.22401 17.0275 0.0995541Z" fill="var(--fill-0, #00A9AD)"/>
<g id="Group_2">
<path id="Vector_3" d="M23.122 2.88546e-08C23.0968 2.88546e-08 23.0968 2.88546e-08 23.0716 2.88546e-08H19.2437C19.3948 2.88546e-08 19.8733 0.124448 20.2511 0.746686C20.5281 1.31915 20.4525 1.99116 20.4273 2.04094C20.4273 2.06583 20.4273 2.06583 20.4273 2.06583C20.377 2.26495 20.3518 2.48895 20.3518 2.71296C20.3518 4.20633 21.5858 5.42592 23.0968 5.42592C24.6078 5.42592 25.8418 4.20633 25.8418 2.71296C25.8418 1.21959 24.633 2.88546e-08 23.122 2.88546e-08Z" fill="var(--fill-0, #FDC039)"/>
<path id="Vector_4" d="M18.3875 0.0746704H18.4113C18.3875 0.0746704 18.3875 0.0746704 18.3875 0.0746704Z" fill="var(--fill-0, #FFC234)"/>
</g>
</g>
</svg>
