<svg preserveAspectRatio="none" width="100%" height="100%" overflow="visible" style="display: block;" viewBox="0 0 26 16" fill="none" xmlns="http://www.w3.org/2000/svg">
<g id="Group">
<path id="Vector" d="M5.24165 7.46687L9.39694 3.53432C10.1776 2.78763 10.2028 1.56804 9.44731 0.796468C8.5407 -0.149335 7.02968 -0.174224 6.07271 0.721799L0.80934 5.7246C0.784156 5.74949 0.784156 5.77438 0.758973 5.77438C0.733789 5.79927 0.683422 5.82416 0.658238 5.84905C-0.198004 6.6704 -0.223187 8.03933 0.607871 8.88557L0.758973 9.03491L5.97197 14.3862C6.80303 15.2324 8.18813 15.2573 9.04437 14.4359C9.90061 13.6146 9.9258 12.2457 9.09474 11.3994L5.24165 7.46687Z" fill="var(--fill-0, #00A9AD)"/>
<path id="Vector_2" d="M17.0275 0.0995541L17.4304 0.224002C18.4629 0.547566 19.0422 1.61782 18.74 2.63829L15.3905 13.4652C15.0128 14.7097 13.678 15.4066 12.4189 15.0333C11.3863 14.7097 10.8071 13.6395 11.1093 12.619L14.5595 1.4187C14.8869 0.373339 15.9949 -0.22401 17.0275 0.0995541Z" fill="var(--fill-0, #00A9AD)"/>
<g id="Group_2">
<path id="Vector_3" d="M23.1221 2.88546e-08C23.0969 2.88546e-08 23.0969 2.88546e-08 23.0717 2.88546e-08H19.2438C19.3949 2.88546e-08 19.8734 0.124448 20.2511 0.746686C20.5282 1.31915 20.4526 1.99116 20.4274 2.04094C20.4274 2.06583 20.4274 2.06583 20.4274 2.06583C20.3771 2.26495 20.3519 2.48895 20.3519 2.71296C20.3519 4.20633 21.5859 5.42592 23.0969 5.42592C24.6079 5.42592 25.8419 4.20633 25.8419 2.71296C25.8419 1.21959 24.6331 2.88546e-08 23.1221 2.88546e-08Z" fill="var(--fill-0, #FDC039)"/>
<path id="Vector_4" d="M18.3876 0.0746704H18.4114C18.3876 0.0746704 18.3876 0.0746704 18.3876 0.0746704Z" fill="var(--fill-0, #FFC234)"/>
</g>
</g>
</svg>
