<svg preserveAspectRatio="none" width="100%" height="100%" overflow="visible" style="display: block;" viewBox="0 0 25 30" fill="none" xmlns="http://www.w3.org/2000/svg">
<path id="Change Color" fill-rule="evenodd" clip-rule="evenodd" d="M12.3183 0C12.3183 0 2.77288 5.24471 0.142826 16.2857C-0.26484 17.4438 0.224495 18.7264 1.30084 19.3209C1.30084 19.3209 2.77288 20.1499 3.80986 18.3418C3.80986 18.3418 2.07938 21.0343 3.94725 22.7608C3.94725 22.7608 5.60575 24.001 7.47362 21.8633C7.47362 21.8633 4.98422 25.4533 7.54558 27.0395C7.54558 27.0395 9.0667 27.7967 10.2411 25.9331C10.2411 25.9331 9.0667 28.544 10.7939 29.3175C10.7939 29.3175 12.629 30.6817 14.2025 27.6596C14.2025 27.6596 16.6755 23.1753 20.4178 21.3803C20.4178 21.3803 21.8146 20.5513 24.6344 19.0337L18.5728 9.7387L12.3183 0Z" fill="var(--fill-0, #FFDEB7)"/>
</svg>
