<svg preserveAspectRatio="none" width="100%" height="100%" overflow="visible" style="display: block;" viewBox="0 0 33 16" fill="none" xmlns="http://www.w3.org/2000/svg">
<g id="Shape" style="mix-blend-mode:screen" opacity="0.2">
<path fill-rule="evenodd" clip-rule="evenodd" d="M3.4435 14.8938L3.34677 15.3967V15.3967L3.29928 15.2895V15.2895L3.23053 15.144V15.144L3.15973 15.0021V15.0021L3.10356 14.894V14.894L3.0061 14.7148V14.7148L2.93247 14.5857V14.5857L2.85204 14.4502V14.4502L2.76491 14.3095V14.3095L2.67117 14.1649C2.65501 14.1405 2.63857 14.116 2.62186 14.0915L2.51842 13.9431C2.05633 13.2974 1.41548 12.6241 0.633066 12.3606L0.540498 12.3316L0.476223 12.0573C0.24749 11.0529 0.0886014 10.0356 0 9.01266C0.695754 9.44042 1.57734 9.43087 2.47364 9.32371L2.71832 9.29232C2.75912 9.28677 2.79992 9.28109 2.8407 9.27529L3.20679 9.22115V9.22115L3.56932 9.16646V9.16646L3.80774 9.13224V9.13224L3.92568 9.11638C4.25828 9.07311 4.59598 9.02475 4.93706 8.97044L4.83828 9.27776V9.27776L4.73898 9.59674V9.59674L4.63925 9.92758V9.92758L4.5392 10.2705V10.2705L4.43891 10.6256V10.6256L4.33847 10.9932V10.9932L4.23798 11.3734C4.22124 11.4378 4.20449 11.5028 4.18775 11.5683L4.08736 11.9679C4.07064 12.0356 4.05393 12.1038 4.03723 12.1726L3.93716 12.5919V12.5919L3.8374 13.0246C3.82081 13.0979 3.80423 13.1717 3.78768 13.2461L3.68858 13.6994C3.67211 13.7761 3.65566 13.8533 3.63924 13.9312L3.54102 14.4054V14.4054L3.4435 14.8938V14.8938ZM28.9533 0L29.0408 0.0626404V0.0626404L29.1259 0.127304V0.127304L29.2768 0.247735V0.247735L29.4142 0.363256V0.363256L29.5157 0.45207V0.45207L29.6243 0.550202V0.550202L29.7388 0.657545C29.7584 0.676198 29.7782 0.69523 29.7982 0.714639L29.9203 0.835602V0.835602L30.0463 0.965513V0.965513L30.1754 1.10427V1.10427L30.3067 1.25176C31.8485 3.02303 33.6662 6.55649 29.6073 11.0976L26.6088 4.76233C27.9113 3.66025 28.9826 2.11017 28.9533 0Z" fill="var(--fill-0, white)"/>
</g>
</svg>
