<svg preserveAspectRatio="none" width="100%" height="100%" overflow="visible" style="display: block;" viewBox="0 0 56 10" fill="none" xmlns="http://www.w3.org/2000/svg">
<g id="Group">
<path id="Vector" d="M0.226653 7.74065C0.176286 7.74065 0.125919 7.71576 0.0755517 7.66598C0.0251844 7.6162 0 7.56642 0 7.49176C0 7.46687 -3.84647e-07 7.44198 0.0251833 7.3922L2.66947 0.398235C2.69465 0.323567 2.74502 0.273787 2.79538 0.199118C2.84575 0.149339 2.94649 0.124453 3.04722 0.124453H4.25604C4.35677 0.124453 4.45751 0.149339 4.50787 0.199118C4.55824 0.248897 4.60861 0.323567 4.63379 0.398235L7.27807 7.3922C7.27807 7.41709 7.27807 7.46687 7.27807 7.49176C7.27807 7.56642 7.25289 7.6162 7.20252 7.66598C7.15215 7.71576 7.10179 7.74065 7.05142 7.74065H6.09444C5.99371 7.74065 5.91815 7.71576 5.86779 7.66598C5.81742 7.6162 5.79224 7.56642 5.76705 7.54153L5.26338 6.22239H1.98951L1.48584 7.54153C1.46065 7.59131 1.43547 7.64109 1.3851 7.66598C1.33473 7.71576 1.25918 7.74065 1.15845 7.74065H0.226653ZM2.39245 4.95302H4.88563L3.62644 1.59293L2.39245 4.95302Z" fill="var(--fill-0, #585959)"/>
<path id="Vector_2" d="M11.6852 7.84021C11.1564 7.84021 10.7031 7.74065 10.3001 7.54153C9.89721 7.34242 9.59501 7.06864 9.36835 6.69529C9.1417 6.32195 9.01578 5.87394 8.9906 5.35126C8.9906 5.2517 8.9906 5.10236 8.9906 4.92814C8.9906 4.75391 8.9906 4.60458 8.9906 4.48013C9.01578 3.95745 9.1417 3.50943 9.36835 3.13609C9.59501 2.76275 9.89721 2.48897 10.3001 2.28985C10.7031 2.09073 11.1564 1.99118 11.6852 1.99118C12.1637 1.99118 12.5415 2.06584 12.8941 2.19029C13.2214 2.31474 13.4985 2.48896 13.6999 2.68808C13.9014 2.8872 14.0777 3.08631 14.1784 3.31032C14.2792 3.53432 14.3295 3.70855 14.3547 3.88278C14.3547 3.95745 14.3295 4.03211 14.2792 4.08189C14.2288 4.13167 14.1532 4.15656 14.0777 4.15656H13.1207C13.0452 4.15656 12.9948 4.13167 12.9444 4.10679C12.8941 4.0819 12.8689 4.00722 12.8185 3.93256C12.7178 3.63388 12.5667 3.43477 12.3904 3.31032C12.2141 3.18587 11.9874 3.13609 11.7104 3.13609C11.3327 3.13609 11.0557 3.26054 10.829 3.48455C10.6024 3.70855 10.5016 4.08189 10.4764 4.55479C10.4512 4.82858 10.4512 5.07747 10.4764 5.32637C10.5016 5.82416 10.6024 6.1975 10.829 6.42151C11.0557 6.64551 11.3327 6.76996 11.7104 6.76996C11.9874 6.76996 12.2141 6.72018 12.3904 6.59574C12.5667 6.47129 12.7178 6.27217 12.8185 5.9735C12.8437 5.89883 12.8941 5.84905 12.9444 5.79927C12.9948 5.77438 13.0452 5.74949 13.1207 5.74949H14.0777C14.1532 5.74949 14.2036 5.77438 14.2792 5.82416C14.3295 5.87394 14.3547 5.92372 14.3547 6.02328C14.3547 6.14772 14.3043 6.29706 14.254 6.47129C14.2036 6.64552 14.1029 6.79485 13.9518 6.96908C13.8258 7.14331 13.6496 7.29264 13.4481 7.44198C13.2466 7.59132 12.9948 7.69087 12.7178 7.79043C12.3904 7.79043 12.063 7.84021 11.6852 7.84021Z" fill="var(--fill-0, #585959)"/>
<path id="Vector_3" d="M18.2329 7.84021C17.8552 7.84021 17.5026 7.76553 17.2004 7.6162C16.8982 7.46686 16.6463 7.26775 16.4701 7.01885C16.2938 6.76995 16.193 6.49617 16.193 6.1726C16.193 5.67481 16.3945 5.25169 16.8226 4.95302C17.2508 4.65434 17.7796 4.45523 18.4596 4.35567L19.9706 4.13166V3.90766C19.9706 3.60898 19.895 3.36009 19.7439 3.21075C19.5928 3.03652 19.3158 2.96186 18.9632 2.96186C18.7114 2.96186 18.4847 3.01164 18.3085 3.11119C18.1322 3.21075 18.0314 3.36009 17.9307 3.53432C17.8803 3.63387 17.7796 3.68365 17.6789 3.68365H16.8226C16.7471 3.68365 16.6715 3.65876 16.6463 3.60898C16.596 3.55921 16.596 3.50942 16.596 3.43476C16.596 3.31031 16.6463 3.18586 16.7471 3.01163C16.8478 2.83741 16.9737 2.68807 17.1752 2.53873C17.3515 2.3894 17.6033 2.24006 17.9055 2.1405C18.2077 2.04094 18.5603 1.96627 18.9884 1.96627C19.4417 1.96627 19.8447 2.01605 20.1469 2.1405C20.4743 2.26495 20.7261 2.41429 20.9024 2.58851C21.1038 2.78763 21.2298 2.98674 21.3305 3.26053C21.406 3.50942 21.4564 3.78321 21.4564 4.05699V7.46686C21.4564 7.54153 21.4312 7.59131 21.3809 7.64109C21.3305 7.69087 21.2549 7.71576 21.2046 7.71576H20.3231C20.2476 7.71576 20.172 7.69087 20.1217 7.64109C20.0713 7.59131 20.0461 7.51664 20.0461 7.46686V7.04374C19.9454 7.16819 19.8195 7.29263 19.6684 7.41708C19.5173 7.54153 19.3158 7.64109 19.0892 7.71576C18.8121 7.79043 18.5603 7.84021 18.2329 7.84021ZM18.6107 6.81973C18.8625 6.81973 19.0892 6.76995 19.3158 6.64551C19.5173 6.54595 19.6936 6.37172 19.8195 6.14772C19.9454 5.92371 19.9958 5.62504 19.9958 5.27658V5.05257L18.8877 5.2268C18.4596 5.30147 18.1322 5.40103 17.9307 5.55037C17.7292 5.6997 17.6033 5.87393 17.6033 6.07305C17.6033 6.22238 17.6537 6.37172 17.7544 6.47128C17.8552 6.59573 17.9811 6.6704 18.1322 6.72018C18.2833 6.76996 18.4344 6.81973 18.6107 6.81973Z" fill="var(--fill-0, #585959)"/>
<path id="Vector_4" d="M26.0651 7.84021C25.6873 7.84021 25.36 7.76554 25.0578 7.64109C24.7807 7.51664 24.5289 7.34242 24.3274 7.09352C24.126 6.86952 24 6.59573 23.8993 6.27217C23.7986 5.9486 23.7482 5.60015 23.723 5.22681C23.723 5.10236 23.723 4.97791 23.723 4.87835C23.723 4.77879 23.723 4.65435 23.723 4.5299C23.7482 4.15656 23.7986 3.83299 23.8993 3.50943C24 3.21075 24.1511 2.93697 24.3274 2.68807C24.5289 2.46406 24.7556 2.26495 25.0578 2.1405C25.3348 2.01605 25.6873 1.94138 26.0651 1.94138C26.468 1.94138 26.7954 2.01605 27.0724 2.1405C27.3495 2.26495 27.5761 2.43918 27.7524 2.66318V0.248897C27.7524 0.174229 27.7776 0.124447 27.828 0.0746676C27.8783 0.0248885 27.9287 1.97461e-06 28.0294 1.97461e-06H28.9612C29.0368 1.97461e-06 29.0871 0.0248885 29.1375 0.0746676C29.1879 0.124447 29.2131 0.199118 29.2131 0.248897V7.44197C29.2131 7.51664 29.1879 7.56642 29.1375 7.6162C29.0871 7.66598 29.0116 7.69087 28.9612 7.69087H28.105C28.0294 7.69087 27.9539 7.66598 27.9035 7.6162C27.8531 7.56642 27.828 7.49175 27.828 7.44197V7.06863C27.6517 7.29264 27.3998 7.46686 27.1228 7.6162C26.8458 7.76554 26.4932 7.84021 26.0651 7.84021ZM26.468 6.6704C26.7702 6.6704 27.0221 6.59573 27.1984 6.47128C27.3746 6.32195 27.5257 6.14772 27.6013 5.9486C27.6768 5.7246 27.7272 5.52548 27.7524 5.30147C27.7524 5.17702 27.7524 5.02769 27.7524 4.87835C27.7524 4.72901 27.7524 4.57968 27.7524 4.45523C27.7524 4.23122 27.702 4.03211 27.6013 3.83299C27.5006 3.63387 27.3746 3.45965 27.1732 3.3352C26.9969 3.21075 26.7451 3.13608 26.468 3.13608C26.1658 3.13608 25.914 3.21075 25.7377 3.3352C25.5614 3.45965 25.4355 3.63388 25.36 3.85788C25.2844 4.08189 25.234 4.30589 25.2089 4.57968C25.2089 4.80368 25.2089 5.0028 25.2089 5.22681C25.234 5.4757 25.2592 5.7246 25.36 5.9486C25.4355 6.17261 25.5614 6.34684 25.7377 6.47128C25.914 6.62062 26.1658 6.6704 26.468 6.6704Z" fill="var(--fill-0, #585959)"/>
<path id="Vector_5" d="M34.2244 7.84021C33.4185 7.84021 32.7637 7.6162 32.2852 7.1433C31.8067 6.6704 31.5549 6.02327 31.5045 5.17702C31.5045 5.10235 31.5045 5.0028 31.5045 4.90324C31.5045 4.77879 31.5045 4.70412 31.5045 4.62945C31.5297 4.08188 31.6556 3.60898 31.8823 3.21075C32.1089 2.81252 32.4111 2.51384 32.8141 2.28984C33.217 2.06583 33.6703 1.96627 34.1992 1.96627C34.8036 1.96627 35.2821 2.09072 35.685 2.33962C36.088 2.58851 36.3902 2.91208 36.5916 3.36009C36.7931 3.78321 36.8938 4.281 36.8938 4.85346V5.07747C36.8938 5.15213 36.8686 5.20191 36.8183 5.25169C36.7679 5.30147 36.6924 5.32636 36.6168 5.32636H32.9652C32.9652 5.37614 32.9652 5.40103 32.9652 5.40103C32.9652 5.64993 33.0155 5.89882 33.1163 6.09794C33.217 6.32194 33.3429 6.47128 33.5192 6.62062C33.6955 6.74506 33.9222 6.81973 34.174 6.81973C34.3755 6.81973 34.5517 6.79485 34.6777 6.72018C34.8288 6.6704 34.9295 6.59573 35.0302 6.49617C35.1058 6.4215 35.1813 6.34683 35.2065 6.29705C35.2821 6.22238 35.3324 6.14772 35.3576 6.14772C35.408 6.12283 35.4584 6.12283 35.5339 6.12283H36.4909C36.5664 6.12283 36.6168 6.14772 36.6672 6.19749C36.7176 6.24727 36.7427 6.29705 36.7175 6.37172C36.7175 6.49617 36.642 6.62062 36.5413 6.79484C36.4153 6.96907 36.2642 7.11841 36.0628 7.29263C35.8613 7.44197 35.5843 7.59131 35.2569 7.69087C35.0051 7.79043 34.6525 7.84021 34.2244 7.84021ZM33.0407 4.43034H35.4584V4.40545C35.4584 4.13166 35.408 3.88277 35.3073 3.65876C35.2065 3.43476 35.0806 3.28542 34.8791 3.16097C34.7029 3.03652 34.4762 2.98675 34.2244 2.98675C33.9725 2.98675 33.7459 3.03652 33.5696 3.16097C33.3933 3.28542 33.2422 3.43476 33.1666 3.65876C33.0659 3.88277 33.0407 4.13166 33.0407 4.40545V4.43034Z" fill="var(--fill-0, #585959)"/>
<path id="Vector_6" d="M39.4878 7.74065C39.4123 7.74065 39.3619 7.71576 39.3115 7.66598C39.2612 7.6162 39.236 7.54153 39.236 7.49175V2.33962C39.236 2.26495 39.2612 2.21517 39.3115 2.16539C39.3619 2.11561 39.4375 2.09072 39.4878 2.09072H40.3441C40.4196 2.09072 40.47 2.11561 40.5204 2.16539C40.5707 2.21517 40.5959 2.28984 40.5959 2.33962V2.71296C40.747 2.51385 40.9485 2.33962 41.2255 2.19028C41.4773 2.04094 41.8047 1.96628 42.1573 1.96628C42.9883 1.94139 43.5676 2.26495 43.895 2.93697C44.0712 2.63829 44.2979 2.41429 44.6253 2.24006C44.9527 2.06584 45.3052 1.96628 45.683 1.96628C46.0607 1.96628 46.4133 2.04095 46.7155 2.21517C47.0177 2.3894 47.2696 2.66318 47.4458 3.01164C47.6221 3.36009 47.7229 3.8081 47.7229 4.33078V7.44197C47.7229 7.51664 47.6977 7.56642 47.6473 7.6162C47.5969 7.66598 47.5214 7.69087 47.471 7.69087H46.5644C46.4889 7.69087 46.4385 7.66598 46.3881 7.6162C46.3378 7.56642 46.3126 7.49175 46.3126 7.44197V4.40545C46.3126 4.08189 46.2622 3.83299 46.1615 3.63387C46.0607 3.43476 45.9348 3.31031 45.7837 3.23564C45.6326 3.16098 45.4312 3.1112 45.2549 3.1112C45.1038 3.1112 44.9275 3.16098 44.7764 3.23564C44.6253 3.31031 44.4742 3.45965 44.3734 3.63387C44.2727 3.83299 44.2223 4.08189 44.2223 4.40545V7.44197C44.2223 7.51664 44.1972 7.56642 44.1468 7.6162C44.0964 7.66598 44.0209 7.69087 43.9705 7.69087H43.0387C42.9632 7.69087 42.9128 7.66598 42.8624 7.6162C42.8121 7.56642 42.7869 7.49175 42.7869 7.44197V4.40545C42.7869 4.08189 42.7365 3.83299 42.6358 3.63387C42.535 3.43476 42.4091 3.31031 42.2328 3.23564C42.0817 3.16098 41.9054 3.1112 41.7292 3.1112C41.5529 3.1112 41.4018 3.16098 41.2255 3.23564C41.0744 3.31031 40.9233 3.45965 40.8226 3.63387C40.7218 3.83299 40.6715 4.08189 40.6715 4.40545V7.44197C40.6715 7.51664 40.6463 7.56642 40.5959 7.6162C40.5455 7.66598 40.47 7.69087 40.4196 7.69087H39.4878V7.74065Z" fill="var(--fill-0, #585959)"/>
<path id="Vector_7" d="M51.0725 9.78159C51.0221 9.78159 50.9717 9.7567 50.9214 9.70693C50.871 9.65715 50.8458 9.60737 50.8458 9.55759C50.8458 9.5327 50.8458 9.50781 50.8458 9.48292C50.8458 9.45803 50.871 9.43314 50.8962 9.38336L51.7524 7.36731L49.637 2.43917C49.6118 2.36451 49.5866 2.31473 49.5866 2.28984C49.5866 2.21517 49.6118 2.16539 49.6622 2.11561C49.7125 2.06583 49.7629 2.04094 49.8385 2.04094H50.7199C50.7954 2.04094 50.871 2.06583 50.9214 2.11561C50.9717 2.16539 50.9969 2.21517 51.0221 2.26495L52.4827 5.82415L53.9938 2.26495C54.019 2.21517 54.0441 2.16539 54.0945 2.11561C54.1449 2.06583 54.1952 2.06583 54.296 2.06583H55.1774C55.2278 2.06583 55.2781 2.09072 55.3285 2.1405C55.3789 2.19028 55.4041 2.24006 55.4041 2.28984C55.4041 2.33962 55.3789 2.3894 55.3537 2.46407L52.2561 9.58248C52.2309 9.63226 52.1805 9.68203 52.1554 9.73181C52.105 9.78159 52.0546 9.78159 51.9539 9.78159H51.0725V9.78159Z" fill="var(--fill-0, #585959)"/>
</g>
</svg>
