<svg preserveAspectRatio="none" width="100%" height="100%" overflow="visible" style="display: block;" viewBox="0 0 27 16" fill="none" xmlns="http://www.w3.org/2000/svg">
<g id="Group">
<path id="Vector" d="M5.33202 7.46687L9.55896 3.53432C10.3531 2.78763 10.3787 1.56804 9.61019 0.796468C8.68795 -0.149334 7.15089 -0.174224 6.17741 0.7218L0.823294 5.7246C0.797676 5.74949 0.797676 5.77438 0.772059 5.77438C0.746441 5.79927 0.695205 5.82416 0.669587 5.84905C-0.201418 6.6704 -0.227035 8.03933 0.618352 8.88557L0.772059 9.03491L6.07494 14.3862C6.92033 15.2324 8.3293 15.2573 9.20031 14.4359C10.0713 13.6146 10.0969 12.2457 9.25154 11.3994L5.33202 7.46687Z" fill="var(--fill-0, #00A9AD)"/>
<path id="Vector_2" d="M17.3211 0.0995585L17.731 0.224006C18.7813 0.54757 19.3706 1.61782 19.0631 2.63829L15.656 13.4652C15.2717 14.7097 13.914 15.4066 12.6331 15.0333C11.5827 14.7097 10.9935 13.6395 11.3009 12.619L14.8106 1.4187C15.1436 0.373344 16.2708 -0.224006 17.3211 0.0995585Z" fill="var(--fill-0, #00A9AD)"/>
<g id="Group_2">
<path id="Vector_3" d="M23.5206 0C23.495 0 23.495 0 23.4694 0H19.5755C19.7292 0 20.2159 0.124448 20.6002 0.746686C20.882 1.31915 20.8051 1.99116 20.7795 2.04094C20.7795 2.06583 20.7795 2.06583 20.7795 2.06583C20.7283 2.26495 20.7027 2.48895 20.7027 2.71296C20.7027 4.20633 21.9579 5.42592 23.495 5.42592C25.0321 5.42592 26.2874 4.20633 26.2874 2.71296C26.2874 1.21959 25.0577 0 23.5206 0Z" fill="var(--fill-0, #FDC039)"/>
<path id="Vector_4" d="M18.7045 0.0746685H18.7288C18.7045 0.0746685 18.7045 0.0746685 18.7045 0.0746685Z" fill="var(--fill-0, #FFC234)"/>
</g>
</g>
</svg>
