<svg preserveAspectRatio="none" width="100%" height="100%" overflow="visible" style="display: block;" viewBox="0 0 91 15" fill="none" xmlns="http://www.w3.org/2000/svg">
<g id="Group">
<path id="Vector" d="M0.503675 14.6102C0.352574 14.6102 0.226655 14.5604 0.151105 14.4608C0.0503702 14.3613 3.41692e-06 14.2368 3.41692e-06 14.1124V1.1947C3.41692e-06 1.04537 0.0503702 0.92092 0.151105 0.846251C0.251839 0.746693 0.352574 0.696913 0.503675 0.696913H5.96852C7.70618 0.696913 9.0661 1.09515 10.0734 1.86672C11.0556 2.66319 11.5593 3.75833 11.5593 5.20192C11.5593 6.14773 11.3326 6.94419 10.8793 7.59132C10.426 8.23845 9.82161 8.73624 9.0661 9.0598L11.8111 13.9382C11.8615 14.0128 11.8615 14.0875 11.8615 14.1622C11.8615 14.2617 11.8111 14.3613 11.7356 14.4608C11.66 14.5355 11.5593 14.5853 11.4334 14.5853H8.7639C8.51206 14.5853 8.31059 14.5106 8.20985 14.3862C8.08394 14.2617 8.00839 14.1373 7.95802 14.0377L5.66631 9.68204H3.62644V14.0875C3.62644 14.2119 3.57608 14.3364 3.47534 14.436C3.37461 14.5355 3.24869 14.5853 3.09759 14.5853H0.503675V14.6102ZM3.60126 6.86952H5.91815C6.54774 6.86952 7.02623 6.72019 7.32843 6.42151C7.63063 6.12284 7.80692 5.69971 7.80692 5.20192C7.80692 4.67924 7.65582 4.28101 7.35361 3.95745C7.05141 3.63388 6.57292 3.48454 5.91815 3.48454H3.60126V6.86952Z" fill="var(--fill-0, #585959)"/>
<path id="Vector_2" d="M17.7796 14.8093C17.0493 14.8093 16.4197 14.6848 15.8405 14.4111C15.2612 14.1373 14.8079 13.7639 14.4806 13.3159C14.1532 12.843 13.9769 12.3203 13.9769 11.7479C13.9769 10.8021 14.3546 10.0554 15.1353 9.50781C15.916 8.96024 16.9485 8.5869 18.2329 8.38778L20.7513 8.01444V7.74065C20.7513 7.26775 20.6505 6.89441 20.4491 6.64551C20.2476 6.39662 19.8698 6.27217 19.341 6.27217C18.9632 6.27217 18.661 6.34684 18.4344 6.49617C18.2077 6.64551 18.0063 6.84463 17.8803 7.09352C17.7544 7.26775 17.6033 7.34242 17.3767 7.34242H15.1353C14.9842 7.34242 14.8835 7.29264 14.7828 7.21797C14.7072 7.1433 14.6568 7.01885 14.682 6.9193C14.682 6.6704 14.7828 6.39662 14.959 6.09794C15.1353 5.79927 15.4123 5.4757 15.7901 5.17703C16.1679 4.87835 16.6463 4.62946 17.2256 4.43034C17.8048 4.23122 18.5351 4.13167 19.3662 4.13167C20.2224 4.13167 20.9527 4.23122 21.5823 4.43034C22.1867 4.62946 22.6904 4.90324 23.0933 5.2517C23.4711 5.60015 23.7733 6.02327 23.9496 6.52106C24.1259 6.99397 24.2266 7.54154 24.2266 8.114V14.1373C24.2266 14.2617 24.1762 14.3862 24.0755 14.4857C23.9748 14.5853 23.8489 14.6351 23.7229 14.6351H21.406C21.2549 14.6351 21.129 14.5853 21.0535 14.4857C20.9527 14.3862 20.9024 14.2617 20.9024 14.1373V13.4404C20.7261 13.6893 20.4994 13.9133 20.1972 14.1373C19.895 14.3613 19.5676 14.5106 19.1647 14.6351C18.7618 14.7346 18.3085 14.8093 17.7796 14.8093ZM18.7366 12.5443C19.1143 12.5443 19.4669 12.4697 19.7943 12.2954C20.0965 12.1212 20.3483 11.8723 20.5498 11.5239C20.7261 11.1754 20.8268 10.7274 20.8268 10.2047V9.93093L19.1143 10.2296C18.4847 10.3292 18.0314 10.5034 17.7292 10.7274C17.4522 10.9514 17.3011 11.2003 17.3011 11.499C17.3011 11.723 17.3767 11.9221 17.5026 12.0714C17.6285 12.2208 17.8048 12.3452 18.0314 12.4448C18.2329 12.4946 18.4847 12.5443 18.7366 12.5443Z" fill="var(--fill-0, #585959)"/>
<path id="Vector_3" d="M28.0042 14.6102C27.8531 14.6102 27.7272 14.5604 27.6516 14.4608C27.5509 14.3613 27.5005 14.2368 27.5005 14.1124V0.995596C27.5005 0.846258 27.5509 0.721811 27.6516 0.647142C27.7524 0.547584 27.8531 0.497804 28.0042 0.497804H30.3211C30.447 0.497804 30.5729 0.547584 30.6737 0.647142C30.7744 0.746701 30.8248 0.871148 30.8248 0.995596V7.64111L33.6201 4.60458C33.6957 4.50502 33.7964 4.43036 33.872 4.35569C33.9727 4.28102 34.0986 4.25613 34.2749 4.25613H36.9696C37.0955 4.25613 37.1962 4.30591 37.2718 4.38058C37.3473 4.45524 37.3977 4.57969 37.3977 4.67925C37.3977 4.72903 37.3977 4.8037 37.3725 4.85348C37.3473 4.92815 37.2969 4.97793 37.2466 5.00281L33.6201 8.8607L37.7251 13.8137C37.8258 13.9133 37.8762 14.0128 37.8762 14.1124C37.8762 14.2368 37.8258 14.3613 37.7502 14.436C37.6747 14.5106 37.5488 14.5604 37.4229 14.5604H34.6778C34.4764 14.5604 34.3253 14.5355 34.2245 14.4608C34.1238 14.3862 34.0483 14.3115 33.9727 14.2368L30.8499 10.5034V14.1124C30.8499 14.2368 30.7996 14.3613 30.6988 14.4608C30.5981 14.5604 30.4722 14.6102 30.3463 14.6102H28.0042Z" fill="var(--fill-0, #585959)"/>
<path id="Vector_4" d="M43.1647 14.8093C42.4343 14.8093 41.8047 14.6848 41.2255 14.4111C40.6463 14.1373 40.193 13.7639 39.8656 13.3159C39.5382 12.843 39.3619 12.3203 39.3619 11.7479C39.3619 10.8021 39.7397 10.0554 40.5204 9.50781C41.3011 8.96024 42.3336 8.5869 43.618 8.38778L46.1363 8.01444V7.74065C46.1363 7.26775 46.0356 6.89441 45.8341 6.64551C45.6326 6.39662 45.2549 6.27217 44.726 6.27217C44.3483 6.27217 44.0461 6.34684 43.8194 6.49617C43.5928 6.64551 43.3913 6.84463 43.2654 7.09352C43.1395 7.26775 42.9884 7.34242 42.7617 7.34242H40.5204C40.3693 7.34242 40.2685 7.29264 40.1678 7.21797C40.0923 7.1433 40.0419 7.01885 40.0671 6.9193C40.0671 6.6704 40.1678 6.39662 40.3441 6.09794C40.5204 5.79927 40.7974 5.4757 41.1751 5.17703C41.5529 4.87835 42.0314 4.62946 42.6106 4.43034C43.1898 4.23122 43.9202 4.13167 44.7512 4.13167C45.6075 4.13167 46.3378 4.23122 46.9674 4.43034C47.5718 4.62946 48.0755 4.90324 48.4784 5.2517C48.8561 5.60015 49.1584 6.02327 49.3346 6.52106C49.5109 6.99397 49.6117 7.54154 49.6117 8.114V14.1373C49.6117 14.2617 49.5613 14.3862 49.4606 14.4857C49.3598 14.5853 49.2339 14.6351 49.108 14.6351H46.7911C46.64 14.6351 46.5141 14.5853 46.4385 14.4857C46.3378 14.3862 46.2874 14.2617 46.2874 14.1373V13.4404C46.1111 13.6893 45.8845 13.9133 45.5823 14.1373C45.2801 14.3613 44.9527 14.5106 44.5498 14.6351C44.1468 14.7346 43.6935 14.8093 43.1647 14.8093ZM44.1216 12.5443C44.4994 12.5443 44.852 12.4697 45.1793 12.2954C45.4816 12.1212 45.7334 11.8723 45.9349 11.5239C46.1111 11.1754 46.2119 10.7274 46.2119 10.2047V9.93093L44.4994 10.2296C43.8698 10.3292 43.4165 10.5034 43.1143 10.7274C42.8373 10.9514 42.6862 11.2003 42.6862 11.499C42.6862 11.723 42.7617 11.9221 42.8876 12.0714C43.0136 12.2208 43.1898 12.3452 43.4165 12.4448C43.618 12.4946 43.8446 12.5443 44.1216 12.5443Z" fill="var(--fill-0, #585959)"/>
<path id="Vector_5" d="M53.3892 14.6102C53.2381 14.6102 53.1122 14.5604 53.0366 14.4608C52.9359 14.3613 52.8855 14.2368 52.8855 14.1124V4.7788C52.8855 4.62947 52.9359 4.50502 53.0366 4.43035C53.1374 4.33079 53.2381 4.28101 53.3892 4.28101H55.5802C55.7313 4.28101 55.8572 4.33079 55.9328 4.43035C56.0335 4.52991 56.0839 4.65436 56.0839 4.7788V5.45082C56.3609 5.10237 56.7386 4.7788 57.2171 4.50502C57.6956 4.23123 58.2748 4.08189 58.9296 4.08189C60.491 4.03212 61.5487 4.60458 62.1279 5.79927C62.4301 5.30148 62.8834 4.87836 63.4375 4.57969C64.0167 4.25612 64.6211 4.10679 65.3263 4.10679C66.0314 4.10679 66.6358 4.25612 67.215 4.57969C67.7691 4.90325 68.2224 5.37615 68.5498 5.99839C68.8771 6.64552 69.0534 7.46688 69.0534 8.48735V14.1124C69.0534 14.2368 69.0031 14.3613 68.9023 14.4608C68.8016 14.5604 68.6757 14.6102 68.5498 14.6102H66.2329C66.0818 14.6102 65.9558 14.5604 65.8551 14.4608C65.7544 14.3613 65.704 14.2368 65.704 14.1124V8.61179C65.704 8.13889 65.6285 7.79044 65.5025 7.51665C65.3766 7.24287 65.2003 7.04375 64.9485 6.9193C64.7218 6.79486 64.47 6.74508 64.1678 6.74508C63.916 6.74508 63.6893 6.79486 63.4627 6.9193C63.236 7.04375 63.0345 7.24287 62.9086 7.51665C62.7575 7.79044 62.7072 8.16378 62.7072 8.61179V14.1124C62.7072 14.2368 62.6568 14.3613 62.5561 14.4608C62.4553 14.5604 62.3294 14.6102 62.2035 14.6102H59.8866C59.7355 14.6102 59.6096 14.5604 59.534 14.4608C59.4333 14.3613 59.3829 14.2368 59.3829 14.1124V8.61179C59.3829 8.13889 59.3074 7.79044 59.1563 7.51665C59.0052 7.24287 58.8289 7.04375 58.6022 6.9193C58.3756 6.79486 58.1237 6.74508 57.8467 6.74508C57.5949 6.74508 57.343 6.79486 57.1164 6.9193C56.8897 7.04375 56.6883 7.24287 56.5624 7.51665C56.4112 7.79044 56.3609 8.13889 56.3609 8.58691V14.1124C56.3609 14.2368 56.3105 14.3613 56.2098 14.4608C56.109 14.5604 55.9831 14.6102 55.8572 14.6102H53.3892Z" fill="var(--fill-0, #585959)"/>
<path id="Vector_6" d="M72.7553 2.78763C72.6042 2.78763 72.4783 2.73785 72.4027 2.6383C72.302 2.53874 72.2516 2.41429 72.2516 2.28984V0.497793C72.2516 0.373345 72.302 0.248898 72.4027 0.14934C72.5034 0.0497814 72.6042 1.68977e-06 72.7553 1.68977e-06H75.1729C75.2988 1.68977e-06 75.4247 0.0497814 75.5255 0.14934C75.6262 0.248898 75.6766 0.373345 75.6766 0.497793V2.28984C75.6766 2.43918 75.6262 2.56363 75.5255 2.6383C75.4247 2.73785 75.2988 2.78763 75.1729 2.78763H72.7553ZM72.7805 14.6102C72.6294 14.6102 72.5034 14.5604 72.4279 14.4608C72.3272 14.3613 72.2768 14.2368 72.2768 14.1124V4.7788C72.2768 4.62946 72.3272 4.50501 72.4279 4.43034C72.5286 4.33079 72.6294 4.28101 72.7805 4.28101H75.1477C75.2988 4.28101 75.4247 4.33079 75.5003 4.43034C75.601 4.5299 75.6514 4.65435 75.6514 4.7788V14.1124C75.6514 14.2368 75.601 14.3613 75.5003 14.4608C75.3996 14.5604 75.2736 14.6102 75.1477 14.6102H72.7805Z" fill="var(--fill-0, #585959)"/>
<path id="Vector_7" d="M80.1593 14.6102C80.0082 14.6102 79.8823 14.5604 79.8067 14.4608C79.706 14.3613 79.6556 14.2368 79.6556 14.1124V4.77879C79.6556 4.62946 79.706 4.50501 79.8067 4.43034C79.9075 4.33078 80.0082 4.281 80.1593 4.281H82.4762C82.6273 4.281 82.7532 4.33078 82.8539 4.43034C82.9547 4.5299 83.005 4.65435 83.005 4.77879V5.52548C83.3324 5.12725 83.7857 4.7788 84.3398 4.50501C84.8938 4.23122 85.5738 4.08189 86.3293 4.08189C87.11 4.08189 87.7899 4.25611 88.3943 4.60457C88.9987 4.95302 89.452 5.45081 89.8046 6.12283C90.1572 6.79485 90.3083 7.61621 90.3083 8.5869V14.1124C90.3083 14.2368 90.2579 14.3613 90.1572 14.4608C90.0565 14.5604 89.9305 14.6102 89.8046 14.6102H87.2863C87.1603 14.6102 87.0344 14.5604 86.9337 14.4608C86.833 14.3613 86.7826 14.2368 86.7826 14.1124V8.68645C86.7826 8.06422 86.6315 7.59132 86.3293 7.24286C86.0271 6.89441 85.5738 6.74507 84.9945 6.74507C84.4405 6.74507 84.0124 6.9193 83.685 7.24286C83.3576 7.59132 83.1813 8.06422 83.1813 8.68645V14.1124C83.1813 14.2368 83.131 14.3613 83.0302 14.4608C82.9295 14.5604 82.8036 14.6102 82.6777 14.6102H80.1593Z" fill="var(--fill-0, #585959)"/>
</g>
</svg>
