<svg preserveAspectRatio="none" width="100%" height="100%" overflow="visible" style="display: block;" viewBox="0 0 21 29" fill="none" xmlns="http://www.w3.org/2000/svg">
<path id="Change Color" fill-rule="evenodd" clip-rule="evenodd" d="M19.2056 27.2532C19.2056 27.2532 8.73768 32.2042 1.99244 21.1044C1.99244 21.1044 -3.80742 10.442 4.38369 2.78221C4.38369 2.78221 8.63627 -1.56499 11.021 0.608609C11.021 0.608609 12.4374 1.81617 10.3667 3.87228C10.3667 3.87228 12.2346 2.42321 13.687 3.87228C13.687 3.87228 15.2768 5.17774 13.5496 7.11636C13.5496 7.11636 14.7142 6.08178 16.2745 7.1849C16.2745 7.1849 18.0345 8.42836 16.2745 10.912C16.2745 10.912 17.7335 9.53148 19.464 10.4975C19.464 10.4975 21.2959 11.4995 19.7061 13.6731C19.7061 13.6731 17.7041 16.1763 15.7544 20.5561L19.2088 27.2401L19.2056 27.2532Z" fill="var(--fill-0, #FFDEB7)"/>
</svg>
