<svg preserveAspectRatio="none" width="100%" height="100%" overflow="visible" style="display: block;" viewBox="0 0 32 37" fill="none" xmlns="http://www.w3.org/2000/svg">
<path id="Path" fill-rule="evenodd" clip-rule="evenodd" d="M16.4422 0.000668349L16.644 0L16.8538 0.00487991V0.00487991C29.7296 -0.0899443 31.3709 12.5001 31.5569 16.7834L31.5679 17.0783V17.0783L31.5747 17.3425V17.3425L31.5781 17.5742V17.5742L31.5785 17.857V17.857L31.5758 18.0569V18.0569L31.572 18.1896V18.1896C31.572 33.7543 24.0103 36.3216 21.4393 36.7447L21.2623 36.7717V36.7717L21.1038 36.7921V36.7921L20.9647 36.8069V36.8069L20.795 36.8205V36.8205L20.6751 36.8265V36.8265L20.5955 36.828V36.828C12.4749 37.2792 8.79179 32.4526 7.23465 29.1639L7.12447 28.9261C7.10673 28.8869 7.0893 28.848 7.07217 28.8094L6.973 28.581V28.581L6.88091 28.3595V28.3595L6.79571 28.1456C6.78207 28.1106 6.76871 28.0759 6.75562 28.0416L6.68037 27.8402V27.8402L6.61149 27.6478V27.6478L6.5488 27.465V27.465L6.49208 27.2925V27.2925L6.64591 27.388C0.747641 23.7611 -0.0735789 20.8497 0.00482269 19.3578L0.0139689 19.2298V19.2298L0.0271466 19.1093V19.1093L0.0437183 18.9965V18.9965L0.0630461 18.8913C0.0664617 18.8744 0.0699655 18.8578 0.0735443 18.8416L0.0958108 18.7481V18.7481L0.119239 18.6626V18.6626L0.143192 18.5852V18.5852L0.167031 18.516V18.516L0.201181 18.4276V18.4276L0.240367 18.3395V18.3395L0.277837 18.2679V18.2679C1.01723 16.8851 1.93959 16.8158 2.70434 17.1242C2.01983 2.45959 11.9472 0.332625 15.5635 0.0431021L15.7951 0.0264053C15.832 0.024037 15.8682 0.0218663 15.9035 0.0198783L16.1049 0.0100269V0.0100269L16.2848 0.00385843V0.00385843L16.4422 0.000668349V0.000668349Z" fill="var(--fill-0, #FFDEB7)"/>
</svg>
