<svg preserveAspectRatio="none" width="100%" height="100%" overflow="visible" style="display: block;" viewBox="0 0 58 58" fill="none" xmlns="http://www.w3.org/2000/svg">
<g id="Open Camera">
<rect width="57.2554" height="57.2554" fill="#F6F1EB"/>
<path id="Vector" fill-rule="evenodd" clip-rule="evenodd" d="M31.2406 22.2956C31.278 22.1825 31.3353 22.0719 31.3502 21.9558C31.4137 21.4691 31.4208 20.971 31.5298 20.4956C31.8438 19.1273 31.8075 17.7269 31.9518 16.3437C32.0983 14.9417 32.1452 13.5291 32.3022 12.1286C32.3872 11.3723 32.581 10.6227 32.7881 9.88729C32.8736 9.58132 33.1067 9.31029 33.2996 9.04248C33.4601 8.82018 33.6706 8.81214 33.9249 8.93834C34.5026 9.22523 34.815 9.72913 34.9683 10.3027C35.2725 11.4413 35.3465 12.621 35.455 13.7909C35.5147 14.4359 35.4936 15.0881 35.5416 15.7345C35.6249 16.8674 35.7915 17.9973 35.8164 19.1308C35.855 20.8602 35.889 22.5854 36.0906 24.3068C36.2042 25.2785 36.2244 26.261 36.3094 27.2366C36.3225 27.3899 36.4347 27.5518 36.5391 27.6782C37.2749 28.5706 37.5262 29.632 37.3264 30.7166C37.1874 31.4694 36.8115 32.205 36.423 32.88C35.8361 33.9002 35.1451 34.8604 34.4991 35.8473C34.0674 36.5072 33.6265 37.1762 33.5047 37.9679C33.258 39.5706 33.3626 41.1819 33.5093 42.7864C33.581 43.5664 33.7414 44.3379 33.8458 45.1156C34.0391 46.5528 34.2382 47.9889 34.3964 49.4298C34.4403 49.827 34.4727 50.3107 34.2909 50.6281C33.9844 51.1633 33.5272 51.6127 32.9396 51.9072C32.3116 52.2224 31.6603 52.3575 30.9666 52.4428C29.4353 52.6322 27.9032 52.5596 26.3708 52.5743C26.2933 52.5757 26.2138 52.5582 26.1388 52.5364C25.0646 52.2258 23.9823 51.9408 22.92 51.5932C22.1575 51.3435 22.044 51.1054 22.1171 50.3109C22.1247 50.2332 22.1384 50.155 22.1552 50.0783C22.4725 48.6006 22.7994 47.1238 23.1065 45.6439C23.4506 43.9892 23.7534 42.3301 23.6855 40.6246C23.6619 40.0242 23.5637 39.4518 23.2913 38.9173C23.0235 38.3925 22.7423 37.8744 22.4619 37.3555C21.7231 35.9891 21.3766 34.4921 21.0415 32.9972C20.9047 32.3882 20.8718 31.7535 20.8203 31.1283C20.7348 30.0929 20.6463 29.0573 20.6091 28.0196C20.5723 26.9994 20.6017 25.9766 20.5955 24.9553C20.5925 24.5266 20.5803 24.0976 20.5573 23.6691C20.5238 23.0431 20.4564 22.4183 20.4477 21.7921C20.4447 21.5958 20.5382 21.3597 20.6656 21.208C21.0975 20.6954 21.6817 20.4333 22.3189 20.245C22.7745 20.1105 23.1173 20.3634 23.5058 20.4675C23.5791 20.4869 23.649 20.5186 23.7483 20.5549C24.8241 19.5979 26.0014 19.5784 27.2036 20.2694C27.2561 20.1839 27.2915 20.1528 27.2926 20.1204C27.3526 18.7453 27.4317 17.3706 27.4611 15.9945C27.5066 13.8695 27.5101 11.7438 27.5475 9.61879C27.5609 8.87237 27.6213 8.12709 27.6625 7.3809C27.7057 6.58459 28.037 5.94645 28.7022 5.4899C29.2631 5.10416 29.7562 5.19772 30.084 5.78737C30.2162 6.0246 30.3137 6.29035 30.3767 6.5554C30.8123 8.38111 30.9061 10.2475 30.9781 12.1118C31.0295 13.4293 31.0144 14.7495 31.0346 16.0681C31.0571 17.5423 31.0923 19.0161 31.1086 20.4903C31.1155 21.0862 31.0723 21.6834 31.1174 22.2772C31.158 22.2841 31.1994 22.2898 31.2406 22.2956ZM26.5832 31.2444C25.9269 31.9597 25.6331 32.8542 25.1697 33.773C24.9377 33.2829 25.0982 32.9181 25.217 32.5657C25.4805 31.7866 25.9733 31.1503 26.5246 30.5543C26.6266 30.4435 26.7179 30.3223 26.8623 30.1476C26.6991 30.132 26.6101 30.1189 26.5211 30.1159C25.7919 30.0897 25.2177 29.7908 24.9267 29.1051C24.7938 28.792 24.6168 28.6945 24.3009 28.7129C23.9476 28.7336 23.5927 28.7221 23.2384 28.7154C22.3727 28.6991 21.7435 28.2603 21.3093 27.5506C21.1893 27.3536 21.1764 27.0608 21.1939 26.8173C21.2203 26.4311 21.1444 26.0884 20.9555 25.7286C20.9555 26.544 20.9249 27.3226 20.9628 28.098C21.0171 29.2143 21.1088 30.3299 21.2111 31.443C21.269 32.0664 21.3456 32.6924 21.4766 33.3036C21.6364 34.0519 21.8525 34.7893 22.0633 35.5261C22.346 36.5155 22.8217 37.4196 23.3382 38.3033C23.729 38.9711 24.0552 39.6748 24.0908 40.4518C24.1363 41.4515 24.1531 42.4547 23.9573 43.4499C23.5626 45.4531 23.1913 47.4613 22.8012 49.4656C22.7302 49.8316 22.5934 50.1842 22.5219 50.5495C22.4403 50.9665 22.515 51.1293 22.8757 51.2378C23.9076 51.5504 24.9467 51.8403 25.9864 52.1276C26.1731 52.1785 26.3754 52.1922 26.5694 52.189C27.8078 52.1637 29.048 52.1637 30.2829 52.0828C31.0783 52.0306 31.8737 51.9385 32.6079 51.527C33.1251 51.2364 33.512 50.8364 33.8674 50.3925C33.9651 50.2702 34.0037 50.0612 33.9927 49.8973C33.9401 49.1153 33.8849 48.3319 33.7872 47.5539C33.5782 45.8797 33.292 44.2133 33.1343 42.535C33.015 41.266 33.0231 39.983 33.0155 38.7065C33.0079 37.5242 33.4757 36.4941 34.1306 35.5309C34.7938 34.5558 35.4745 33.588 36.0655 32.5692C36.4465 31.9126 36.843 31.1919 36.9407 30.4609C37.0913 29.3251 36.9373 28.1729 35.8842 27.3996C34.3279 26.2555 32.6943 25.2369 30.9489 24.4031C30.2498 24.0696 29.5282 23.7907 28.7415 23.8532C28.2763 23.8905 27.8006 23.9792 27.3625 24.136C26.6237 24.4006 25.9062 24.7286 25.1871 25.0465C24.3246 25.4277 23.4646 25.8155 22.6143 26.2238C22.3175 26.3667 22.0279 26.5504 21.7824 26.7688C21.4934 27.0256 21.4966 27.3564 21.7212 27.6711C22.0058 28.069 22.4249 28.2768 22.8814 28.2943C24.0768 28.3403 25.2828 28.4196 26.446 28.029C26.7791 27.9173 27.1046 27.775 27.4172 27.6157C27.8282 27.407 27.8298 27.398 28.1041 27.8129C28.3413 28.1725 28.5629 28.5451 28.8273 28.8844C29.6868 29.9874 30.6964 30.8552 32.1898 30.9202C32.3709 30.9283 32.3709 30.9407 32.578 31.2632C32.1256 31.3871 31.7162 31.2975 31.3144 31.1559C30.5387 30.8814 29.8909 30.4062 29.3038 29.8405C29.1082 29.6513 28.9176 29.4568 28.722 29.2621C27.8636 29.8092 27.2367 30.5322 26.5832 31.2444ZM28.1604 7.057C28.0489 7.57193 28.0085 8.10893 27.9981 8.6372C27.9514 10.9392 27.9416 13.2419 27.8896 15.5435C27.862 16.7607 27.7758 17.9766 27.7135 19.1929C27.6726 19.997 27.6478 20.8029 27.5737 21.6043C27.5363 22.011 27.3965 22.4068 27.3211 22.8112C27.2754 23.0539 27.2643 23.3031 27.234 23.5914C27.4036 23.5808 27.5006 23.5925 27.5859 23.5666C28.5383 23.2795 29.4638 23.4178 30.3468 23.8017C32.1208 24.5723 33.7651 25.5741 35.3325 26.7049C35.4722 26.8056 35.6193 26.8969 35.8455 27.0474C35.8455 26.7086 35.8616 26.4454 35.8428 26.1847C35.8012 25.6178 35.7428 25.0525 35.6899 24.4863C35.641 23.9594 35.5899 23.4328 35.538 22.9061C35.5304 22.8284 35.5067 22.7512 35.5033 22.6733C35.4674 21.9087 35.4403 21.1436 35.3998 20.3793C35.3157 18.7919 35.2239 17.2044 35.1368 15.6171C35.1005 14.9516 35.0895 14.2835 35.026 13.6203C34.9161 12.4702 34.8538 11.3116 34.555 10.1882C34.5047 10.0008 34.4164 9.81994 34.3201 9.65051C34.1729 9.39052 33.938 9.27006 33.6355 9.265C33.3173 9.25972 33.2612 9.51925 33.1684 9.72339C32.8116 10.5061 32.7274 11.3565 32.6534 12.1928C32.5272 13.6185 32.4934 15.0525 32.384 16.4798C32.2819 17.8076 32.1433 19.1331 31.9967 20.457C31.9321 21.0393 31.8236 21.619 31.6994 22.1919C31.6608 22.368 31.5355 22.5625 31.3911 22.6664C31.2755 22.7491 31.0541 22.7567 30.9105 22.7073C30.7493 22.6512 30.7001 22.4939 30.7001 22.2795C30.7008 20.1579 30.6787 18.0359 30.6523 15.9143C30.636 14.5964 30.6135 13.2783 30.5714 11.961C30.513 10.1328 30.4385 8.30456 30.0022 6.51563C29.93 6.21954 29.8098 5.93518 29.7176 5.66116C28.9059 5.76277 28.3328 6.26069 28.1604 7.057ZM23.3115 25.3615C23.8115 25.1224 23.8074 25.0776 23.7324 24.5459C23.658 24.024 23.6118 23.4962 23.5885 22.9696C23.5649 22.4392 23.5874 21.9071 23.5846 21.376C23.5821 20.8292 23.1706 20.4533 22.6407 20.5825C22.2458 20.6788 21.8541 20.8432 21.504 21.0503C21.0215 21.3363 20.7826 21.754 20.824 22.373C20.8893 23.3457 21.2548 25.4824 21.5651 26.1649C22.1716 25.8872 22.7451 25.6323 23.3115 25.3615ZM26.8239 23.7912C26.9 22.7215 26.9763 21.6565 27.0584 20.5163C26.3531 20.1335 25.5894 19.9984 24.7887 20.4478C24.72 20.4862 24.6573 20.5361 24.5858 20.5662C24.1297 20.7581 23.9635 21.085 23.998 21.5864C24.0632 22.5236 24.0713 23.4645 24.1111 24.4036C24.1173 24.5574 24.1653 24.7093 24.2069 24.9341C25.1345 24.5289 25.9917 24.1544 26.8239 23.7912ZM25.2216 28.7685C25.3342 29.558 26.3202 30.003 26.9549 29.575C27.1772 29.4253 27.2632 29.2352 27.2002 28.9734C27.1551 28.7858 27.1216 28.5959 27.0784 28.3881C26.4315 28.521 25.8255 28.6449 25.2216 28.7685ZM27.9006 28.0168C27.3915 28.2143 27.3915 28.2143 27.6673 29.4249C27.9381 29.2467 28.1811 29.0867 28.4843 28.8879C28.2551 28.5458 28.0742 28.2766 27.9006 28.0168Z" fill="var(--fill-0, black)"/>
</g>
</svg>
