<svg preserveAspectRatio="none" width="100%" height="100%" overflow="visible" style="display: block;" viewBox="0 0 8 14" fill="none" xmlns="http://www.w3.org/2000/svg">
<path id="Vector" d="M1.00098 0.5C1.06692 0.500024 1.13249 0.512725 1.19336 0.538086C1.25408 0.5634 1.30909 0.600804 1.35547 0.647461L1.35742 0.649414L7.01758 6.2998L7.37109 5.94531L7.03223 6.31348C7.08282 6.36024 7.12275 6.41736 7.15039 6.48047C7.17804 6.54365 7.19236 6.6117 7.19238 6.68066C7.19238 6.74972 7.17809 6.81859 7.15039 6.88184C7.12278 6.94469 7.08263 7.00123 7.03223 7.04785L7.02441 7.05469L7.01758 7.06152L1.35742 12.7119L1.35352 12.7158C1.30728 12.763 1.25221 12.8004 1.19141 12.8262C1.13087 12.8518 1.06572 12.8648 1 12.8652C0.934861 12.8646 0.87057 12.8515 0.810547 12.8262C0.749609 12.8004 0.693768 12.7631 0.647461 12.7158L0.645508 12.7129L0.583008 12.6377C0.52897 12.5563 0.5 12.4595 0.5 12.3604C0.500117 12.229 0.551258 12.1022 0.643555 12.0088L0.644531 12.0098L5.94629 6.70801L5.5957 6.35449L0.646484 1.35449L0.645508 1.35352L0.583008 1.27734C0.529106 1.19606 0.500035 1.09993 0.5 1.00098C0.5 0.86889 0.552391 0.742117 0.645508 0.648438V0.647461C0.691973 0.600634 0.747698 0.563456 0.808594 0.538086C0.869465 0.512758 0.935046 0.5 1.00098 0.5Z" fill="var(--fill-0, #1D1F20)" stroke="var(--stroke-0, #1D1F20)"/>
</svg>
