<svg preserveAspectRatio="none" width="100%" height="100%" overflow="visible" style="display: block;" viewBox="0 0 91 15" fill="none" xmlns="http://www.w3.org/2000/svg">
<g id="Group">
<path id="Vector" d="M0.503672 14.6101C0.352571 14.6101 0.226652 14.5604 0.151102 14.4608C0.0503672 14.3612 3.65166e-07 14.2368 3.65166e-07 14.1123V1.19467C3.65166e-07 1.04533 0.0503672 0.920882 0.151102 0.846213C0.251836 0.746655 0.352571 0.696875 0.503672 0.696875H5.96851C7.70618 0.696875 9.0661 1.09511 10.0734 1.86669C11.0556 2.66315 11.5593 3.75829 11.5593 5.20188C11.5593 6.14769 11.3326 6.94416 10.8793 7.59128C10.426 8.23841 9.8216 8.7362 9.0661 9.05977L11.8111 13.9381C11.8615 14.0128 11.8615 14.0875 11.8615 14.1621C11.8615 14.2617 11.8111 14.3612 11.7356 14.4608C11.66 14.5355 11.5593 14.5852 11.4334 14.5852H8.76389C8.51206 14.5852 8.31059 14.5106 8.20985 14.3861C8.08393 14.2617 8.00838 14.1372 7.95802 14.0377L5.66631 9.68201H3.62644V14.0875C3.62644 14.2119 3.57607 14.3364 3.47534 14.4359C3.3746 14.5355 3.24869 14.5852 3.09758 14.5852H0.503672V14.6101ZM3.60126 6.86949H5.91815C6.54774 6.86949 7.02622 6.72015 7.32843 6.42147C7.63063 6.1228 7.80692 5.69968 7.80692 5.20188C7.80692 4.6792 7.65581 4.28097 7.35361 3.95741C7.05141 3.63384 6.57292 3.48451 5.91815 3.48451H3.60126V6.86949Z" fill="var(--fill-0, #585959)"/>
<path id="Vector_2" d="M17.7797 14.8093C17.0494 14.8093 16.4198 14.6848 15.8405 14.411C15.2613 14.1372 14.808 13.7639 14.4806 13.3159C14.1532 12.843 13.977 12.3203 13.977 11.7478C13.977 10.802 14.3547 10.0554 15.1354 9.50779C15.9161 8.96022 16.9486 8.58687 18.233 8.38776L20.7513 8.01441V7.74063C20.7513 7.26773 20.6506 6.89438 20.4491 6.64549C20.2477 6.39659 19.8699 6.27214 19.3411 6.27214C18.9633 6.27214 18.6611 6.34681 18.4345 6.49615C18.2078 6.64549 18.0063 6.8446 17.8804 7.0935C17.7545 7.26773 17.6034 7.34239 17.3767 7.34239H15.1354C14.9843 7.34239 14.8836 7.29262 14.7828 7.21795C14.7073 7.14328 14.6569 7.01883 14.6821 6.91927C14.6821 6.67038 14.7828 6.39659 14.9591 6.09792C15.1354 5.79924 15.4124 5.47568 15.7902 5.177C16.1679 4.87833 16.6464 4.62943 17.2256 4.43031C17.8049 4.2312 18.5352 4.13164 19.3662 4.13164C20.2225 4.13164 20.9528 4.2312 21.5824 4.43031C22.1868 4.62943 22.6905 4.90322 23.0934 5.25167C23.4712 5.60012 23.7734 6.02325 23.9497 6.52104C24.1259 6.99394 24.2267 7.54151 24.2267 8.11397V14.1372C24.2267 14.2617 24.1763 14.3861 24.0756 14.4857C23.9748 14.5853 23.8489 14.635 23.723 14.635H21.4061C21.255 14.635 21.1291 14.5853 21.0535 14.4857C20.9528 14.3861 20.9024 14.2617 20.9024 14.1372V13.4403C20.7262 13.6892 20.4995 13.9132 20.1973 14.1372C19.8951 14.3612 19.5677 14.5106 19.1648 14.635C18.7618 14.7346 18.3085 14.8093 17.7797 14.8093ZM18.7367 12.5443C19.1144 12.5443 19.467 12.4696 19.7944 12.2954C20.0966 12.1212 20.3484 11.8723 20.5499 11.5238C20.7262 11.1754 20.8269 10.7274 20.8269 10.2047V9.93091L19.1144 10.2296C18.4848 10.3291 18.0315 10.5034 17.7293 10.7274C17.4523 10.9514 17.3012 11.2003 17.3012 11.499C17.3012 11.723 17.3767 11.9221 17.5027 12.0714C17.6286 12.2207 17.8049 12.3452 18.0315 12.4448C18.233 12.4945 18.4848 12.5443 18.7367 12.5443Z" fill="var(--fill-0, #585959)"/>
<path id="Vector_3" d="M28.0041 14.6102C27.853 14.6102 27.727 14.5605 27.6515 14.4609C27.5508 14.3613 27.5004 14.2369 27.5004 14.1124V0.995643C27.5004 0.846305 27.5508 0.721858 27.6515 0.647189C27.7522 0.547631 27.853 0.497852 28.0041 0.497852H30.321C30.4469 0.497852 30.5728 0.547631 30.6735 0.647189C30.7743 0.746748 30.8246 0.871195 30.8246 0.995643V7.64115L33.62 4.60463C33.6956 4.50507 33.7963 4.4304 33.8718 4.35573C33.9726 4.28106 34.0985 4.25618 34.2748 4.25618H36.9694C37.0953 4.25618 37.1961 4.30595 37.2716 4.38062C37.3472 4.45529 37.3975 4.57974 37.3975 4.6793C37.3975 4.72908 37.3976 4.80375 37.3724 4.85352C37.3472 4.92819 37.2968 4.97797 37.2464 5.00286L33.62 8.86074L37.7249 13.8138C37.8257 13.9133 37.876 14.0129 37.876 14.1124C37.876 14.2369 37.8257 14.3613 37.7501 14.436C37.6746 14.5107 37.5486 14.5605 37.4227 14.5605H34.6777C34.4762 14.5605 34.3252 14.5356 34.2244 14.4609C34.1237 14.3862 34.0481 14.3116 33.9726 14.2369L30.8498 10.5035V14.1124C30.8498 14.2369 30.7994 14.3613 30.6987 14.4609C30.598 14.5605 30.4721 14.6102 30.3461 14.6102H28.0041Z" fill="var(--fill-0, #585959)"/>
<path id="Vector_4" d="M43.1648 14.8093C42.4345 14.8093 41.8049 14.6848 41.2257 14.411C40.6465 14.1372 40.1932 13.7639 39.8658 13.3159C39.5384 12.843 39.3621 12.3203 39.3621 11.7478C39.3621 10.802 39.7399 10.0554 40.5206 9.50779C41.3012 8.96022 42.3338 8.58687 43.6181 8.38776L46.1365 8.01441V7.74063C46.1365 7.26773 46.0358 6.89438 45.8343 6.64549C45.6328 6.39659 45.2551 6.27214 44.7262 6.27214C44.3485 6.27214 44.0463 6.34681 43.8196 6.49615C43.593 6.64549 43.3915 6.8446 43.2656 7.0935C43.1397 7.26773 42.9886 7.34239 42.7619 7.34239H40.5206C40.3695 7.34239 40.2687 7.29262 40.168 7.21795C40.0924 7.14328 40.0421 7.01883 40.0672 6.91927C40.0672 6.67038 40.168 6.39659 40.3443 6.09792C40.5206 5.79924 40.7976 5.47568 41.1753 5.177C41.5531 4.87833 42.0316 4.62943 42.6108 4.43031C43.19 4.2312 43.9203 4.13164 44.7514 4.13164C45.6076 4.13164 46.338 4.2312 46.9676 4.43031C47.572 4.62943 48.0756 4.90322 48.4786 5.25167C48.8563 5.60012 49.1585 6.02325 49.3348 6.52104C49.5111 6.99394 49.6118 7.54151 49.6118 8.11397V14.1372C49.6118 14.2617 49.5615 14.3861 49.4607 14.4857C49.36 14.5853 49.2341 14.635 49.1082 14.635H46.7913C46.6402 14.635 46.5143 14.5853 46.4387 14.4857C46.338 14.3861 46.2876 14.2617 46.2876 14.1372V13.4403C46.1113 13.6892 45.8847 13.9132 45.5825 14.1372C45.2803 14.3612 44.9529 14.5106 44.5499 14.635C44.147 14.7346 43.6937 14.8093 43.1648 14.8093ZM44.1218 12.5443C44.4996 12.5443 44.8521 12.4696 45.1795 12.2954C45.4817 12.1212 45.7336 11.8723 45.935 11.5238C46.1113 11.1754 46.212 10.7274 46.212 10.2047V9.93091L44.4996 10.2296C43.87 10.3291 43.4167 10.5034 43.1145 10.7274C42.8374 10.9514 42.6863 11.2003 42.6863 11.499C42.6863 11.723 42.7619 11.9221 42.8878 12.0714C43.0137 12.2207 43.19 12.3452 43.4167 12.4448C43.6181 12.4945 43.8448 12.5443 44.1218 12.5443Z" fill="var(--fill-0, #585959)"/>
<path id="Vector_5" d="M53.3892 14.6102C53.2381 14.6102 53.1122 14.5604 53.0367 14.4608C52.9359 14.3613 52.8855 14.2368 52.8855 14.1124V4.7788C52.8855 4.62946 52.9359 4.50502 53.0367 4.43035C53.1374 4.33079 53.2381 4.28101 53.3892 4.28101H55.5802C55.7313 4.28101 55.8572 4.33079 55.9328 4.43035C56.0335 4.52991 56.0839 4.65435 56.0839 4.7788V5.45082C56.3609 5.10237 56.7386 4.7788 57.2171 4.50502C57.6956 4.23123 58.2748 4.08189 58.9296 4.08189C60.491 4.03211 61.5487 4.60457 62.1279 5.79927C62.4301 5.30148 62.8835 4.87836 63.4375 4.57968C64.0167 4.25612 64.6211 4.10678 65.3263 4.10678C66.0314 4.10678 66.6358 4.25612 67.215 4.57968C67.7691 4.90325 68.2224 5.37615 68.5498 5.99839C68.8772 6.64552 69.0534 7.46687 69.0534 8.48735V14.1124C69.0534 14.2368 69.0031 14.3613 68.9023 14.4608C68.8016 14.5604 68.6757 14.6102 68.5498 14.6102H66.2329C66.0818 14.6102 65.9558 14.5604 65.8551 14.4608C65.7544 14.3613 65.704 14.2368 65.704 14.1124V8.61179C65.704 8.13889 65.6285 7.79044 65.5025 7.51665C65.3766 7.24287 65.2003 7.04375 64.9485 6.9193C64.7219 6.79486 64.47 6.74508 64.1678 6.74508C63.916 6.74508 63.6893 6.79486 63.4627 6.9193C63.236 7.04375 63.0346 7.24287 62.9086 7.51665C62.7575 7.79044 62.7072 8.16378 62.7072 8.61179V14.1124C62.7072 14.2368 62.6568 14.3613 62.5561 14.4608C62.4553 14.5604 62.3294 14.6102 62.2035 14.6102H59.8866C59.7355 14.6102 59.6096 14.5604 59.534 14.4608C59.4333 14.3613 59.3829 14.2368 59.3829 14.1124V8.61179C59.3829 8.13889 59.3074 7.79044 59.1563 7.51665C59.0052 7.24287 58.8289 7.04375 58.6022 6.9193C58.3756 6.79486 58.1237 6.74508 57.8467 6.74508C57.5949 6.74508 57.3431 6.79486 57.1164 6.9193C56.8897 7.04375 56.6883 7.24287 56.5624 7.51665C56.4113 7.79044 56.3609 8.13889 56.3609 8.5869V14.1124C56.3609 14.2368 56.3105 14.3613 56.2098 14.4608C56.1091 14.5604 55.9831 14.6102 55.8572 14.6102H53.3892Z" fill="var(--fill-0, #585959)"/>
<path id="Vector_6" d="M72.7552 2.78763C72.6041 2.78763 72.4782 2.73785 72.4027 2.63829C72.3019 2.53874 72.2516 2.41429 72.2516 2.28984V0.497791C72.2516 0.373343 72.3019 0.248896 72.4027 0.149338C72.5034 0.0497797 72.6041 0 72.7552 0H75.1728C75.2988 0 75.4247 0.0497797 75.5254 0.149338C75.6262 0.248896 75.6765 0.373343 75.6765 0.497791V2.28984C75.6765 2.43918 75.6262 2.56363 75.5254 2.63829C75.4247 2.73785 75.2988 2.78763 75.1728 2.78763H72.7552ZM72.7804 14.6102C72.6293 14.6102 72.5034 14.5604 72.4278 14.4608C72.3271 14.3613 72.2767 14.2368 72.2767 14.1124V4.7788C72.2767 4.62946 72.3271 4.50501 72.4278 4.43034C72.5286 4.33078 72.6293 4.28101 72.7804 4.28101H75.1477C75.2988 4.28101 75.4247 4.33078 75.5002 4.43034C75.601 4.5299 75.6513 4.65435 75.6513 4.7788V14.1124C75.6513 14.2368 75.601 14.3613 75.5002 14.4608C75.3995 14.5604 75.2736 14.6102 75.1477 14.6102H72.7804Z" fill="var(--fill-0, #585959)"/>
<path id="Vector_7" d="M80.1591 14.6101C80.008 14.6101 79.8821 14.5603 79.8066 14.4608C79.7058 14.3612 79.6555 14.2368 79.6555 14.1123V4.77874C79.6555 4.62941 79.7058 4.50496 79.8066 4.43029C79.9073 4.33073 80.008 4.28095 80.1591 4.28095H82.476C82.6271 4.28095 82.7531 4.33073 82.8538 4.43029C82.9545 4.52985 83.0049 4.6543 83.0049 4.77874V5.52543C83.3323 5.1272 83.7856 4.77874 84.3396 4.50496C84.8937 4.23117 85.5736 4.08184 86.3291 4.08184C87.1098 4.08184 87.7898 4.25606 88.3942 4.60452C88.9986 4.95297 89.4519 5.45076 89.8045 6.12278C90.157 6.7948 90.3081 7.61615 90.3081 8.58685V14.1123C90.3081 14.2368 90.2578 14.3612 90.157 14.4608C90.0563 14.5603 89.9304 14.6101 89.8045 14.6101H87.2861C87.1602 14.6101 87.0343 14.5603 86.9335 14.4608C86.8328 14.3612 86.7824 14.2368 86.7824 14.1123V8.6864C86.7824 8.06417 86.6313 7.59127 86.3291 7.24281C86.0269 6.89436 85.5736 6.74502 84.9944 6.74502C84.4404 6.74502 84.0122 6.91925 83.6849 7.24281C83.3575 7.59127 83.1812 8.06417 83.1812 8.6864V14.1123C83.1812 14.2368 83.1308 14.3612 83.0301 14.4608C82.9293 14.5603 82.8034 14.6101 82.6775 14.6101H80.1591Z" fill="var(--fill-0, #585959)"/>
</g>
</svg>
