<svg preserveAspectRatio="none" width="100%" height="100%" overflow="visible" style="display: block;" viewBox="0 0 20 20" fill="none" xmlns="http://www.w3.org/2000/svg">
<path id="Vector" d="M10 0.5C12.723 0.5 13.0485 0.500515 14.0918 0.55957H14.1094C14.8833 0.575601 15.649 0.72434 16.373 0.998047L16.3789 1C16.977 1.21817 17.5176 1.56949 17.96 2.02734L17.9707 2.03711C18.4289 2.48577 18.7842 3.02871 19.0127 3.62793C19.2776 4.35413 19.4223 5.11877 19.4404 5.8916L19.9404 5.87988L19.4404 5.9082C19.4995 6.95151 19.5 7.27695 19.5 10C19.5 11.3557 19.4846 12.1162 19.4697 12.6689C19.455 13.2158 19.4406 13.5759 19.4404 14.1084C19.4223 14.882 19.2771 15.6472 19.0117 16.374C18.786 16.9731 18.4309 17.5149 17.9717 17.9609L17.96 17.9727C17.5176 18.4305 16.977 18.7818 16.3789 19L16.373 19.002C15.649 19.2757 14.8833 19.4244 14.1094 19.4404H14.0918C13.0485 19.4995 12.723 19.5 10 19.5C7.27695 19.5 6.95151 19.4995 5.9082 19.4404H5.89062C5.11669 19.4244 4.35105 19.2757 3.62695 19.002L3.62305 19.001L3.40137 18.9121C2.89083 18.6906 2.42738 18.3715 2.03809 17.9717L2.0332 17.9658L2.02734 17.96C1.56949 17.5176 1.21817 16.977 1 16.3789L0.998047 16.373L0.901367 16.0996C0.68945 15.4574 0.573597 14.7866 0.55957 14.1094V14.0918L0.525391 13.3955C0.500423 12.7361 0.5 12.0426 0.5 10C0.5 7.27695 0.500515 6.95151 0.55957 5.9082V5.89062C0.575601 5.11669 0.72434 4.35105 0.998047 3.62695L1 3.62109C1.21817 3.02298 1.56949 2.48243 2.02734 2.04004L2.0332 2.03418L2.03809 2.02832C2.483 1.57136 3.02471 1.21985 3.62305 0.999023L3.62695 0.998047C4.35105 0.72434 5.11669 0.575601 5.89062 0.55957H5.9082C6.95151 0.500515 7.27695 0.5 10 0.5ZM10 1.2998C8.68065 1.2998 7.92605 1.31495 7.375 1.33008C7.09827 1.33768 6.87725 1.34503 6.66406 1.35059L6 1.36035H5.99609C5.29169 1.36587 4.59329 1.49044 3.93066 1.72949L3.91504 1.73535L3.90039 1.74121C3.42276 1.94908 2.99573 2.25751 2.64746 2.64453C2.25732 2.99298 1.94952 3.42421 1.74805 3.90723L1.74512 3.91602L1.74121 3.9248C1.49554 4.5826 1.36707 5.27841 1.36035 5.98047C1.29991 6.99057 1.2998 7.38274 1.2998 10C1.2998 11.3193 1.31495 12.074 1.33008 12.625C1.34528 13.1785 1.36035 13.5091 1.36035 14V14.0156C1.38264 14.7263 1.52981 15.4276 1.7959 16.0869V16.0859C1.97507 16.5807 2.26341 17.0286 2.63965 17.3965V17.3975C2.99858 17.7696 3.4307 18.0635 3.9082 18.2617L3.92383 18.2686L3.94043 18.2734C4.61281 18.5004 5.31885 18.6105 6.02832 18.5996C7.03265 18.6596 7.42955 18.6602 10.04 18.6602C12.6709 18.6602 13.0516 18.6493 14.0645 18.5986C14.7494 18.5887 15.4278 18.4645 16.0713 18.2295L16.0762 18.2275C16.5773 18.0383 17.0311 17.7417 17.4062 17.3594C17.7897 16.9871 18.0854 16.5341 18.2695 16.0322V16.0312C18.5045 15.3877 18.6287 14.7093 18.6387 14.0244L18.6396 14.0254C18.6903 13.0122 18.7002 12.6313 18.7002 10C18.7002 7.36872 18.6893 6.98782 18.6387 5.97461C18.6331 5.27654 18.5089 4.5846 18.2695 3.92871L18.2676 3.92188L18.2646 3.91504L18.1875 3.73535C17.9957 3.32153 17.7253 2.94753 17.3916 2.63477C17.0149 2.23297 16.5508 1.92323 16.0342 1.73145L16.0312 1.73047L15.7861 1.64648C15.2146 1.46488 14.619 1.3685 14.0186 1.36035C13.0092 1.29996 12.6164 1.2998 10 1.2998ZM10.002 5.37012C10.6109 5.36774 11.2142 5.48611 11.7773 5.71777C12.3404 5.94939 12.8522 6.28969 13.2832 6.71973C13.7141 7.14982 14.0563 7.66105 14.2891 8.22363C14.5218 8.78638 14.6408 9.39004 14.6396 9.99902V10C14.6396 10.9153 14.3687 11.8101 13.8604 12.5713C13.3521 13.3324 12.6295 13.9257 11.7842 14.2764C10.9388 14.627 10.0081 14.7198 9.11035 14.542C8.21252 14.3641 7.38712 13.9239 6.73926 13.2773C6.09146 12.6308 5.64943 11.8066 5.46973 10.9092C5.29007 10.0117 5.38047 9.08053 5.72949 8.23438C6.07852 7.38826 6.67053 6.66413 7.43066 6.1543C8.19088 5.64446 9.08564 5.3719 10.001 5.37012L10 4.87012L10.002 5.37012ZM11.4658 6.46191C10.766 6.17206 9.99581 6.09544 9.25293 6.24316C8.50998 6.39095 7.82763 6.75636 7.29199 7.29199C6.75636 7.82763 6.39095 8.50998 6.24316 9.25293C6.09544 9.99581 6.17206 10.766 6.46191 11.4658C6.7518 12.1655 7.24233 12.7638 7.87207 13.1846C8.50191 13.6054 9.2425 13.8301 10 13.8301C10.503 13.8301 11.0011 13.7306 11.4658 13.5381C11.9304 13.3456 12.3524 13.0636 12.708 12.708C13.0636 12.3524 13.3456 11.9304 13.5381 11.4658C13.7306 11.0011 13.8301 10.503 13.8301 10C13.8301 9.2425 13.6054 8.50191 13.1846 7.87207C12.7638 7.24233 12.1655 6.7518 11.4658 6.46191ZM15.3398 3.95996C15.5255 3.95996 15.7037 4.03376 15.835 4.16504C15.9662 4.29632 16.04 4.47451 16.04 4.66016C16.04 4.79855 15.9988 4.93376 15.9219 5.04883C15.845 5.16393 15.7353 5.25366 15.6074 5.30664C15.4796 5.3595 15.3388 5.37366 15.2031 5.34668C15.0674 5.31963 14.9426 5.2531 14.8447 5.15527C14.7469 5.05744 14.6804 4.93255 14.6533 4.79688C14.6263 4.66122 14.6405 4.52039 14.6934 4.39258C14.7463 4.26468 14.8361 4.15504 14.9512 4.07812C15.0662 4.00124 15.2015 3.95999 15.3398 3.95996Z" fill="var(--fill-0, #01959F)" stroke="var(--stroke-0, #01959F)"/>
</svg>
