<svg preserveAspectRatio="none" width="100%" height="100%" overflow="visible" style="display: block;" viewBox="0 0 20 20" fill="none" xmlns="http://www.w3.org/2000/svg">
<path id="Path (Stroke)" fill-rule="evenodd" clip-rule="evenodd" d="M16 1.5H4C2.61929 1.5 1.5 2.61929 1.5 4V16C1.5 17.3807 2.61929 18.5 4 18.5H16C17.3807 18.5 18.5 17.3807 18.5 16V4C18.5 2.61929 17.3807 1.5 16 1.5ZM4 0C1.79086 0 0 1.79086 0 4V16C0 18.2091 1.79086 20 4 20H16C18.2091 20 20 18.2091 20 16V4C20 1.79086 18.2091 0 16 0H4Z" fill="var(--fill-0, #01959F)"/>
</svg>
