<svg preserveAspectRatio="none" width="100%" height="100%" overflow="visible" style="display: block;" viewBox="0 0 26 16" fill="none" xmlns="http://www.w3.org/2000/svg">
<g id="Group">
<path id="Vector" d="M5.24165 7.46699L9.39694 3.53444C10.1776 2.78775 10.2028 1.56817 9.44731 0.79659C8.5407 -0.149212 7.02968 -0.174102 6.07271 0.721921L0.80934 5.72472C0.784156 5.74961 0.784156 5.7745 0.758973 5.7745C0.733789 5.79939 0.683422 5.82428 0.658238 5.84917C-0.198004 6.67052 -0.223187 8.03945 0.607871 8.88569L0.758973 9.03503L5.97197 14.3863C6.80303 15.2325 8.18813 15.2574 9.04437 14.4361C9.90061 13.6147 9.9258 12.2458 9.09474 11.3995L5.24165 7.46699Z" fill="var(--fill-0, #00A9AD)"/>
<path id="Vector_2" d="M17.0275 0.0998348L17.4304 0.224283C18.4629 0.547847 19.0422 1.6181 18.74 2.63857L15.3905 13.4655C15.0128 14.71 13.678 15.4069 12.4189 15.0336C11.3863 14.71 10.8071 13.6397 11.1093 12.6193L14.5595 1.41898C14.8869 0.37362 15.9949 -0.223729 17.0275 0.0998348Z" fill="var(--fill-0, #00A9AD)"/>
<g id="Group_2">
<path id="Vector_3" d="M23.1221 0.000195341C23.0969 0.000195341 23.0969 0.000195341 23.0717 0.000195341H19.2438C19.3949 0.000195341 19.8734 0.124643 20.2511 0.746882C20.5282 1.31934 20.4526 1.99136 20.4274 2.04114C20.4274 2.06603 20.4274 2.06603 20.4274 2.06603C20.3771 2.26514 20.3519 2.48915 20.3519 2.71316C20.3519 4.20653 21.5859 5.42612 23.0969 5.42612C24.6079 5.42612 25.8419 4.20653 25.8419 2.71316C25.8419 1.21978 24.6331 0.000195341 23.1221 0.000195341Z" fill="var(--fill-0, #FDC039)"/>
<path id="Vector_4" d="M18.3876 0.0748047H18.4114C18.3876 0.0748047 18.3876 0.0748047 18.3876 0.0748047Z" fill="var(--fill-0, #FFC234)"/>
</g>
</g>
</svg>
