<svg preserveAspectRatio="none" width="100%" height="100%" overflow="visible" style="display: block;" viewBox="0 0 117 173" fill="none" xmlns="http://www.w3.org/2000/svg">
<g id="Group">
<path id="Change Color" fill-rule="evenodd" clip-rule="evenodd" d="M47.0753 79.2808L65.958 91.189L21.9743 166.754V166.754L21.9094 166.844V166.844L21.8262 166.955V166.955L21.7102 167.104V167.104L21.6147 167.222V167.222L21.5047 167.354V167.354L21.3804 167.499V167.499L21.2418 167.655C21.2175 167.682 21.1927 167.71 21.1672 167.738L21.0073 167.909C20.9238 167.998 20.835 168.089 20.7409 168.184L20.5458 168.375C18.1541 170.683 12.8303 174.251 5.08259 170.633L4.75113 170.475V170.475L4.631 170.4V170.4L4.55477 170.349V170.349L4.46241 170.286V170.286L4.3551 170.21V170.21L4.23401 170.121V170.121L4.10032 170.019C4.07705 170.001 4.0533 169.983 4.02911 169.963L3.87871 169.842C3.80099 169.778 3.71965 169.709 3.63534 169.634L3.46298 169.48C1.26388 167.461 -2.51252 162.297 2.46188 153.293L47.0753 79.2808Z" fill="var(--fill-0, #FD9043)"/>
<path id="Dark" fill-rule="evenodd" clip-rule="evenodd" d="M65.9581 91.1889L47.0753 79.2807L37.1198 95.797L37.2678 95.9474V95.9474L37.4791 96.1534V96.1534L37.6506 96.316V96.316L37.9319 96.5755V96.5755L38.1826 96.8006V96.8006L38.3688 96.9646V96.9646L38.5703 97.1392V97.1392L38.7871 97.324V97.324L39.0193 97.5188V97.5188L39.267 97.7232V97.7232L39.5302 97.9367V97.9367L39.809 98.1591C39.8568 98.1969 39.9052 98.235 39.9543 98.2735L40.2566 98.5084V98.5084L40.5746 98.7512C40.6289 98.7923 40.6839 98.8337 40.7395 98.8755L41.0813 99.1295C41.1978 99.2153 41.317 99.3023 41.4389 99.3905L41.8124 99.6581C42.1939 99.9289 42.5995 100.209 43.0293 100.497L43.4672 100.788C46.5891 102.838 50.9041 105.242 56.5031 107.434L65.9581 91.1889Z" fill="var(--fill-0, #FBC037)"/>
<path id="Change Color_2" fill-rule="evenodd" clip-rule="evenodd" d="M63.0384 91.0031C51.2511 84.7411 51.7638 60.7936 64.1835 37.5147C76.6032 14.2359 96.2268 0.440957 108.014 6.70292C119.801 12.9649 119.289 36.9124 106.869 60.1913C94.4493 83.4701 74.8257 97.265 63.0384 91.0031Z" fill="var(--fill-0, #4DB5BC)"/>
<path id="White" d="M66.1614 85.9717C57.7925 81.5127 59.669 61.7121 70.3527 41.7459C81.0365 21.7797 96.4817 9.20868 104.851 13.6677C113.22 18.1268 111.343 37.9274 100.659 57.8936C89.9756 77.8598 74.5304 90.4308 66.1614 85.9717Z" fill="var(--fill-0, white)"/>
<path id="Change Color_3" fill-rule="evenodd" clip-rule="evenodd" d="M54.3316 32.2193C66.7822 8.9572 86.3848 -4.78057 98.1619 1.54588L106.383 6.06055C94.5047 1.81633 76.1288 15.3323 64.2669 37.5011C51.8195 60.7632 51.2565 84.7447 63.0139 91.0646L53.082 85.7893C41.3245 79.4629 41.8843 55.4813 54.3316 32.2193Z" fill="var(--fill-0, #01959F)"/>
<path id="Border" opacity="0.1" fill-rule="evenodd" clip-rule="evenodd" d="M96.3385 20.1221L96.4487 20.2327V20.2327L96.5088 20.2997V20.2997L96.5856 20.3941V20.3941L96.6371 20.4635V20.4635L96.6731 20.5149V20.5149L96.7098 20.5704V20.5704L96.747 20.6299V20.6299L96.7842 20.6933V20.6933L96.8211 20.7605V20.7605L96.875 20.8684V20.8684L96.9094 20.945C96.915 20.9581 96.9206 20.9713 96.9261 20.9847L96.9579 21.0667V21.0667L96.9876 21.1522V21.1522L97.0148 21.2411V21.2411L97.039 21.3335V21.3335L97.0599 21.4291V21.4291L97.0771 21.528C97.2044 22.3656 96.9101 23.5347 95.224 24.8612C93.1703 26.8099 91.2385 28.8824 89.4395 31.067L89.0807 31.5067V31.5067L89.0327 31.5813V31.5813L88.9713 31.6667V31.6667L88.9312 31.7186V31.7186L88.8849 31.7755V31.7755L88.8323 31.8368V31.8368L88.7733 31.9014C88.763 31.9125 88.7524 31.9236 88.7415 31.9349L88.673 32.0033C88.6611 32.0149 88.6489 32.0265 88.6364 32.0382L88.5583 32.1087C87.9756 32.616 86.8967 33.1511 85.2739 32.4187L85.2253 32.3775V32.3775L85.1416 32.2986V32.2986L85.077 32.2318V32.2318L85.0295 32.1794V32.1794L84.9792 32.1207V32.1207L84.9269 32.0557V32.0557L84.8732 31.9846C84.8641 31.9723 84.8551 31.9596 84.846 31.9468L84.7916 31.8665C84.7826 31.8526 84.7735 31.8385 84.7645 31.8241L84.711 31.7349V31.7349L84.6589 31.6397C84.6504 31.6233 84.6419 31.6067 84.6336 31.5899L84.585 31.4859C84.3105 30.8626 84.2007 29.9445 84.8857 28.785L85.0353 28.5387V28.5387L85.1717 28.3215V28.3215L85.368 28.0186V28.0186L85.5759 27.7075V27.7075L85.7703 27.4241V27.4241L85.9322 27.1931V27.1931L86.1691 26.863V26.863L86.2963 26.6892V26.6892L86.4979 26.4185V26.4185L86.7123 26.1368V26.1368L86.9391 25.8454V25.8454L87.0972 25.6463V25.6463L87.2606 25.4437V25.4437L87.4294 25.238V25.238L87.6034 25.0295V25.0295L87.7825 24.8185V24.8185L87.9667 24.6055C87.9978 24.5698 88.0291 24.5341 88.0607 24.4983L88.2523 24.2827V24.2827L88.4489 24.066C88.4821 24.0298 88.5155 23.9935 88.549 23.9572L88.7528 23.7392V23.7392L88.9613 23.5209V23.5209L89.1745 23.3025C89.2104 23.2661 89.2465 23.2298 89.2827 23.1934L89.5027 22.9757C89.5397 22.9394 89.577 22.9032 89.6144 22.8671L89.841 22.6507V22.6507L90.072 22.4357C90.1108 22.4 90.1499 22.3644 90.1891 22.3288L90.4264 22.1165V22.1165L90.6679 21.9064C90.7897 21.8019 90.9131 21.6984 91.0379 21.5961L91.2895 21.3931C91.6699 21.091 92.0635 20.8004 92.4691 20.5267L92.4748 20.5239V20.5239L92.6468 20.4034V20.4034L92.7754 20.3178V20.3178L92.8914 20.2444V20.2444L93.0227 20.1656V20.1656L93.1181 20.1111V20.1111L93.2193 20.0558V20.0558L93.326 20.0004C93.3442 19.9912 93.3626 19.982 93.3813 19.9729L93.4954 19.9185C93.5149 19.9095 93.5345 19.9006 93.5542 19.8918L93.675 19.8399C93.7159 19.823 93.7575 19.8065 93.7997 19.7905L93.9279 19.7441V19.7441L94.0593 19.7016C94.7897 19.479 95.6456 19.4568 96.3385 20.1221V20.1221Z" fill="var(--fill-0, #000001)"/>
</g>
</svg>
