<svg preserveAspectRatio="none" width="100%" height="100%" overflow="visible" style="display: block;" viewBox="0 0 58 58" fill="none" xmlns="http://www.w3.org/2000/svg">
<g id="Open Camera">
<rect width="57.2554" height="57.2554" fill="#F6F1EB"/>
<path id="Vector" fill-rule="evenodd" clip-rule="evenodd" d="M30.6771 22.0906C30.7047 21.9826 30.7428 21.8761 30.7589 21.7662C30.8386 21.2096 30.925 20.6535 30.9857 20.0946C31.127 18.7866 31.3209 17.4795 31.3728 16.1675C31.4445 14.3819 31.5638 12.6069 31.907 10.8515C32.0226 10.2597 32.1609 9.66726 32.5412 9.17467C32.8856 8.72725 33.1369 8.69229 33.5859 9.03688C34.0181 9.36875 34.3002 9.80936 34.393 10.348C34.5148 11.0531 34.6573 11.7579 34.7234 12.4689C34.8608 13.9333 34.9716 15.4007 35.058 16.8691C35.1393 18.2641 35.1744 19.6617 35.2305 21.058C35.2323 21.097 35.234 21.1359 35.2381 21.1747C35.335 22.1762 35.4446 23.1762 35.5253 24.1788C35.5993 25.1059 35.6326 26.0364 35.7082 26.9637C35.7201 27.1142 35.8362 27.2731 35.9418 27.397C36.7023 28.2919 36.9544 29.3504 36.726 30.4498C36.5753 31.175 36.2224 31.8833 35.8428 32.5327C35.2537 33.5395 34.5844 34.5027 33.914 35.4601C33.1631 36.5339 32.7757 37.6911 32.7999 39.0091C32.8265 40.4653 32.838 41.9161 33.0751 43.361C33.3042 44.7563 33.4784 46.1603 33.6548 47.5637C33.7398 48.2358 33.7945 48.9132 33.8186 49.5894C33.826 49.8015 33.7377 50.0523 33.6105 50.2262C33.1011 50.9222 32.4238 51.4163 31.5819 51.6495C31.2081 51.7528 30.8106 51.7727 30.4251 51.8343C28.9008 52.0776 27.3651 51.9716 25.8331 51.9882C25.7363 51.9886 25.6364 51.9705 25.5429 51.9439C24.4681 51.6384 23.3799 51.3714 22.3253 51.0091C21.5078 50.7274 21.3902 50.5383 21.5586 49.6251C21.8304 48.1571 22.2052 46.7088 22.5087 45.2462C22.8522 43.5923 23.186 41.9367 23.11 40.2308C23.0822 39.6197 22.9951 39.0343 22.7042 38.4886C22.3931 37.9045 22.0845 37.3197 21.773 36.7357C21.162 35.59 20.881 34.3369 20.5619 33.0964C20.2458 31.8674 20.2446 30.6021 20.1323 29.3502C20.0838 28.8094 20.036 28.2676 20.0243 27.7257C20.0031 26.7365 20.0098 25.7463 20.0036 24.7568C20.0013 24.3345 20.0098 23.9119 19.988 23.4908C19.9551 22.8536 19.8837 22.218 19.8644 21.5803C19.8593 21.4042 19.9402 21.1912 20.053 21.0519C20.4183 20.6008 20.9215 20.3439 21.4612 20.1343C21.9232 19.955 22.3432 20.039 22.772 20.212C22.7986 20.2229 22.8425 20.1924 22.9261 20.1661C22.8974 19.8315 22.8696 19.486 22.8372 19.141C22.7228 17.9236 22.5528 16.7082 22.5055 15.4883C22.4473 13.9937 22.4634 12.4946 22.5055 10.9993C22.5234 10.3655 22.6525 9.72719 22.797 9.10611C22.9165 8.59059 23.2487 8.35746 23.702 8.33521C24.3638 8.30298 24.718 8.48503 24.9384 9.01054C25.0434 9.26002 25.1217 9.52584 25.1702 9.79143C25.4135 11.1296 25.5937 12.4728 25.6513 13.8364C25.6957 14.881 25.8866 15.9191 25.9843 16.9624C26.1175 18.3932 26.2198 19.8267 26.348 21.2575C26.3686 21.4898 26.4553 21.7163 26.5118 21.9451C26.5637 21.9404 26.6156 21.936 26.6673 21.9313C26.6818 21.7122 26.7071 21.4929 26.7089 21.2734C26.7165 20.4374 26.697 19.6002 26.7241 18.7646C26.7636 17.5422 26.8711 16.3216 26.8845 15.0994C26.9123 12.5531 26.8872 10.0066 27.0632 7.46352C27.1232 6.58957 27.4591 5.8845 28.2315 5.4255C28.7244 5.13244 29.1547 5.22483 29.4454 5.69836C29.5949 5.94284 29.7073 6.22273 29.7753 6.50126C30.2236 8.32295 30.3362 10.1828 30.3828 12.0483C30.4152 13.3106 30.4324 14.5732 30.4618 15.8351C30.4788 16.5538 30.5167 17.2718 30.5278 17.9905C30.5393 18.7464 30.5462 19.503 30.5252 20.2585C30.508 20.8669 30.4618 21.4734 30.5367 22.0777C30.5845 22.082 30.6309 22.0863 30.6771 22.0906ZM27.2753 27.6858C26.4277 28.2231 25.5192 28.3681 24.6029 28.4276C23.8801 28.4746 23.1456 28.4857 22.4266 28.414C21.6351 28.3348 21.0506 27.8642 20.6687 27.1782C20.5904 27.0368 20.5847 26.8404 20.5904 26.6711C20.6118 26.0564 20.6189 26.0566 20.3533 25.4137C20.3533 26.2475 20.3174 26.9918 20.3613 27.7314C20.4266 28.8321 20.5426 29.9301 20.6458 31.0282C20.7 31.607 20.7191 32.1963 20.8496 32.759C21.0775 33.7417 21.3318 34.7242 21.6657 35.6756C21.9081 36.3668 22.2486 37.0364 22.6304 37.6655C23.2338 38.6588 23.5522 39.6906 23.5366 40.8633C23.521 42.0362 23.3716 43.1843 23.1506 44.3275C22.8563 45.8514 22.5349 47.3696 22.2212 48.8894C22.1705 49.1359 22.0866 49.3763 22.0429 49.623C21.9922 49.9052 21.969 50.1914 21.9338 50.4752C22.0452 50.5401 22.1057 50.5937 22.1762 50.6143C23.2471 50.9278 24.3178 51.2425 25.3926 51.5423C25.5969 51.5991 25.82 51.6093 26.0341 51.6054C27.2514 51.5809 28.4716 51.5798 29.6866 51.5024C30.5018 51.4508 31.3184 51.3569 32.0646 50.9335C32.5781 50.6427 33.0016 50.2618 33.2968 49.791C33.4607 49.53 33.4476 49.1157 33.409 48.7824C33.1948 46.9353 32.9756 45.0875 32.705 43.2481C32.4858 41.7649 32.4107 40.2805 32.4045 38.7846C32.398 37.4328 32.7847 36.2335 33.5629 35.1299C34.2143 34.2062 34.8638 33.2764 35.4355 32.3046C35.8175 31.656 36.1227 30.9476 36.354 30.2321C36.6824 29.2137 36.0926 27.7098 35.2169 27.0715C33.6939 25.9622 32.0876 24.9881 30.3821 24.1759C29.6848 23.8435 28.9642 23.5677 28.1785 23.6252C27.713 23.6594 27.2367 23.7448 26.799 23.8992C26.0601 24.1593 25.343 24.4832 24.6241 24.7972C23.7622 25.1738 22.9036 25.5592 22.0526 25.9594C21.7723 26.0915 21.494 26.2525 21.2592 26.4511C20.9148 26.7419 20.9219 27.1321 21.2149 27.4808C21.4975 27.8181 21.8869 27.9925 22.2982 28.009C23.4734 28.0562 24.6585 28.1314 25.8044 27.767C26.1754 27.649 26.532 27.4824 26.8842 27.3151C27.227 27.1521 27.2898 27.1557 27.5004 27.4726C27.7479 27.8442 27.9701 28.2349 28.2435 28.5867C29.0968 29.6827 30.1103 30.5294 31.5994 30.6089C31.7425 30.6166 31.8799 30.7306 32.001 30.8638C31.5497 31.0722 31.1263 30.9734 30.7109 30.8275C29.9552 30.5626 29.3181 30.109 28.7517 29.5588C28.5567 29.3692 28.3912 29.1502 28.2076 28.9393C27.2944 29.4784 26.6804 30.201 26.0256 30.8981C25.357 31.6095 25.0565 32.508 24.5682 33.3231C24.3925 32.9046 24.5319 32.5332 24.665 32.1641C24.9352 31.4177 25.3977 30.7896 25.9604 30.2409C26.5587 29.658 27.1921 29.1098 27.8492 28.5109C27.6845 28.2728 27.4883 27.9913 27.2753 27.6858ZM26.4325 23.5493C27.5512 23.052 28.6573 23.1037 29.7441 23.5636C31.5031 24.3078 33.1254 25.297 34.6844 26.39C34.8284 26.4913 34.9716 26.5941 35.1188 26.6904C35.146 26.7081 35.1917 26.6981 35.3063 26.7072C35.2666 26.1678 35.2323 25.6387 35.1862 25.1102C35.1289 24.4553 35.0373 23.8027 35.0044 23.1466C34.9334 21.7122 34.9102 20.2753 34.8284 18.8413C34.7639 17.7215 34.6313 16.606 34.5463 15.4876C34.498 14.849 34.5088 14.2059 34.4507 13.5685C34.3485 12.4517 34.2919 11.3251 33.993 10.2366C33.9133 9.9467 33.7701 9.64524 33.5719 9.42324C33.258 9.07252 32.8286 9.15855 32.6312 9.57873C32.5078 9.8416 32.3865 10.1197 32.3438 10.4025C32.2009 11.3405 32.0835 12.2823 31.9769 13.2248C31.9077 13.84 31.8742 14.4586 31.825 15.076C31.813 15.2306 31.8004 15.3852 31.7933 15.54C31.7218 17.2425 31.6972 18.9487 31.3455 20.6283C31.2618 21.0253 31.2412 21.4346 31.1667 21.8341C31.1362 22.0016 31.0652 22.173 30.9707 22.316C30.8471 22.5038 30.6546 22.6252 30.4161 22.5433C30.1859 22.4645 30.1236 22.2961 30.1252 22.0411C30.1367 20.1368 30.1397 18.232 30.1172 16.328C30.0977 14.6572 30.0843 12.9849 29.9908 11.3173C29.8985 9.6718 29.8068 8.02127 29.4134 6.4057C29.2027 5.54309 28.9431 5.45297 28.2357 6.01412C27.8088 6.35326 27.5694 6.78365 27.5232 7.30553C27.4499 8.13704 27.3812 8.97059 27.3651 9.8046C27.327 11.7673 27.3449 13.7315 27.2953 15.6939C27.2502 17.4593 27.1491 19.2231 27.0628 20.9874C27.0467 21.3159 26.9628 21.6412 26.9417 21.9699C26.9288 22.1717 26.8916 22.3208 26.6584 22.3247C26.4472 22.3283 26.2522 22.2629 26.2016 22.0371C26.1161 21.6593 26.0332 21.2784 25.9921 20.8941C25.8305 19.3879 25.6805 17.8806 25.5365 16.3729C25.4087 15.0402 25.3189 13.7034 25.1661 12.3734C25.0505 11.3716 24.8839 10.3737 24.6964 9.38237C24.5852 8.7933 24.5108 8.76175 24.1005 8.74518C23.6262 8.72611 23.3273 8.88252 23.2124 9.33766C23.0711 9.89971 22.9431 10.4806 22.9298 11.0561C22.8928 12.7066 22.8875 14.3594 22.9275 16.0102C22.9507 16.9393 23.1035 17.865 23.1688 18.7941C23.2639 20.1498 23.3505 21.5063 23.4047 22.8638C23.4284 23.4654 23.4785 24.054 23.6418 24.6505C24.6163 24.2696 25.5406 23.9457 26.4325 23.5493ZM22.7844 25.088C23.1906 24.8941 23.2478 24.8228 23.1662 24.4154C22.9863 23.5121 23.03 22.6023 23.0243 21.6927C23.0233 21.5179 23.0047 21.3427 23.0176 21.1695C23.0631 20.5538 22.579 20.3259 21.9301 20.4406C21.6468 20.4907 21.3612 20.6035 21.1103 20.7459C20.5605 21.058 20.2051 21.4455 20.2432 22.181C20.3096 23.4692 20.6628 24.6862 20.9194 25.9444C21.5816 25.6412 22.1875 25.3731 22.7844 25.088Z" fill="var(--fill-0, black)"/>
</g>
</svg>
