<svg preserveAspectRatio="none" width="100%" height="100%" overflow="visible" style="display: block;" viewBox="0 0 121 150" fill="none" xmlns="http://www.w3.org/2000/svg">
<path id="Path" fill-rule="evenodd" clip-rule="evenodd" d="M47.3763 0L103.833 6.3866L103.904 6.53904V6.53904L103.99 6.7322V6.7322L104.109 7.00567C104.132 7.05803 104.155 7.11382 104.18 7.17306L104.345 7.57024C107.001 14.0855 119.103 48.5451 119.645 136.63C120.254 136.755 120.727 137.379 120.758 138.12L120.759 138.197L120.658 145.566C120.649 146.299 120.186 146.894 119.563 146.97L119.5 146.976L84.1055 149.202C83.3305 149.25 82.6736 148.488 82.6958 147.593L82.6989 147.524L83.2746 138.761C83.264 138.096 83.7553 137.534 84.4092 137.447L84.4751 137.44L84.6208 137.437L84.6008 136.366V136.366L84.577 135.229V135.229L84.5491 134.025V134.025L84.5168 132.756C84.5111 132.539 84.5051 132.32 84.4989 132.098L84.4595 130.735V130.735L84.4149 129.311V129.311L84.3648 127.827V127.827L84.3089 126.285V126.285L84.247 124.686C84.2144 123.872 84.1794 123.038 84.1418 122.183L84.0632 120.448C83.0224 98.1341 80.2484 63.2994 72.882 28.8051L72.8342 29.2322V29.2322L72.7865 29.6361V29.6361L72.6817 30.4824V30.4824L72.5883 31.2025C71.0922 42.5311 63.3374 92.1125 37.2114 139.154L36.8072 139.875L37.374 140.198C38.0066 140.557 38.1752 141.468 37.7612 142.2L37.7219 142.266L33.8194 148.525C33.5064 149.12 32.8012 149.388 32.1751 149.159L32.1107 149.133L0.652168 132.806C-0.0358964 132.447 -0.207295 131.463 0.271537 130.708L0.314175 130.644L5.3494 123.438C5.67591 122.885 6.35272 122.655 6.94388 122.881L8.02694 121.021V121.021L8.42311 120.337C14.6318 109.585 27.0014 86.155 44.4911 9.98356C44.6436 9.31809 44.7795 8.64902 44.9125 7.98029L45.1114 6.97796V6.97796L45.2125 6.47792C45.2295 6.39467 45.2467 6.31147 45.264 6.22834L45.3697 5.7303C45.7833 3.82435 46.3009 1.95803 47.25 0.225249L47.3763 0Z" fill="var(--fill-0, #102030)"/>
</svg>
