<svg preserveAspectRatio="none" width="100%" height="100%" overflow="visible" style="display: block;" viewBox="0 0 34 23" fill="none" xmlns="http://www.w3.org/2000/svg">
<path id="Path" fill-rule="evenodd" clip-rule="evenodd" d="M17.1293 0.00463843C26.1571 -0.140291 29.0022 3.14671 29.8714 4.86574L29.9376 5.00159V5.00159L29.9957 5.12997V5.12997L30.0461 5.2503V5.2503L30.0893 5.36197V5.36197L30.1259 5.46441V5.46441L30.1563 5.55701V5.55701L30.1914 5.67618V5.67618L30.2155 5.7699V5.7699L30.2383 5.88015V5.88015C30.3365 6.31403 30.3909 6.72804 30.4071 7.12288L30.4116 7.29027L30.4992 7.35347V7.35347L30.5843 7.41814V7.41814L30.7352 7.53857V7.53857L30.8726 7.65409V7.65409L30.9742 7.7429V7.7429L31.0827 7.84103V7.84103L31.1973 7.94838C31.2168 7.96703 31.2366 7.98606 31.2566 8.00547L31.3787 8.12643V8.12643L31.5047 8.25635V8.25635L31.6338 8.3951V8.3951L31.7652 8.54259C33.3069 10.3139 35.1246 13.8473 31.0658 18.3885L28.0672 12.0532C27.6964 12.3669 27.3069 12.6443 26.9187 12.8881L26.7248 13.0071C26.6925 13.0265 26.6603 13.0456 26.6281 13.0646L26.4355 13.1753V13.1753L26.2446 13.2807V13.2807L26.0559 13.3806V13.3806L25.8699 13.4753V13.4753L25.6872 13.5647V13.5647L25.5083 13.649V13.649L25.3338 13.7282V13.7282L25.1643 13.8023V13.8023L25.0003 13.8716V13.8716L24.7658 13.9664V13.9664L24.618 14.0236V14.0236L24.4777 14.0761V14.0761L24.2217 14.1674V14.1674L24.0535 14.2241V14.2241L23.7861 14.3082V14.3082L23.5791 14.367L24.701 11.2889C21.5636 15.1516 18.1722 15.7473 16.0219 15.6318L15.8381 15.6201V15.6201L15.6607 15.6051V15.6051L15.4901 15.5873V15.5873L15.3263 15.567V15.567L15.1697 15.5446V15.5446L15.0205 15.5205V15.5205L14.8788 15.4951V15.4951L14.7449 15.4687V15.4687L14.619 15.4417V15.4417L14.5013 15.4144V15.4144L14.3407 15.374V15.374L14.1998 15.3351V15.3351L14.0108 15.2773V15.2773L13.8795 15.2324V15.2324L13.8095 15.2059L16.6648 11.0571C14.8529 13.6814 11.7599 15.0629 8.63772 15.8171L8.29076 15.8983C8.1751 15.9246 8.05947 15.95 7.94393 15.9746L7.59763 16.0461C7.53998 16.0576 7.48236 16.0689 7.42479 16.0801L7.07999 16.1447C6.96528 16.1655 6.85082 16.1856 6.73667 16.205L6.3952 16.2612V16.2612L6.29649 16.5685V16.5685L6.19725 16.8874V16.8874L6.09758 17.2182V17.2182L5.99757 17.5611V17.5611L5.89731 17.9162V17.9162L5.7969 18.2838V18.2838L5.69644 18.664C5.67969 18.7284 5.66295 18.7934 5.64621 18.8589L5.54584 19.2584C5.52912 19.3261 5.51241 19.3944 5.49571 19.4631L5.39564 19.8825V19.8825L5.29589 20.3152C5.2793 20.3885 5.26272 20.4623 5.24617 20.5367L5.14707 20.99V20.99L5.04853 21.4572C5.03216 21.5362 5.01582 21.6159 4.9995 21.6961L4.90197 22.1845V22.1845L4.80524 22.6874V22.6874L4.75602 22.5764V22.5764L4.68479 22.4261V22.4261L4.61145 22.2796V22.2796L4.55327 22.1682V22.1682L4.48779 22.0474V22.0474L4.41511 21.9182V21.9182L4.33535 21.7821C4.32147 21.7589 4.3073 21.7355 4.29284 21.7119L4.20265 21.5677V21.5677L4.10564 21.4196C3.63717 20.7219 2.94945 19.9403 2.09154 19.6514L1.99897 19.6223L1.93469 19.348C1.70594 18.3435 1.54704 17.3261 1.45844 16.3031C1.36345 16.2454 1.27206 16.179 1.18456 16.1035C0.967425 15.9115 0.785856 15.6828 0.648166 15.4279C-0.198539 13.9084 -0.085904 11.9368 0.255804 10.1787L0.311555 9.90302V9.90302L0.370475 9.63143C0.380523 9.58655 0.390677 9.54185 0.400923 9.49737L0.463398 9.23307V9.23307L0.527444 8.97436C0.538214 8.93174 0.549022 8.88938 0.559857 8.84729C1.02853 6.99504 2.0101 5.31184 3.39229 3.99019C6.07419 1.44145 9.55206 0.532937 13.1005 0.197396L13.4678 0.164685C13.5291 0.159559 13.5903 0.154593 13.6516 0.14978L14.0193 0.122709V0.122709L14.3871 0.0990684C14.4484 0.0953997 14.5097 0.091863 14.571 0.0884529L14.9385 0.0694674C14.9997 0.0665417 15.0609 0.0637316 15.1221 0.0610316L15.489 0.04611V0.04611L15.8552 0.0335696V0.0335696L16.2206 0.0231476V0.0231476L16.7667 0.0109127V0.0109127L17.1293 0.00463843V0.00463843Z" fill="var(--fill-0, #102030)"/>
</svg>
