<svg preserveAspectRatio="none" width="100%" height="100%" overflow="visible" style="display: block;" viewBox="0 0 85 90" fill="none" xmlns="http://www.w3.org/2000/svg">
<path id="Path" d="M57.4388 58.8217L57.3168 58.4769L56.8719 61.5774L49.4809 60.7918C51.5514 62.1615 53.8469 63.4693 56.391 64.6942L65.3803 69.8116L53.0707 88.8584L38.9587 81.2671L38.849 81.2213L38.6099 81.1167L38.3473 80.997L38.1344 80.8971L37.8924 80.7806L37.6222 80.6474C37.5275 80.6002 37.4283 80.5501 37.3248 80.4971L37.0011 80.3294C36.889 80.2705 36.7726 80.2087 36.6522 80.144L36.279 79.9406C31.53 77.3199 21.4558 70.5275 14.2127 57.0447L0.800004 55.6179L6.56715 22.7854L6.58416 22.6708L6.62134 22.4422L6.68202 22.1006L6.70786 21.9631L6.76851 21.6546L6.84165 21.3035L6.87633 21.1436L6.95289 20.8033L7.03939 20.4368C8.49003 14.4345 13.8354 -0.845779 30.3673 1.33928L30.8984 1.41493L33.565 2.0694C34.1501 1.64448 34.7984 1.23573 35.4889 0.898851L35.6973 0.800001L38.0765 1.43185L38.0595 1.49549L44.3278 10.3227L50.344 6.18753L50.3792 6.06136L50.721 4.78983L50.8986 4.83716L51.8254 6.55124L52.7861 6.78693L52.9861 6.80993L53.1364 6.83243L53.2581 6.85304L53.3963 6.87874L53.5505 6.91004L53.7201 6.94745L53.9045 6.99148L54.103 7.04265L54.2075 7.07107L54.3152 7.10147L54.5405 7.16844L54.6578 7.20515L54.7782 7.24409L55.0277 7.32892L55.2021 7.39146L55.3815 7.45854L55.5656 7.53034L55.7542 7.60699L55.9473 7.68866L56.1446 7.77551C56.1779 7.79043 56.2113 7.80556 56.2448 7.82093L56.4481 7.91583L56.6552 8.0163C56.7249 8.05073 56.7951 8.08612 56.8659 8.12249L57.0801 8.23456C57.152 8.27291 57.2244 8.31227 57.2974 8.35266L57.5179 8.47695L57.7412 8.60759C57.8161 8.65221 57.8915 8.69791 57.9672 8.74473L58.1958 8.88853L58.4267 9.03914C61.018 10.7596 64.0168 13.784 66.3076 19.0909L66.4107 19.3325L66.5609 19.7521L66.8245 20.4707L67.1596 21.3632L67.4573 22.1411L67.73 22.8427L68.0329 23.6113L68.2967 24.2722L68.5793 24.9721L68.8806 25.7094C68.9324 25.8353 68.9849 25.9627 69.0383 26.0915L69.3672 26.8817L69.7143 27.705C72.6825 34.7003 77.5226 44.9752 83.7079 54.1433" stroke="var(--stroke-0, #000001)" stroke-width="1.6" stroke-linecap="round" stroke-linejoin="round"/>
</svg>
