<svg preserveAspectRatio="none" width="100%" height="100%" overflow="visible" style="display: block;" viewBox="0 0 14 18" fill="none" xmlns="http://www.w3.org/2000/svg">
<path id="Change Color" fill-rule="evenodd" clip-rule="evenodd" d="M0 0C0.0532851 0.0578255 0.107344 0.115444 0.162187 0.172827L0.329076 0.344236C0.526547 0.543318 0.733741 0.739145 0.951089 0.93045L1.13988 1.09329L1.33371 1.25374C3.46099 2.97831 6.48489 4.25062 10.7492 4.0569L10.9469 4.04692L11.0667 4.04378L11.1728 4.03764L11.2607 4.03082L11.4169 4.01539L11.6009 3.99237L11.738 3.97205L11.8863 3.94724L12.045 3.91749L12.2137 3.88235C12.2426 3.87602 12.272 3.86944 12.3017 3.86261L12.4844 3.81854C12.6716 3.77128 12.8718 3.71425 13.0828 3.64543L13.0829 11.285C13.0829 14.8905 10.1542 17.8133 6.54147 17.8133C2.92874 17.8133 5.16803e-05 14.8905 5.16803e-05 11.285L0 0Z" fill="var(--fill-0, #FFDEB7)"/>
</svg>
