<svg preserveAspectRatio="none" width="100%" height="100%" overflow="visible" style="display: block;" viewBox="0 0 57 10" fill="none" xmlns="http://www.w3.org/2000/svg">
<g id="Group">
<path id="Vector" d="M0.230561 7.74064C0.179325 7.74064 0.12809 7.71575 0.0768543 7.66597C0.0256186 7.61619 0 7.56642 0 7.49175C0 7.46686 -3.91279e-07 7.44197 0.0256175 7.39219L2.71549 0.398226C2.74111 0.323557 2.79235 0.273777 2.84358 0.199109C2.89482 0.14933 2.99729 0.124443 3.09976 0.124443H4.32942C4.43189 0.124443 4.53436 0.14933 4.5856 0.199109C4.63683 0.248888 4.68807 0.323557 4.71368 0.398226L7.40356 7.39219C7.40356 7.41708 7.40356 7.46686 7.40356 7.49175C7.40356 7.56642 7.37794 7.61619 7.3267 7.66597C7.27547 7.71575 7.22424 7.74064 7.173 7.74064H6.19952C6.09705 7.74064 6.02019 7.71575 5.96896 7.66597C5.91772 7.61619 5.89211 7.56641 5.86649 7.54153L5.35413 6.22238H2.02381L1.51145 7.54153C1.48584 7.5913 1.46022 7.64108 1.40898 7.66597C1.35775 7.71575 1.28089 7.74064 1.17842 7.74064H0.230561ZM2.4337 4.95301H4.96986L3.68897 1.59292L2.4337 4.95301Z" fill="var(--fill-0, #585959)"/>
<path id="Vector_2" d="M11.8867 7.84021C11.3487 7.84021 10.8876 7.74065 10.4777 7.54153C10.0679 7.34241 9.76044 7.06863 9.52988 6.69529C9.29932 6.32194 9.17123 5.87393 9.14561 5.35125C9.14561 5.2517 9.14561 5.10236 9.14561 4.92813C9.14561 4.7539 9.14561 4.60457 9.14561 4.48012C9.17123 3.95744 9.29932 3.50943 9.52988 3.13608C9.76044 2.76274 10.0679 2.48896 10.4777 2.28984C10.8876 2.09073 11.3487 1.99117 11.8867 1.99117C12.3735 1.99117 12.7577 2.06583 13.1164 2.19028C13.4494 2.31473 13.7312 2.48896 13.9361 2.68807C14.1411 2.88719 14.3204 3.0863 14.4229 3.31031C14.5253 3.53432 14.5766 3.70854 14.6022 3.88277C14.6022 3.95744 14.5766 4.03211 14.5253 4.08189C14.4741 4.13167 14.3973 4.15656 14.3204 4.15656H13.3469C13.2701 4.15656 13.2188 4.13167 13.1676 4.10678C13.1164 4.08189 13.0908 4.00722 13.0395 3.93255C12.937 3.63387 12.7833 3.43476 12.604 3.31031C12.4247 3.18586 12.1941 3.13608 11.9123 3.13608C11.5281 3.13608 11.2463 3.26053 11.0157 3.48454C10.7852 3.70855 10.6827 4.08189 10.6571 4.55479C10.6314 4.82857 10.6314 5.07747 10.6571 5.32636C10.6827 5.82415 10.7852 6.19749 11.0157 6.4215C11.2463 6.64551 11.5281 6.76996 11.9123 6.76996C12.1941 6.76996 12.4247 6.72018 12.604 6.59573C12.7833 6.47128 12.937 6.27217 13.0395 5.97349C13.0651 5.89882 13.1164 5.84904 13.1676 5.79926C13.2188 5.77437 13.2701 5.74948 13.3469 5.74948H14.3204C14.3973 5.74948 14.4485 5.77437 14.5253 5.82415C14.5766 5.87393 14.6022 5.92371 14.6022 6.02327C14.6022 6.14772 14.551 6.29706 14.4997 6.47128C14.4485 6.64551 14.346 6.79485 14.1923 6.96907C14.0642 7.1433 13.8849 7.29264 13.68 7.44197C13.475 7.59131 13.2188 7.69087 12.937 7.79042C12.604 7.79042 12.271 7.84021 11.8867 7.84021Z" fill="var(--fill-0, #585959)"/>
<path id="Vector_3" d="M18.5473 7.84021C18.163 7.84021 17.8044 7.76554 17.4969 7.6162C17.1895 7.46686 16.9333 7.26775 16.754 7.01885C16.5747 6.76996 16.4722 6.49617 16.4722 6.1726C16.4722 5.67481 16.6772 5.25169 17.1127 4.95302C17.5482 4.65434 18.0861 4.45523 18.7778 4.35567L20.3149 4.13166V3.90766C20.3149 3.60898 20.238 3.36009 20.0843 3.21075C19.9306 3.03652 19.6488 2.96186 19.2902 2.96186C19.034 2.96186 18.8034 3.01164 18.6241 3.11119C18.4448 3.21075 18.3423 3.36009 18.2399 3.53432C18.1886 3.63387 18.0861 3.68365 17.9837 3.68365H17.1127C17.0358 3.68365 16.959 3.65876 16.9333 3.60899C16.8821 3.55921 16.8821 3.50942 16.8821 3.43476C16.8821 3.31031 16.9333 3.18586 17.0358 3.01163C17.1383 2.83741 17.2664 2.68807 17.4713 2.53873C17.6506 2.3894 17.9068 2.24006 18.2142 2.1405C18.5216 2.04094 18.8803 1.96627 19.3158 1.96627C19.7769 1.96627 20.1868 2.01605 20.4942 2.1405C20.8272 2.26495 21.0834 2.41429 21.2628 2.58851C21.4677 2.78763 21.5958 2.98674 21.6983 3.26053C21.7751 3.50942 21.8263 3.78321 21.8263 4.05699V7.46686C21.8263 7.54153 21.8007 7.59131 21.7495 7.64109C21.6983 7.69087 21.6214 7.71576 21.5702 7.71576H20.6735C20.5967 7.71576 20.5198 7.69087 20.4686 7.64109C20.4174 7.59131 20.3917 7.51664 20.3917 7.46686V7.04374C20.2893 7.16819 20.1612 7.29263 20.0075 7.41708C19.8538 7.54153 19.6488 7.64109 19.4183 7.71576C19.1365 7.79043 18.8803 7.84021 18.5473 7.84021ZM18.9315 6.81973C19.1877 6.81973 19.4183 6.76996 19.6488 6.64551C19.8538 6.54595 20.0331 6.37172 20.1612 6.14772C20.2893 5.92371 20.3405 5.62504 20.3405 5.27658V5.05258L19.2133 5.2268C18.7778 5.30147 18.4448 5.40103 18.2399 5.55037C18.0349 5.6997 17.9068 5.87393 17.9068 6.07305C17.9068 6.22238 17.9581 6.37172 18.0605 6.47128C18.163 6.59573 18.2911 6.6704 18.4448 6.72018C18.5985 6.76996 18.7522 6.81973 18.9315 6.81973Z" fill="var(--fill-0, #585959)"/>
<path id="Vector_4" d="M26.5145 7.84021C26.1302 7.84021 25.7972 7.76554 25.4898 7.64109C25.208 7.51664 24.9518 7.34242 24.7469 7.09352C24.5419 6.86951 24.4138 6.59573 24.3114 6.27216C24.2089 5.9486 24.1577 5.60015 24.132 5.2268C24.132 5.10236 24.132 4.97791 24.132 4.87835C24.132 4.77879 24.132 4.65434 24.132 4.5299C24.1577 4.15655 24.2089 3.83299 24.3114 3.50942C24.4138 3.21075 24.5675 2.93696 24.7469 2.68807C24.9518 2.46406 25.1824 2.26495 25.4898 2.1405C25.7716 2.01605 26.1302 1.94138 26.5145 1.94138C26.9244 1.94138 27.2574 2.01605 27.5392 2.1405C27.821 2.26495 28.0516 2.43917 28.2309 2.66318V0.248895C28.2309 0.174227 28.2565 0.124445 28.3077 0.0746656C28.359 0.0248865 28.4102 0 28.5127 0H29.4606C29.5374 0 29.5886 0.0248865 29.6399 0.0746656C29.6911 0.124445 29.7167 0.199116 29.7167 0.248895V7.44197C29.7167 7.51664 29.6911 7.56642 29.6399 7.6162C29.5886 7.66598 29.5118 7.69087 29.4606 7.69087H28.5895C28.5127 7.69087 28.4358 7.66598 28.3846 7.6162C28.3334 7.56642 28.3077 7.49175 28.3077 7.44197V7.06863C28.1284 7.29263 27.8722 7.46686 27.5904 7.6162C27.3087 7.76554 26.95 7.84021 26.5145 7.84021ZM26.9244 6.67039C27.2318 6.67039 27.488 6.59573 27.6673 6.47128C27.8466 6.32194 28.0003 6.14772 28.0772 5.9486C28.154 5.72459 28.2053 5.52548 28.2309 5.30147C28.2309 5.17702 28.2309 5.02769 28.2309 4.87835C28.2309 4.72901 28.2309 4.57967 28.2309 4.45523C28.2309 4.23122 28.1797 4.0321 28.0772 3.83299C27.9747 3.63387 27.8466 3.45965 27.6417 3.3352C27.4624 3.21075 27.2062 3.13608 26.9244 3.13608C26.617 3.13608 26.3608 3.21075 26.1815 3.3352C26.0021 3.45965 25.8741 3.63387 25.7972 3.85788C25.7203 4.08189 25.6691 4.30589 25.6435 4.57967C25.6435 4.80368 25.6435 5.0028 25.6435 5.2268C25.6691 5.4757 25.6947 5.72459 25.7972 5.9486C25.8741 6.17261 26.0021 6.34683 26.1815 6.47128C26.3608 6.62062 26.617 6.67039 26.9244 6.67039Z" fill="var(--fill-0, #585959)"/>
<path id="Vector_5" d="M34.8144 7.84021C33.9947 7.84021 33.3286 7.6162 32.8418 7.1433C32.3551 6.6704 32.0989 6.02327 32.0477 5.17702C32.0477 5.10235 32.0477 5.0028 32.0477 4.90324C32.0477 4.77879 32.0477 4.70412 32.0477 4.62945C32.0733 4.08188 32.2014 3.60898 32.432 3.21075C32.6625 2.81252 32.9699 2.51384 33.3798 2.28984C33.7897 2.06583 34.2508 1.96627 34.7888 1.96627C35.4036 1.96627 35.8904 2.09072 36.3003 2.33962C36.7101 2.58851 37.0176 2.91208 37.2225 3.36009C37.4275 3.78321 37.5299 4.281 37.5299 4.85346V5.07747C37.5299 5.15213 37.5043 5.20191 37.4531 5.25169C37.4018 5.30147 37.325 5.32636 37.2481 5.32636H33.5335C33.5335 5.37614 33.5335 5.40103 33.5335 5.40103C33.5335 5.64993 33.5848 5.89882 33.6872 6.09794C33.7897 6.32194 33.9178 6.47128 34.0971 6.62062C34.2764 6.74506 34.507 6.81973 34.7632 6.81973C34.9681 6.81973 35.1475 6.79485 35.2755 6.72018C35.4293 6.6704 35.5317 6.59573 35.6342 6.49617C35.7111 6.4215 35.7879 6.34683 35.8135 6.29705C35.8904 6.22238 35.9416 6.14772 35.9672 6.14772C36.0185 6.12283 36.0697 6.12283 36.1466 6.12283H37.12C37.1969 6.12283 37.2481 6.14772 37.2994 6.1975C37.3506 6.24727 37.3762 6.29705 37.3506 6.37172C37.3506 6.49617 37.2737 6.62062 37.1713 6.79484C37.0432 6.96907 36.8895 7.11841 36.6845 7.29263C36.4796 7.44197 36.1978 7.59131 35.8648 7.69087C35.6086 7.79043 35.2499 7.84021 34.8144 7.84021ZM33.6104 4.43034H36.0697V4.40545C36.0697 4.13166 36.0185 3.88277 35.916 3.65876C35.8135 3.43476 35.6854 3.28542 35.4805 3.16097C35.3012 3.03653 35.0706 2.98675 34.8144 2.98675C34.5582 2.98675 34.3277 3.03653 34.1484 3.16097C33.969 3.28542 33.8153 3.43476 33.7385 3.65876C33.636 3.88277 33.6104 4.13166 33.6104 4.40545V4.43034Z" fill="var(--fill-0, #585959)"/>
<path id="Vector_6" d="M40.1686 7.74064C40.0918 7.74064 40.0406 7.71575 39.9893 7.66597C39.9381 7.61619 39.9125 7.54153 39.9125 7.49175V2.33962C39.9125 2.26495 39.9381 2.21517 39.9893 2.16539C40.0406 2.11561 40.1174 2.09072 40.1686 2.09072H41.0396C41.1165 2.09072 41.1677 2.11561 41.219 2.16539C41.2702 2.21517 41.2958 2.28984 41.2958 2.33962V2.71296C41.4495 2.51384 41.6545 2.33961 41.9363 2.19028C42.1924 2.04094 42.5255 1.96627 42.8841 1.96627C43.7295 1.94138 44.3187 2.26495 44.6518 2.93696C44.8311 2.63829 45.0616 2.41429 45.3947 2.24006C45.7277 2.06583 46.0864 1.96627 46.4706 1.96627C46.8549 1.96627 47.2135 2.04094 47.521 2.21517C47.8284 2.38939 48.0845 2.66318 48.2639 3.01163C48.4432 3.36009 48.5457 3.8081 48.5457 4.33078V7.44197C48.5457 7.51664 48.52 7.56642 48.4688 7.61619C48.4176 7.66597 48.3407 7.69086 48.2895 7.69086H47.3672C47.2904 7.69086 47.2392 7.66597 47.1879 7.61619C47.1367 7.56642 47.1111 7.49175 47.1111 7.44197V4.40545C47.1111 4.08188 47.0598 3.83299 46.9574 3.63387C46.8549 3.43475 46.7268 3.31031 46.5731 3.23564C46.4194 3.16097 46.2144 3.11119 46.0351 3.11119C45.8814 3.11119 45.7021 3.16097 45.5484 3.23564C45.3947 3.31031 45.241 3.45964 45.1385 3.63387C45.036 3.83299 44.9848 4.08188 44.9848 4.40545V7.44197C44.9848 7.51664 44.9592 7.56642 44.9079 7.61619C44.8567 7.66597 44.7799 7.69086 44.7286 7.69086H43.7808C43.7039 7.69086 43.6527 7.66597 43.6014 7.61619C43.5502 7.56642 43.5246 7.49175 43.5246 7.44197V4.40545C43.5246 4.08188 43.4733 3.83299 43.3709 3.63387C43.2684 3.43475 43.1403 3.31031 42.961 3.23564C42.8073 3.16097 42.6279 3.11119 42.4486 3.11119C42.2693 3.11119 42.1156 3.16097 41.9363 3.23564C41.7826 3.31031 41.6289 3.45964 41.5264 3.63387C41.4239 3.83299 41.3727 4.08188 41.3727 4.40545V7.44197C41.3727 7.51664 41.3471 7.56642 41.2958 7.61619C41.2446 7.66597 41.1677 7.69086 41.1165 7.69086H40.1686V7.74064Z" fill="var(--fill-0, #585959)"/>
<path id="Vector_7" d="M51.953 9.78159C51.9018 9.78159 51.8505 9.7567 51.7993 9.70692C51.7481 9.65714 51.7225 9.60736 51.7225 9.55759C51.7225 9.5327 51.7225 9.50781 51.7225 9.48292C51.7225 9.45803 51.7481 9.43314 51.7737 9.38336L52.6447 7.3673L50.4928 2.43917C50.4672 2.36451 50.4416 2.31473 50.4416 2.28984C50.4416 2.21517 50.4672 2.16539 50.5184 2.11561C50.5696 2.06583 50.6209 2.04094 50.6977 2.04094H51.5944C51.6712 2.04094 51.7481 2.06583 51.7993 2.11561C51.8505 2.16539 51.8762 2.21517 51.9018 2.26495L53.3876 5.82415L54.9247 2.26495C54.9503 2.21517 54.9759 2.16539 55.0272 2.11561C55.0784 2.06583 55.1296 2.06583 55.2321 2.06583H56.1287C56.18 2.06583 56.2312 2.09072 56.2824 2.1405C56.3337 2.19028 56.3593 2.24006 56.3593 2.28984C56.3593 2.33962 56.3337 2.3894 56.3081 2.46406L53.1571 9.58248C53.1314 9.63226 53.0802 9.68203 53.0546 9.73181C53.0034 9.78159 52.9521 9.78159 52.8496 9.78159H51.953V9.78159Z" fill="var(--fill-0, #585959)"/>
</g>
</svg>
